/* XPM */
static const char *grass1[] = {
/* columns rows colors chars-per-pixel */
"50 50 165 2 ",
"   c #0A1403",
".  c #0D1B03",
"X  c #0F2104",
"o  c #122405",
"O  c #162906",
"+  c #182E07",
"@  c #172C08",
"#  c #192E08",
"$  c #1B3207",
"%  c #1D3807",
"&  c #1D340A",
"*  c #1E3A0C",
"=  c #1D3C10",
"-  c #20370B",
";  c #223C0C",
":  c #233E11",
">  c #26420E",
",  c #29450E",
"<  c #2A480F",
"1  c #254413",
"2  c #294613",
"3  c #264915",
"4  c #2B4B15",
"5  c #274618",
"6  c #2A4618",
"7  c #27481A",
"8  c #2D4C1A",
"9  c #304E17",
"0  c #304F1B",
"q  c #2E5016",
"w  c #2E511B",
"e  c #315217",
"r  c #30551B",
"t  c #30561B",
"y  c #31511C",
"u  c #30531C",
"i  c #31521D",
"p  c #31531D",
"a  c #32531C",
"s  c #32521D",
"d  c #30511F",
"f  c #30531E",
"g  c #31531E",
"h  c #33531E",
"j  c #34531C",
"k  c #35531D",
"l  c #30541C",
"z  c #31541C",
"x  c #31541D",
"c  c #30551D",
"v  c #31551D",
"b  c #32541C",
"n  c #33541C",
"m  c #32541D",
"M  c #32551D",
"N  c #31561C",
"B  c #31561D",
"V  c #31571D",
"C  c #32561D",
"Z  c #32571D",
"A  c #31541E",
"S  c #31551E",
"D  c #31541F",
"F  c #32541E",
"G  c #32551E",
"H  c #32541F",
"J  c #33551F",
"K  c #31561E",
"L  c #32561E",
"P  c #33561E",
"I  c #32571E",
"U  c #33571E",
"Y  c #33571F",
"T  c #36551D",
"R  c #34551F",
"E  c #35551F",
"W  c #35571F",
"Q  c #36561E",
"!  c #32521D",
"~  c #38571F",
"^  c #33581C",
"/  c #32581E",
"(  c #33581E",
")  c #32581F",
"_  c #33581F",
"`  c #33591F",
"'  c #335A1F",
"]  c #34591E",
"[  c #34581F",
"{  c #35591F",
"}  c #37581F",
"|  c #355C1F",
" . c #35581C",
".. c #38591F",
"X. c #385A1E",
"o. c #314E21",
"O. c #325220",
"+. c #325420",
"@. c #335520",
"#. c #335620",
"$. c #335720",
"%. c #345520",
"&. c #345521",
"*. c #345720",
"=. c #355720",
"-. c #345721",
";. c #375620",
":. c #355523",
">. c #355722",
",. c #355723",
"<. c #355524",
"1. c #365724",
"2. c #345422",
"3. c #385720",
"4. c #385725",
"5. c #335820",
"6. c #345820",
"7. c #345920",
"8. c #345921",
"9. c #355921",
"0. c #355A21",
"q. c #355B21",
"w. c #355822",
"e. c #355923",
"r. c #365923",
"t. c #375923",
"y. c #355B22",
"u. c #365A22",
"i. c #375B22",
"p. c #375B23",
"a. c #375D22",
"s. c #375C23",
"d. c #375D23",
"f. c #365824",
"g. c #375A24",
"h. c #375B24",
"j. c #375B25",
"k. c #375824",
"l. c #385A23",
"z. c #385D22",
"x. c #385926",
"c. c #395A27",
"v. c #385C24",
"b. c #385D24",
"n. c #395C25",
"m. c #385D25",
"M. c #395D25",
"N. c #395C26",
"B. c #3A5C26",
"V. c #3A5C27",
"C. c #395A25",
"Z. c #395728",
"A. c #3A5B28",
"S. c #3C5F29",
"D. c #3B5C29",
"F. c #3B6126",
"G. c #3B6127",
"H. c #3D6327",
"J. c #3B6027",
"K. c #3C6028",
"L. c #3D6228",
"P. c #3D6329",
"I. c #3D622A",
"U. c #3E602B",
"Y. c #40612E",
/* pixels */
"o @ * & - - * * 1 1 1 1 1 1 1 4 8 w r w 8 w w F F F q w F w a / F w 8 4 4 w 5 5 4 4 4 2 4 2 1 2 * $ ",
"o @ & * 2 : - ; 4 4 1 1 4 4 2 w w / w F w F w F r.5.w F / / / / w w F w w r 8 4 8 4 4 4 9 9 4 2 ; * ",
"O $ * - 1 2 1 2 4 q 3 4 4 q 3 8 w / / / F 5./ F r.5.w s.r.r.s.s./ w w F F F F w w y y 8 a y 4 4 1 * ",
"O * * > 2 4 2 2 4 4 2 4 4 8 w r | / [ w F w F +.r.+.F r.r.5.r.z.r.r./ +.r.F [ w F y F y a W h 4 4 - ",
"O & - 1 4 4 2 1 4 4 4 4 4 4 r w F / r.F F a O.<.+.;.M.r.r.+.s.s.r.r.r.j.r.F F 8 F / y W W X.3.4 2 - ",
"O & ; 2 4 2 > 4 1 1 4 q 4 4 y F F [ r.s.j.j.C.j.<.r.M.r.F j.G.M.H.K.M.r.w F W a a F y a y [ W 9 2 1 ",
"# * 2 4 4 > 1 4 4 4 4 8 4 4 w 8 w F F r.M.M.M.;.;.C.S.M.S.K.K.K.G.M.r.M.w a ;.a 8 F 8 w 9 ;.h y 4 1 ",
"# & > 4 4 2 4 4 2 8 w 8 8 8 4 w F F F F r.r.M.C.;.j.j.M.S.M.M.G.G.z.v.;.+.F a F r.a y y y W l.y 2 1 ",
"& - ; 1 2 2 2 4 4 y 8 y 8 8 4 w F a a a C.S.j.j.S.C.;.C.S.M.C.C.j.r.j.a r.F r.r.;.a h 9 h h a 4 2 2 ",
"- - > 2 2 2 4 4 9 8 4 w w 8 4 8 8 a 8 ;.M.j.j.j.;.C.j.C.C.S.S.C.M.<.M.S.r.+.;.r.W l.a a h a h j j 2 ",
"- ; ; 2 2 2 4 4 8 4 4 8 8 8 8 0 6 8 8 O.<.<.C.C.M.A.<.A.A.C.K.S.A.+.+.j.O.r.M.;.l.V.r.a h a 3.9 9 2 ",
"; ; ; 2 4 4 1 4 y 8 8 a a 8 8 0 O.8 8 a ;.;.;.<.C.&.O.A.S.A.A.M.C.;.a ;.<.S.S.l.;.C.l.h h h y 0 9 4 ",
"; > > 4 4 4 4 2 8 9 9 y a 8 8 8 ;.a a a ;.;.4.j.+.8 ;.S.A.<.C.;.C.j.;.;.O.C.C.M.C.;.a 8 a h y j 9 4 ",
"& ; > 2 4 2 4 9 9 y y y 8 9 8 8 8 a ;.a r.<.<.<.<.;.j.A.S.S.C.<.;.;.C.;.;.&.4.C.C.l.W 8 9 W h 9 9 4 ",
"& ; ; > 4 9 4 9 8 4 9 a h a 8 a 8 a O.C.<.2.<.<.4.A.A.<.S.Y.A.C.D.4.;.O.4.4.;.C.C.l.;.W W W h 9 9 2 ",
"# - - > 2 4 4 4 8 4 8 ;.C.&.;.;.w a a C.C.<.<.<.&.A.A.<.A.S.S.C.C.C.S.<.<.S.C.C.C.l.h r.W W y j y 2 ",
"# * ; ; 1 2 4 4 8 y 9 W ;.a &.a +.;.<.&.O.<.4.O.2.4.<.A.Z.A.D.C.S.4.4.<.&.4.C.S.C.C.M.;.;.h h 9 4 2 ",
"# ; > 2 4 4 2 2 4 4 8 w 8 0 a ;.j.;.;.j.;.<.<.<.O.O.2.Z.S.Y.S.A.S.S.4.;.<.C.V.D.;.;.;.h C.W ~ j 9 4 ",
"# * ; > 4 2 2 2 4 2 8 a a a 8 r.r.F F ;.w w &.o.2.2.2.A.S.S.S.C.C.C.<.&.<.C.C.C.h F W h h h 9 9 e 2 ",
"# ; ; > 4 2 2 4 4 2 8 w 6 w r.+.l.O.+.;.O.O.Z.2.O.<.<.A.A.A.C.<.S.Y.C.A.A.V.C.;.;.h W l.l.h 8 9 9 4 ",
"$ ; ; > 2 2 1 2 1 2 4 4 6 8 F a a 8 8 a 0 <.Z.o.o.2.2.&.<.C.S.j.S.A.A.j.<.4.<.C.l.W ;.a W W ~ 9 9 9 ",
"* ; > 2 2 2 4 1 1 4 2 5 4 8 w ;.0 8 8 ;.4.A.<.2.<.Z.2.<.j.C.M.S.K.C.j.C.&.o.O.C.h a W y a a W 9 9 4 ",
"; ; > 4 4 4 4 4 5 8 4 5 1 2 6 0 8 8 0 &.<.O.o.2.<.4.&.j.+.<.<.r.r.S.;.;.<.&.&.<.;.8 9 y 8 ;.W j 9 2 ",
"; ; > 4 4 4 4 4 8 4 4 5 4 1 6 8 8 8 a O.2.2.O.<.2.4.<.<.+.j.O.C.;.C.<.O.<.<.;.a ;.a a h 8 a W h 9 2 ",
"$ ; > 4 4 4 4 4 y 4 4 8 5 6 6 8 6 6 a 8 8 O.o.&.A.Z.4.<.+.<.<.S.;.<.C.O.+.O.O.O.&.;.a &.a a y 9 2 ; ",
"* ; , 4 4 4 e 4 4 4 4 4 4 6 2 6 8 8 o.8 8 O.o.o.o.2.2.<.&.<.<.C.C.;.C.;.O.o.O.&.<.&.w a ;.h 8 8 2 - ",
"$ ; , 4 4 9 e y y w 4 4 6 6 6 6 0 8 8 8 O.o.2.o.o.8 O.+.O.C.<.<.r.j.A.<.<.O.2.&.4.<.a 0 a 0 8 8 2 - ",
"# ; ; 4 4 4 4 4 r r 8 8 2 6 6 6 6 8 8 8 ;.o.o.2.O.O.O.2.2.A.A.O.<.S.j.<.<.O.w ;.;.w a a O.a h 8 2 - ",
"$ ; > 4 4 4 e e ^ w 4 8 6 6 6 6 6 6 a O.+.O.o.<.O.o.2.o.<.A.A.j.A.S.j.j.;.O.+.<.<.+.F ;.0 0 8 8 : - ",
"$ ; > 9 4 2 4 q q 4 8 8 4 6 4 8 w 8 8 ;.+.j.<.A.O.O.2.<.C.S.S.C.j.C.j.j.a +.r.<.j.;.+.+.6 8 8 8 2 : ",
"* ; > 4 4 2 1 4 4 w 4 4 4 4 8 w a ;.<.O.A.A.S.C.<.Z.&.<.A.S.A.A.j.;.+.C.O.O.+.;.<.O.a +.a 6 0 8 : - ",
"& ; > 4 2 2 1 4 4 w 8 4 4 w 6 F r.r.+.O.<.j.C.j.O.;.j.Z.Z.A.D.S.j.C.C.+.;.O.w <.<.O.;.r.a 8 0 4 : * ",
"* ; ; 2 2 4 4 4 w y 8 8 4 6 8 a +.;.;.8 O.<.j.<.8 w <.S.A.S.S.A.S.<.A.;.8 +.;.<.O.<.O.a a 8 8 2 : * ",
"% , > 2 > 4 4 4 8 4 4 4 4 1 8 a 8 O.O.w 8 a ;.O.O.<.<.j.O.S.S.A.j.O.A.<.0 ;.;.<.O.+.a a 8 8 2 2 1 * ",
"* ; ; 2 > 2 4 4 8 2 4 8 6 8 8 8 8 O.O.a O.O.<.8 +.j.O.;.A.S.C.A.C.;.;.&.;.O.r.a +.j.O.8 8 2 6 2 1 * ",
"; ; , > 2 2 > 2 4 1 4 2 6 8 8 8 a 8 8 a w 8 w w a O.8 o.A.A.j.;.j.<.a &.O.8 w 8 8 O.a 8 8 8 8 2 1 ; ",
"; ; > > , 4 > 1 2 2 2 4 5 8 a 8 a 8 8 8 6 w 8 8 8 <.O.<.<.<.C.j.<.j.;.O.o.8 O.8 8 8 8 4 8 9 y 4 2 ; ",
"* ; , 2 > > 4 1 2 4 4 4 1 6 8 6 8 6 8 6 w <.8 d O.O.<.;.<.+.j.A.<.;.O.O.O.8 0 6 6 8 8 4 4 9 W 8 2 ; ",
"$ > , , 4 4 4 > 1 1 4 2 4 8 6 8 8 8 8 6 w O.a O.O.8 O.2.o.O.<.<.O.a <.8 8 8 8 6 6 6 2 w y r y 4 2 - ",
"$ > > , < 2 4 1 2 2 4 8 8 6 8 8 w 6 8 6 8 O.d O.O.o.w a 8 O.;.<.8 +.<.O.<.O.8 8 8 6 5 w a y 4 4 2 ; ",
"% ; > , < , 4 4 4 4 4 8 8 4 w a a 8 w 8 O.O.8 8 w 8 8 6 w +.8 O.8 w r.w O.O.4 8 w 8 4 w a W y 4 4 > ",
"$ ; > > , < 4 , 1 4 4 4 4 8 4 8 a w w 8 8 8 o.6 w 6 8 8 w O.8 w w 8 +.8 8 8 3 4 3 4 4 w 9 y  .4 4 * ",
"# % ; ; , , 4 4 4 1 4 4 4 w 4 w w w w 8 8 w 8 5 6 6 1 8 O.8 8 8 w w w 6 6 8 8 4 5 4 w 4 4 4 4 4 4 ; ",
"+ $ % > , 4 < 4 4 4 4 4 8 w F F F F F 8 6 8 6 5 6 8 5 5 8 6 5 8 w 8 8 3 6 6 6 4 1 2 r q y  .e 4 4 ; ",
"# $ ; , , 4 4 , 4 4 y [ F w w 4 q q w 8 8 w 8 8 5 8 5 5 5 7 8 8 5 5 6 5 7 6 8 4 2 1 4 r [  . .e 4 ; ",
"O $ ; , , 4 4 , 4 e e W 4 4 4 4 4 q 8 3 8 7 7 8 6 5 1 5 6 8 8 6 5 6 3 5 5 5 4 4 3 1 4 r X. .e 4 > % ",
"o o $ > , < < < q e y y y 4 2 1 4 4 3 3 3 4 8 5 5 6 1 5 d d 5 6 5 5 1 1 1 5 3 6 4 1 4 e  . . .4 ; * ",
". o $ % ; , < < 4 4 e q r 4 1 1 1 1 1 3 3 3 1 3 5 1 : 1 8 8 5 1 5 3 3 5 1 5 1 5 1 1 , e y 4 4 < % $ ",
". o O $ ; ; > , 4 4 4 4 4 1 1 1 1 > 2 3 3 1 : : 1 = = = 1 7 1 : 4 1 8 1 = 1 = 1 1 1 ; 4 e 4 4 > $ o ",
"  . o O $ * * ; ; , 4 2 1 ; ; * * 1 3 5 1 3 = = * = & & = = * = = * 1 1 * & & * : * > 1 1 1 % $ o X "
};
