/* XPM */
static const char *character[] = {
/* columns rows colors chars-per-pixel */
"30 50 230 2 ",
"   c #3F191E",
".  c #2D1E28",
"X  c #29232C",
"o  c #322E39",
"O  c #1B1825",
"+  c #560C14",
"@  c #49161C",
"#  c #6A0E17",
"$  c #6A161B",
"%  c #7B111A",
"&  c #5A1A25",
"*  c #711B25",
"=  c #5B2B27",
"-  c #5D332B",
";  c #462B35",
":  c #48333C",
">  c #5A3739",
",  c #542B32",
"<  c #76272B",
"1  c #7B3628",
"2  c #683A37",
"3  c #7B3B3E",
"4  c #692D2E",
"5  c #5B2B1A",
"6  c #53413F",
"7  c #77443A",
"8  c #6E4334",
"9  c #2E3645",
"0  c #1F3C50",
"q  c #4A3945",
"w  c #6B3B44",
"e  c #793C43",
"r  c #324752",
"t  c #4D444D",
"y  c #574147",
"u  c #474652",
"i  c #574C57",
"p  c #5D505B",
"a  c #694647",
"s  c #774848",
"d  c #66504D",
"f  c #644E53",
"g  c #694851",
"h  c #764C53",
"j  c #695559",
"k  c #75585A",
"l  c #78524B",
"z  c #79615D",
"x  c #6D605E",
"c  c #675A67",
"v  c #775D64",
"b  c #536770",
"n  c #6B626C",
"m  c #7B656B",
"M  c #776566",
"N  c #776A74",
"B  c #7D727B",
"V  c #535F6E",
"C  c #85161C",
"Z  c #961A1D",
"A  c #A6171A",
"S  c #991C25",
"D  c #A21D20",
"F  c #832627",
"G  c #933431",
"H  c #AA2322",
"J  c #B92526",
"K  c #A5302C",
"L  c #B4322B",
"P  c #B93934",
"I  c #A33A31",
"U  c #C11F21",
"Y  c #CB2A2C",
"T  c #C62627",
"R  c #D32C2C",
"E  c #C5382D",
"W  c #C83A34",
"Q  c #DB3837",
"!  c #E63B38",
"~  c #8D4C37",
"^  c #BB4837",
"/  c #AB412D",
"(  c #996837",
")  c #D8423B",
"_  c #C5473B",
"`  c #E1463B",
"'  c #853D44",
"]  c #834243",
"[  c #854A49",
"{  c #865349",
"}  c #865657",
"|  c #945856",
" . c #94494E",
".. c #A84D4D",
"X. c #83675C",
"o. c #99665B",
"O. c #A86B56",
"+. c #B2645B",
"@. c #B5695D",
"#. c #B37250",
"$. c #826B6C",
"%. c #886866",
"&. c #926361",
"*. c #986B66",
"=. c #8C736C",
"-. c #92726F",
";. c #9C776B",
":. c #897678",
">. c #937A78",
",. c #826E74",
"<. c #A4766A",
"1. c #BA7766",
"2. c #A67A76",
"3. c #B4726C",
"4. c #905765",
"5. c #C74A41",
"6. c #DB4842",
"7. c #D5564B",
"8. c #EB4442",
"9. c #E64744",
"0. c #F4544D",
"q. c #CE654F",
"w. c #F9645A",
"e. c #C7776D",
"r. c #C27B70",
"t. c #9E827F",
"y. c #A88579",
"u. c #B3887A",
"i. c #B08670",
"p. c #D48558",
"a. c #CC9157",
"s. c #C98865",
"d. c #D48E64",
"f. c #CE926C",
"g. c #D9946B",
"h. c #C68978",
"j. c #C8967A",
"k. c #D79974",
"l. c #DBA272",
"z. c #E3A877",
"x. c #E7B07E",
"c. c #3D7486",
"v. c #457F88",
"b. c #7E7481",
"n. c #857A84",
"m. c #907982",
"M. c #4E8287",
"N. c #7B888D",
"B. c #75A0A8",
"V. c #8D828A",
"C. c #9A8B8C",
"Z. c #958586",
"A. c #9A939B",
"S. c #928E91",
"D. c #A38A88",
"F. c #B99787",
"G. c #A89895",
"H. c #B79A94",
"J. c #AD8C89",
"K. c #B8A298",
"L. c #ACA09E",
"P. c #A19CA4",
"I. c #88AAAB",
"U. c #97B0A9",
"Y. c #A7A3AA",
"T. c #BBACA5",
"R. c #B5A9A8",
"E. c #B7B4BA",
"W. c #AFB0B3",
"Q. c #C99683",
"!. c #D09989",
"~. c #D6A689",
"^. c #C6A897",
"/. c #D8AB96",
"(. c #DDB299",
"). c #D8B498",
"_. c #CEA98C",
"`. c #E6B38C",
"'. c #E6BA98",
"]. c #E3AA81",
"[. c #C5ADA3",
"{. c #C5B4AB",
"}. c #CCBAAE",
"|. c #C8B3A6",
" X c #D9BAA7",
".X c #CDBEB4",
"XX c #C6BBBA",
"oX c #D3BDB5",
"OX c #E2BDA4",
"+X c #BCC3B8",
"@X c #D8C0AA",
"#X c #CCC2BB",
"$X c #D4C5B9",
"%X c #DBCABD",
"&X c #D9C6B5",
"*X c #ECC5A4",
"=X c #EAC5AB",
"-X c #E6C5AA",
";X c #F1C9A5",
":X c #E5CAB5",
">X c #ECD3BD",
",X c #EED2B5",
"<X c #F4D4B4",
"1X c #F3D6BB",
"2X c #F5D3AF",
"3X c #ECC39C",
"4X c #C1BFC4",
"5X c #C8C5C9",
"6X c #D7CCC5",
"7X c #D7D3D5",
"8X c #D6D0CD",
"9X c #E5D2C4",
"0X c #ECD5C2",
"qX c #EED9C5",
"wX c #E9DACB",
"eX c #E5D8CC",
"rX c #F4DBC2",
"tX c #F3DBC6",
"yX c #E7DDD4",
"uX c #F6E3CC",
"iX c #EBE3D8",
"pX c #F2E4D3",
"aX c #FAE9D6",
"sX c #FBEEDC",
"dX c #F6E9DA",
"fX c #FCF0DF",
"gX c #F6ECE1",
"hX c #FDF2E2",
"jX c #FAF4EA",
"kX c None",
/* pixels */
"kXkX<X<XrXkXkXkXkXkXkXkXkXkXkXkXkXkXkXkXkXkXkXkXkXkXkXkXkXkX",
"kXkX(.~.=X1XkXkXkXkXkXkXkXkXkXkXkXkXkXkXkXkXkXkXkXkXkXkXkXkX",
"kXkXQ.+.h.'.=X'.kXkXkXkXkXkXkXkXkXkXkXkXkXkXkXkXkXkX0XOXj.kX",
"kXkXQ.+.@.Q.(.'.~.kXkXkXkX1X;X<X1XkXkXkXkXkXkXkX0X|.u.<.;.kX",
"kXkXQ.+.+.h./.(.(.j./.tXrX`.l.`.~.~.>XtXkXuX>X|.2.{ ] [ *.M ",
"kXkXh.@.@.h././.'./.'.tX;Xd.g.l.s.(.0X=X*X@XF.&.[ 3 ] { *.$.",
"kXkXh.1.1.j./. XOX,XtXuX'.p.g.s.!.>XqX-X).u.&.} s 3 ] | <.=.",
"kX:Xj.e.e.j.(.=XrXaXrXrX'.p.g.f.OXOX0X%X^.2.&.} s 3 ] | 2.-.",
"kX:XQ.r.h.~.=XrXaXsX;X;X3Xp.d./.~.~.9X%X|.J.-.} e 3 ] | y.-.",
"kX0X~.r.h.OXtXaXsXsX'.].*Xd.f.OXs.!.9X6X|.G.>.} s 3 [ | u.-.",
"kXkXOXQ./.0XaXsXdXaX*Xg.*Xd.~._.1. X9X$X{.H.>.$.s 3 [ *.J.%.",
"kXkX:X=X0XaXfXsXpXpX>Xf.'.f.).i.j.9X%X$X.XK.Z.$.h w s *.y.d ",
"kXkXqXrXaXfXhXsXpXwXwX~.).~._.1. X%X$X%XoXT.Z.,.v g h y.=.kX",
"kXuXuXaXsXhXwX|.T.&XwX-X)./.F.F.%X}.$X%X$XT.C.:.m v =.-.%.kX",
"kX1X<X1XrX|.j t o x %X:X).^.u.^.{.G.C.G.T.T.C.:.N m v v -.kX",
":X'.x.l.l.;.b N.n X C.0X).^.u.|.C.t 9 O o N C.n.N m v k *.%.",
"kX`.z.'.<X}.B.u : r N.qX-X^.H.T.i 0 q X 0 9 j m m m v k &.X.",
"kX X;X<X<X&XI.b u M.S.pXtX:X}.G.r r . 9 c.V %.7 8 a a s &.d ",
"kX$X;Xx.x.2X#XI.I.U.T.hXhXpX$XZ.r v.r M.B.G.K.;.7 - - { &.kX",
"kXkX=Xl.z.3X*X,XpXhXhX0X:X/.H..X#X+XW.+X@X_.u.-.k > 2 ;.z kX",
"kXkX:X'.~.j.s.'.sXjXjX Xh.<.[.gXdXqX:X-Xj.O.~ s g a &.-.kXkX",
"kXkXT.-Xj.i.u.&XiXiXiX%X<.^.yXeX6X#XF.<.*.{ 2 - 2 } 2.kXkXkX",
"kXkXkX|.).u.y.^.#X{.K.t.2.2.G.T.R.G.:.z k s 2 2 } y.M kXkXkX",
"kXkXkXkXG.K.F.u.;.=.=.H.[.D.m M N M k f a a s *.y.z kXkXkXkX",
"kXkXkXkXkXkX=.y.y.;.y.[.T.D.,.j f f f a s o.<.%.kXkXkXkXkXkX",
"kXkXkXkXkXkXkXkXkXX.X.-.>.$.j y : ; > } *.%.kXkXkXkXkXkXkXkX",
"kXkXkXkXkXkXkXkXkX1 8 l l 8 - 5 @   ; , > kXkXkXkXkXkXkXkXkX",
"kXkXkXkXkXkXkXkXkX/ a.~ 1 #.( 5 + $ h g & ' kXkXkXkXkXkXkXkX",
"kXkXkXkXkXkXkXkX5.) q._ _ q.K H D H ..2. .< kXkXkXkXkXkXkXkX",
"kXkXkXkXkXkXkXq._ 0.w.w.w.9.Q Q J H E 3.F.G G kXkXkXkXkXkXkX",
"kXkXkXkXkXkXkX5.) 0.0.0.0.Q R T Z C E 7.!.2.F ..kXkXkXkXkXkX",
"kXkXkXkXkXkXq.P 6.9.8.! ! R T A % + L ) e.+.F 1 | kXkXkXkXkX",
"kXkXkXkXkXkX^ P 6.9.8.! ! R J A C + F E ^ ~ 2 > ; kXkXkXkXkX",
"kXkXkXkXkX:X1.5.) 9.8.8.! Y J Z C # + G { -.:.v kXkXkXkXkXkX",
"kXkXkXkXkX0XQ.7.Q ! Q ! ! Y H S % # + @ D.wX{.:.kXkXkXkXkXkX",
"kXkXkXkXfX&Xi.7.6.` Q Q Q Y J Z % # + @ ^.pX}.Z.kXkXkXkXwXkX",
"kXkXkXkXdX}.+.L W ) Q R Y Y J D C # + } wXwX|.Z.kXkXkXkXoX>.",
"kXkXkXdXwX}.2. .K L W R Y T J S * & a 9XdXwX}.G.kXkXkX-XF.$.",
"kXkXkXoX[.G.G.R.D.&.} e e w w g i i n.iXyX6X.XC.kXkXkXf.o.k ",
"kXkXkX>.=.k >.7X7X5XE.Y.Y.P.Y.Y.Y.A.V.{.T.R.G.,.c kX~.O.[ d ",
"kXkXkXkXkXy C.yX7XE.P.P.E.4X7X7X7X5XP.B c N N j kXkXs.~ l kX",
"kXkXkXkXkXkXkX7X5XA.n p c V.W.5X7X7XR.c ; , 4.kXkX#.~ 7 d kX",
"kXkXkXkXkXkXkXe.H.m.p ; . q D.XXoX!...* @ & ' 3.O.7 4 a kXkX",
"kXkXkXkXkXkXkXI K F & @ @ @ < P W L K 4 : f = = 2 a a kXkXkX",
"kXkXkXkXkXkXkXkXkX%.k y y y kX$ < } m p t n y , > 6 kXkXkXkX",
"kXkXkXkXkXkXkXkXkXR.V.c c n kXkXkXC.G.V.c c N kXkXkXkXkXkXkX",
"kXkXkXkXkXkXkXgXyXXXA.n c n.kXkXkX6X#XXXS.N n.kXkXkXkXkXkXkX",
"kXkXkXkXkXkXeXiX6XW.n.c c B kXkXiXiX6X7XY.N N kXkXkXkXkXkXkX",
"kXkXkXkXkXkXL.R.A.b.p t t i kXkX6X#XXXXXn.c c kXkXkXkXkXkXkX",
"kXkXkXkXkXkXkXi t o X . X kXkXkX:.:.:.B p q kXkXkXkXkXkXkXkX"
};
