/* XPM */
static const char *wall[] = {
/* columns rows colors chars-per-pixel */
"50 50 178 2 ",
"   c #A95417",
".  c #AD5419",
"X  c #AA5A1A",
"o  c #B0561A",
"O  c #BF5E1C",
"+  c #9C691F",
"@  c #A2621D",
"#  c #BD621D",
"$  c #BA681F",
"%  c #A16F23",
"&  c #BB6721",
"*  c #B56B21",
"=  c #BC6B24",
"-  c #B27426",
";  c #B8772B",
":  c #C4571A",
">  c #C45D1C",
",  c #C85E1C",
"<  c #C3601D",
"1  c #CB641E",
"2  c #CF681F",
"3  c #D3651F",
"4  c #D16A1F",
"5  c #C56520",
"6  c #CC6620",
"7  c #C36B27",
"8  c #CC6C24",
"9  c #D36D22",
"0  c #C37324",
"q  c #CB7D27",
"w  c #C07529",
"e  c #CF772B",
"r  c #C57E2D",
"t  c #CB7D28",
"y  c #D67224",
"u  c #D97625",
"i  c #DA7926",
"p  c #D0772B",
"a  c #D2792C",
"s  c #DB7C29",
"d  c #E47225",
"f  c #E17C29",
"g  c #779B27",
"h  c #7C9D2B",
"j  c #6EAC2C",
"k  c #77A52C",
"l  c #7CA42E",
"z  c #76AB2D",
"x  c #79AD2F",
"c  c #75B12F",
"v  c #79B02F",
"b  c #77AD31",
"n  c #7BAE31",
"m  c #75B231",
"M  c #7DB132",
"N  c #7AB836",
"B  c #7FB13A",
"V  c #819F2D",
"C  c #8A9F2D",
"Z  c #9D992E",
"A  c #9C9D30",
"S  c #AF812D",
"D  c #B1802B",
"F  c #B7882F",
"G  c #BA8D2F",
"H  c #A8912F",
"J  c #B88D31",
"K  c #AC9430",
"L  c #A39D33",
"P  c #A59E36",
"I  c #A09B31",
"U  c #B39131",
"Y  c #B49130",
"T  c #B99130",
"R  c #B69D37",
"E  c #80A52F",
"W  c #8FA130",
"Q  c #8CA530",
"!  c #8BA332",
"~  c #86AB33",
"^  c #80AD32",
"/  c #8BAC34",
"(  c #89AD36",
")  c #8EAE38",
"_  c #97A633",
"`  c #9EA335",
"'  c #93A935",
"]  c #97AA35",
"[  c #80B031",
"{  c #80B132",
"}  c #81B132",
"|  c #80B133",
" . c #81B133",
".. c #80B032",
"X. c #82B133",
"o. c #80B233",
"O. c #81B233",
"+. c #82B233",
"@. c #81B134",
"#. c #83B234",
"$. c #83B334",
"%. c #83B335",
"&. c #82B334",
"*. c #80B136",
"=. c #80B237",
"-. c #82B036",
";. c #84B335",
":. c #85B335",
">. c #84B335",
",. c #86B335",
"<. c #86B336",
"1. c #85B435",
"2. c #85B435",
"3. c #85B436",
"4. c #85B536",
"5. c #87B436",
"6. c #86B536",
"7. c #87B537",
"8. c #85B736",
"9. c #87B435",
"0. c #83B334",
"q. c #89B437",
"w. c #88B537",
"e. c #89B536",
"r. c #89B636",
"t. c #89B437",
"y. c #81B339",
"u. c #84B339",
"i. c #85B438",
"p. c #8BB338",
"a. c #89B638",
"s. c #89B439",
"d. c #8CB739",
"f. c #8BB639",
"g. c #81B938",
"h. c #8BB839",
"j. c #8CB839",
"k. c #8DB83A",
"l. c #8CB83A",
"z. c #8EB83B",
"x. c #8EB93C",
"c. c #8DB83A",
"v. c #93B33B",
"b. c #98B63E",
"n. c #90B93A",
"m. c #90BA3C",
"M. c #90B93B",
"N. c #C1832B",
"B. c #CF832C",
"V. c #CE822B",
"C. c #C58A2E",
"Z. c #D0802D",
"A. c #D4812F",
"S. c #DE822C",
"D. c #D2892F",
"F. c #CD8B33",
"G. c #D58230",
"H. c #DD8B34",
"J. c #C29636",
"K. c #CC9C3A",
"L. c #D69033",
"P. c #D89435",
"I. c #D49639",
"U. c #DC9639",
"Y. c #D59939",
"T. c #D99939",
"R. c #E1842C",
"E. c #E3892F",
"W. c #E38C31",
"Q. c #E59236",
"!. c #E89536",
"~. c #E59638",
"^. c #E99638",
"/. c #E7993A",
"(. c #E99839",
"). c #94BC41",
"_. c #9FBA41",
"`. c #A6BE46",
/* pixels */
"B n n n n M M M n *.M n M M *.n n M M n n n n n M M n n n n n *.*.n n n *.n n u.n b b n n M M M M y.",
"n z n M M x x x z 5.M z x M w.x x z x ..x x ..w.z z z n w.x n M x x x x x z n *.x z ....z x ..*.x M ",
"M z 5.k...z n n x n z *.5.z n ..M n x ..x M M M n x x z M M n z z 5.w.k.x *.5.z M M n ..z x x x z n ",
"n z z z x z 5.5.z M n n n z ..f...n z x M n n n x z x 5...n x *.n n M n M n n z n 5.z z z M M z <.n ",
"n z n z n x x M z 5...x n m n M n *.n z k.k...w.n z z f.k.*.z 5.x x x x x x x n z z x <.z ..M z ..M ",
"n d.d.x x n x x x x x x m x x n z <.n x %...M *.M M z z x x x x z x ..n n n x x n n x n x z z z z n ",
"M 5.n x x n M M x n x x M M ..z n M n x m ..M m x <.<.z ..<.n #.z z x.5.k.M ..5.x n x M n <.x n M n ",
"n z x z ..w.5...<.x k z n w.<.M x 5.M M m h.m.*.z M ..x x M x x x x M M M M M M n n x *...5.n 5...n ",
"n x M n n *.n x z z z z n z z n n x m m M M m c x n m m z k n z z x x m m x x m m x n m x M x z x n ",
"n ......n n n n g.I Z j z Q K m 5.n Y / z M R ` c M ` K m z ~ U p.x b K ' M m L I m m.x ..5.x n M M ",
"M x n z x x n z _ s u C n B.d H N T d N.j A d p E ~ s u P m C.d G m K d A.f.' f u _ m x n x x x x M ",
"*.M ..n x n M f.U.u 9 & K.f y < J E.y 3 D ~.u 9 * Y.s y < J.R.y < F Q.y 3 - T.u 9 $ ^ M ..m n ..M *.",
"h.*.5.M z k.5._./.9 y > Q.i y > s E.9 6 8 !.9 y > ^.y y > W.S.y 1 p Q.9 9 < (.y u O ! M d.x <.w.n <.",
"n x z x n n z d./.9 u > ~.i y < G.E.9 9 8 !.4 y < /.y u < H.S.9 6 e Q.9 y 5 (.9 u # h z n z x n x n ",
"n x x n M x k D (.9 y > Q.i y < G.W.9 9 8 !.9 y < /.y y > H.S.9 2 p Q.9 y 5 (.9 u > + z z x x x x n ",
"M x z z z z l = ^.y u > Q.i u < G.E.9 9 8 !.9 y > ~.y u > H.S.y 1 p W.9 y 5 ^.9 u > . ^ *.n z n 5.n ",
"n M f.M z x l = ^.y u > Q.s u < G.W.u 4 8 !.y y < ~.i u > H.E.u 1 p Q.y 9 5 ~.u i > X i.5.k z M <.z ",
"n n d.M z M l = ^.y u > Q.s u < A.W.y 9 8 !.y y < ~.i u > H.E.y 2 p Q.y y 5 ^.u y >   ..z z M x z z ",
"M x z z z h.n - ^.y u > Q.s u < A.W.y 9 8 !.y u < ~.i u > H.E.y 6 p Q.y y 5 (.y u > @ 5.n z ..<.z n ",
"n x x k n n z ) /.9 i > !.s u < A.E.9 9 8 !.9 u < /.y u < H.S.y 6 p Q.9 y 5 (.y i < h c k z x n x n ",
"n z x M M x z p./.9 s > ~.u u < A.E.9 9 8 !.4 i > /.9 u > H.s y 6 p Q.4 y 5 (.9 s < h m n x M x n n ",
"n n %.z <.*.z b./.2 s > ~.y y < G.S.9 9 8 Q.2 i > ~.9 i > H.s 9 6 p W.2 y 5 ^.2 s < h m m.z x f.x z ",
"n *.<.z n n x _./.1 s > ~.9 y < G.S.9 y 8 Q.< i > /.6 i < H.s 9 6 p W.2 u 5 ^.2 i < l m ..z x n x n ",
"n z z x x n z p./.1 s > ~.9 y 1 G.S.6 y 8 Q.< i > /.6 u < H.i 9 6 p W.1 u 5 (.< i < l v x x x x M n ",
"*.x n z x n 5.b./.1 s > ~.9 y 1 A.S.2 9 8 !.< i < /.2 u < H.s 9 6 p W.1 y 5 ^.1 u < g M w.z n n M <.",
"f.n 5.z x x x v./.2 u > ~.y y < G.S.6 9 8 !.2 y < ~.9 y > H.s 9 6 p W.2 y 5 ~.2 u < h z M z d.*.z *.",
"n z z x M n z ) /.9 u > Q.y y < G.E.9 9 8 !.2 y < ~.9 y > H.s 9 6 p W.4 y 5 /.6 u # Q x z n n n x M ",
"f.5.n z 5.w.z p./.9 u > ~.u y < G.E.9 9 8 !.9 y > /.y u > H.S.y 2 p Q.9 y 5 (.9 u O V z z x x n M M ",
"M x x x x z z p./.9 u > Q.s u < A.W.9 9 8 !.9 u > ~.y u < H.S.y 6 p Q.9 y 5 (.9 u < h z x M n n 5.*.",
"u.5.*.x n x z p./.y y > Q.s y < A.W.y 9 8 !.y y < ~.u y > H.E.y 6 p Q.y 9 5 (.y u < h z x ..z z z n ",
"u.w.*.z ..n z v./.y y > Q.s y > G.E.y 2 8 !.y y < ~.u y > H.E.y < p Q.y 9 5 ~.y y > h z z z x x x n ",
"n z n x z z k ; ^.y 9 > Q.s y > G.W.9 2 8 !.y 9 > ~.u y > H.E.9 , p Q.9 6 5 ^.y y : @ n z n x x z n ",
"M z x M ..z l = ^.y 9 > Q.s 9 > A.W.9 < 8 !.y 9 > ~.i 9 > H.E.9 > p Q.9 6 5 /.u 9 :   k x w.<.n n n ",
"n z x M n z k = ^.y 9 > Q.s 9 > A.W.9 < 8 !.y 9 < ~.i 9 > H.E.9 , p Q.9 2 5 /.y 9 : X n z n M M 5.n ",
"n n <.z z z / 7 ^.y 9 > Q.s 9 > A.W.9 2 8 !.9 9 > ~.u 9 > H.R.9 < p Q.9 9 5 (.y y : o f.z z z n M n ",
"M x x x x z n S ^.y y > Q.s y < G.W.9 9 8 !.9 y < ~.y y > H.S.y 2 p Q.9 9 5 (.y y > % *.x n z M w.z ",
"M x x x z x z p./.y i > Q.s i < G.W.y 9 8 !.y u < ~.u i > H.S.u 2 p Q.y y 5 !.y i > l c z z z z z z ",
"n z M n n n z v./.y i > Q.s i < G.W.y 9 8 !.y u < ~.i i > H.R.u 2 p Q.y y 5 ^.y u > h M p.x n n z n ",
").M f...<.n z `./.y y > Q.s y > G.W.y 2 8 !.y 9 < ~.i y > H.E.y < p Q.y 9 5 ^.y y # h M d.M ....z n ",
"i.x M M x n z b.(.u i > Q.f s , s E.y 3 8 !.u u > ^.s s > H.R.i 1 p Q.u 9 < ^.i i > h z x x x z x k ",
"M z 5.5.x n z p.T.q B.& I.B.Z.= F.L.V.0 w T.t V.& T.V.Z.$ F.D.V.0 r P.t t = T.q A.* h z x x x x x n ",
"n x z z x n M M n k k p.n k k n <.<.^ k p.n k k k k k n n n n n n n n n n k ^ n k z ..k.<...n z M x.",
"n z z x n ..k.w.x x z z x z z x n z x x x z x z x n M M m M M M M 5.M %.z z h.w.x M n *.x n n n x M ",
"n ..h.5.x n x x n x z ..k.k...x x *.M x x z <...^ 5.*.n x f.5.w.M f.n ..x x n n <.*.n n 5.n z M x n ",
"n ..<.5.x x z z x x z ..5.M n x x f.M n n n x x z x z x M M x n x z x x n n z x z z z z x x x n x n ",
"n x z z n n x z z x x z z x x x x z x x n z z x M M n z n n x x x z ..m...z x x ..n x x z n m n x M ",
"n x M n n M x x x x z *.n z x x n z M <.n x z x x x x z n k x x x z x z z z z z <...z f...z k.M x n ",
"M x ..k.x x z n d.x n M x n M M M x M 5.x z <.5.z z M <.z x k x <.z x z n <.z z z k z *.x x %.n z n ",
"M z x M z 5.M n M z x n z 5.d.f.n ..*.z x n M *.x n n x z n n z x n x ..z *.x x z n w.%.5.z *.*.z n ",
"M x n n n %.M n n n M n M M n M n n n z n x.n M M n n n n n n n *.5.n *.z n n M n n n n *.n *.n x n "
};
