/* XPM */
static const char *cross[] = {
/* columns rows colors chars-per-pixel */
"50 50 242 2 ",
"   c #1D0C07",
".  c #1F0E08",
"X  c #2E0805",
"o  c #27150D",
"O  c #2D150B",
"+  c #36190E",
"@  c #3D1E12",
"#  c #361B18",
"$  c #30230D",
"%  c #3E2012",
"&  c #372818",
"*  c #3A3512",
"=  c #241E2B",
"-  c #352B2F",
";  c #4A0A06",
":  c #4C0F0A",
">  c #4D120E",
",  c #560B14",
"<  c #461519",
"1  c #6E131A",
"2  c #432214",
"3  c #492615",
"4  c #4B2917",
"5  c #47271A",
"6  c #4F2A18",
"7  c #473C16",
"8  c #53311B",
"9  c #72321D",
"0  c #4F1821",
"q  c #7B1F24",
"w  c #4B2B2D",
"e  c #572724",
"r  c #4A3428",
"t  c #573827",
"y  c #553736",
"u  c #712C2D",
"i  c #63322A",
"p  c #663937",
"a  c #793B3A",
"s  c #3C4313",
"d  c #494819",
"f  c #4F561A",
"g  c #53651E",
"h  c #53512E",
"j  c #5B4637",
"k  c #63472E",
"l  c #694A39",
"z  c #74433A",
"x  c #6A5237",
"c  c #74593A",
"v  c #5B7823",
"b  c #66742D",
"n  c #1C3446",
"m  c #343644",
"M  c #493845",
"N  c #563A45",
"B  c #6D3C44",
"V  c #324552",
"C  c #3A6875",
"Z  c #554A50",
"A  c #5C5457",
"S  c #684847",
"D  c #764748",
"F  c #69554A",
"G  c #765647",
"H  c #694D52",
"J  c #675256",
"K  c #75585A",
"L  c #726C52",
"P  c #455A6A",
"I  c #675A67",
"U  c #765D65",
"Y  c #536970",
"T  c #796469",
"R  c #716D6E",
"E  c #766A74",
"W  c #86151B",
"Q  c #991B1D",
"!  c #A91A1D",
"~  c #9F1E22",
"^  c #8A3639",
"/  c #923530",
"(  c #BB2526",
")  c #B1312B",
"_  c #C82729",
"`  c #C5372D",
"'  c #D3302E",
"]  c #D83735",
"[  c #E53B3A",
"{  c #8E4D37",
"}  c #A44838",
"|  c #B94538",
" . c #96663A",
".. c #CD403C",
"X. c #DC453B",
"o. c #E9423C",
"O. c #853F41",
"+. c #844748",
"@. c #8F554F",
"#. c #885956",
"$. c #B45E5D",
"%. c #82694C",
"&. c #93734C",
"*. c #866855",
"=. c #93645D",
"-. c #867857",
";. c #B27256",
":. c #866867",
">. c #966A64",
",. c #8B7867",
"<. c #877679",
"1. c #907071",
"2. c #987975",
"3. c #B76C64",
"4. c #A67666",
"5. c #BA7769",
"6. c #A57C76",
"7. c #B87C76",
"8. c #CB4F47",
"9. c #E74743",
"0. c #F3564F",
"q. c #CD6650",
"w. c #F66559",
"e. c #C67B6F",
"r. c #5D8024",
"t. c #648D27",
"y. c #658929",
"u. c #669227",
"i. c #689527",
"p. c #679328",
"a. c #6A952A",
"s. c #6D992C",
"d. c #71972D",
"f. c #729A2E",
"g. c #708632",
"h. c #6C9630",
"j. c #6E9831",
"k. c #749B32",
"l. c #779A39",
"z. c #778E48",
"x. c #849B47",
"c. c #918D5A",
"v. c #86A44A",
"b. c #8BA655",
"n. c #94AB57",
"m. c #928A6C",
"M. c #9E9673",
"N. c #B4866D",
"B. c #A59569",
"V. c #A98777",
"C. c #B3897B",
"Z. c #A59A78",
"A. c #B89479",
"S. c #94AD61",
"D. c #9CAA61",
"F. c #A8B46F",
"G. c #AAA17C",
"H. c #B6A97E",
"J. c #B2B678",
"K. c #D5885B",
"L. c #D0906B",
"P. c #D99369",
"I. c #C78876",
"U. c #C79478",
"Y. c #DAA276",
"T. c #E2A779",
"R. c #4D7A85",
"E. c #7C7480",
"W. c #887B83",
"Q. c #718D90",
"!. c #66A3AA",
"~. c #978789",
"^. c #908B8D",
"/. c #968C93",
"(. c #9B9397",
"). c #B68985",
"_. c #AE9189",
"`. c #A79796",
"'. c #B69D94",
"]. c #ACA581",
"[. c #AEA488",
"{. c #B4AB84",
"}. c #B9AE86",
"|. c #B9B389",
" X c #BAA59A",
".X c #B2B092",
"XX c #889AA1",
"oX c #A49BA2",
"OX c #91ABAA",
"+X c #A9ACAE",
"@X c #B9ABA9",
"#X c #BEB1AD",
"$X c #B7B5B8",
"%X c #C49A87",
"&X c #D09888",
"*X c #C5A68A",
"=X c #D5A688",
"-X c #C2BB8B",
";X c #D2B08F",
":X c #C9AA98",
">X c #D8AB95",
",X c #C4BD94",
"<X c #CCB59A",
"1X c #DAB397",
"2X c #E1AB87",
"3X c #E9B689",
"4X c #E6BB9A",
"5X c #C3ABA3",
"6X c #C5B5A9",
"7X c #D4BBAD",
"8X c #CBBBB3",
"9X c #E4BCA7",
"0X c #B9C387",
"qX c #BCC39F",
"wX c #CAC599",
"eX c #CAC899",
"rX c #D0CC9D",
"tX c #ECC095",
"yX c #D5C9A6",
"uX c #D6D4AA",
"iX c #CFC8B9",
"pX c #D7C6B9",
"aX c #E8C6A8",
"sX c #F1CBA9",
"dX c #F5D1AD",
"fX c #E7CCB7",
"gX c #E8D2BB",
"hX c #F3D6BB",
"jX c #C3BEC2",
"kX c #D6CDCA",
"lX c #D4CECD",
"zX c #D1CED2",
"xX c #E1CFC1",
"cX c #E7D8C8",
"vX c #F3DCC6",
"bX c #E6DCD3",
"nX c #EDE0CE",
"mX c #F7E3CD",
"MX c #EEE5D8",
"NX c #F6E8D7",
"BX c #FBEEDC",
"VX c #FDF3E4",
/* pixels */
"j.s.s.s.s.s.s.s.s.f.f.s.x.,XJ.z.s.s.s.s.s.s.s.s.s.s.s.s.s.s.s.f.f.s.s.s.s.s.s.k.s.i.i.s.s.s.s.s.s.s.",
"s.i.s.s.s.i.i.i.i.f.s.p.n.=X9XyXD.h.i.s.i.i.s.f.i.u.p.i.f.s.i.s.i.i.i.i.i.a.s.f.i.i.i.f.i.i.s.f.i.s.",
"j.i.s.f.s.u.p.i.i.i.u.i.B.3.5.>XaXH.x.s.i.i.i.i.i.u.u.u.i.i.i.u.i.i.k.v.F.H.B.t.i.s.i.s.u.p.p.u.u.p.",
"s.i.u.u.u.u.s.f.u.i.i.p.B.3.$.I.>X4X=Xc.j.z.n.F.F.J.J.D.x.s.u.i.h.b.|.:X).4.>.g.p.f.i.p.u.i.i.u.s.s.",
"s.i.i.u.u.u.p.i.u.s.s.a.B.3.$.5.>X>X4XU.A.fXvX4XT.3X2X=XyXwXn.D.|.<X).@.+.+.=.g.u.u.u.s.p.s.s.u.i.s.",
"h.k.f.i.u.i.p.i.u.p.u.j.A.3.$.5.=X>X1X1X>XvXhXP.P.T.K.=XcXfXaXaX%X>.+.a +.+.>.L p.i.u.i.i.u.u.u.u.u.",
"h.f.i.p.u.i.s.i.i.i.i.l.A.e.3.I.=X1X9XfXhXmXsXK.P.L.L.fXcXfX7X).>.#.+.a O.@.4.L u.i.u.i.s.s.i.i.i.u.",
"a.i.i.i.i.f.f.s.s.p.u.l.U.e.e.I.>X9XhXmXmXhXsXK.P.L.4X9XgXfX:X6.>.#.+.a +.@.6.-.p.i.u.i.s.f.s.s.s.i.",
"a.i.s.s.i.s.i.i.u.u.u.l.%Xe.e.&X9XhXmXBXhX4XsXK.L.=X1X&XfXxX6X_.2.#.D a +.@.6.-.u.i.i.i.i.s.p.u.u.i.",
"h.s.s.s.i.i.i.i.f.s.i.l.*XI.I.>XvXmXBXBXsXY.sXP.L.4XU.I.gXkX7X'.2.#.D a +.=.C.c.i.i.f.s.i.d.p.p.i.i.",
"j.s.i.u.p.p.i.p.i.i.u.v *X=X&XfXmXBXBXNXhXL.4XL.Y.1X;.;XcXpX8X'.2.:.D a +.=.C.G v i.s.i.i.i.i.i.i.i.",
"j.s.s.i.p.i.i.s.i.r.s o _.aXfXmXBXBXNXnXvXU.1XY.=XU.N.fXpXpX8X@X~.:.H B D >.V.e > f t.s.s.i.i.s.i.s.",
"k.f.f.s.i.f.k.d.g O & ,.yXhXmXBXVXVXMXcXnX1X;X=X;XN.:XxXpXpXpX@X~.<.U H D 6.*.: ; ; 8 v f.s.s.f.i.d.",
"h.i.u.i.i.i.v * # L .XyXvXmXBXVXNXpX6XpXcXfX;X1X*XC.pX8X8XpXpX#X/.<.T U :.2.p ; ; ; ; > f y.i.i.i.i.",
"h.i.u.i.u.f $ j [.,Xc.<XhXhXvXgX<.Z - J 8XgX1X;XA.'.8X X`.'.6X#X`.<.E T T K D : ; ; ; ; ; 3 g u.i.i.",
"h.i.u.v * r m.,Xm.t t ;X3XT.Y.A.A Q.E = E cX1X:XC.5X'.A m = - E /.W.<.T U K :.i ; ; ; ; ; ; : 7 v i.",
"a.t.f & L |.Z.k % @ 6 N.T.2XsXyXXXY M m Y xXaX<X'.6XR n Z = n m J :.T T U K :.y X X X X X X X X d t.",
"s.y.L {.{.x 2 @ 2 3 3 %.4XdXhXgXOXR.m Y Q.cXvXfX6X@XV V = - C P U D z S S D #.5 O O O O O O O $ v u.",
"j.s.J.uXG + 2 3 3 3 3 x aX3XT.sXiXOXQ.OX(.MXVXNXpX`.V R.V C !.^. X4.z i t D G + O O O O O O O $ y.u.",
"j.i.F.uXG 2 4 4 4 3 c {.yXT.Y.tXdXgXnXNXBXvXhX9X:X6X6X$XOX+X6X<XA.2.K p p =.j @ @ + O O O O O * y.u.",
"a.u.S.uX%.2 3 3 3 x wXyX,X4X=XY.L.=XmXVXVXfXI.3.).MXBXnXgXfX=X;.@.G H S #.#.2 @ @ @ @ + O O O * y.i.",
"h.i.n.uX-.3 3 3 8 G.uX|.G.<X=XN.N.7XMXMXMXbXC._.bXbXcXpX XV.4.@.z t p D >.t 2 2 2 2 2 2 % + O * t.u.",
"a.s.n.uXc.3 4 3 c yX,X].m.F *XA.V. XpXiX#X_.2.6. X#X#XoXV.:.#.G p p D 2.l 2 2 2 2 2 2 % % @ O * t.u.",
"a.i.v.uXm.3 3 3 m.uX{.].F . y ,.C.C.V.2.1.~.5X_.:.T <.:.T J S S D #.>.l % @ @ % 2 2 2 2 % 2 @ * t.i.",
"j.i.l.uXB.4 3 8 }.wX].G.j     o 5 l *.>.m. X6X`.<.K J J J S S #.=.G r 2 2 2 2 2 2 2 2 2 2 2 2 7 u.s.",
"k.s.l.rXZ.4 3 t ,X|.].Z.r   . .     o r F 2.~.<.T S N y y H G l r @ @ @ @ @ @ @ @ @ @ @ @ % @ 7 t.s.",
"h.i.s.eXG.4 2 k wX|.].Z.&   . . o o   O 8 S K S y 8 2 # w y 2 % @ 2 2 2 2 2 2 2 2 2 2 2 2 2 2 7 t.i.",
"k.f.s.0X{.8 3 x rX{.].M.&   . . o   O 9 ;. .u &. .9 > , B B 0 3 2 2 2 2 2 2 2 2 2 2 2 2 2 2 2 7 p.i.",
"k.s.i.0X}.8 3 c rX{.].M.& . . . . o u ` q.| ) q.} Q Q Q O.2.@.1 e 2 2 2 2 2 2 2 2 2 2 2 2 % @ 7 a.f.",
"k.f.s.J.|.8 2 x wX{.].M.& . . .   3 | 9.0.w.w.9.] ] ( ) ) 3.).O.u 6 @ @ @ % @ @ @ @ % @ < < @ 7 t.i.",
"k.f.f.F.,Xt 3 l wX{.].M.&   .   o / ..0.w.0.0.o.] _ ! W ` 8.&X7./ a 5 2 2 2 2 2 2 2 2 2 2 2 2 d t.p.",
"a.i.u.D.,Xt 3 k wX{.].M.&   .   i ) ] 9.9.o.o.] _ ! W 1 ) X.e.7.^ q p 2 2 2 2 2 2 2 2 2 2 2 < d u.u.",
"j.i.u.n.wXt 2 t ,X|.].Z.&     O } ) 8.9.9.[ [ ' ( ! W , q ` | } a i e % @ @ @ @ @ @ @ @ @ @ @ d p.i.",
"h.i.u.b.wXk 2 t -X|.].Z.&     j 5.8.X.9.9.9.[ ' _ Q W 1 , / { *.T H r 2 2 2 2 2 2 2 2 2 2 2 2 d f.s.",
"h.s.s.v.wXk 3 8 }.-X].G.r   o [.:Xq.] [ [ [ [ ' ( ~ W 1 , < :.pX6X<.r @ @ @ @ @ @ @ @ @ @ @ @ d i.p.",
"j.i.p.l.eXx 2 4 G.,X].G.j   F gX%Xq.X.o.] ] ] ' ( Q W 1 , : 6.NXpX~.r 2 2 2 k r 2 2 2 2 2 2 2 d f.p.",
"j.i.u.l.eXc 3 4 B.wX].].x & #XgX7.) ] o.] ' _ _ _ ! W 1 , i 7XbX8Xm.t 2 2 j 5XG 2 2 2 2 2 2 @ d p.u.",
"h.i.i.k.eXG 3 3 c.eX].].-.~.MXpXC.} ) ` ] ' ' _ _ ! q , e 5XNXcX8X~.t @ @ *.:XS @ @ @ @ @ + + d u.u.",
"l.s.f.k.0X%.3 3 %.rX].].Z.#XpX@X'.`.2.@.O.^ ^ u u p N M T bXMXcXpX`.y + 5 4.4.k @ @ @ @ + + + d u.u.",
"k.s.i.s.0X%.2 2 G yX{.].Z.-.V.T :.kXzXjX+X(.^.^.^./.^.^.W.8XpX6X#X<.r + l ;.{ r + @ @ @ % * 7 g u.u.",
"j.i.s.f.J.-.4 4 x rX|.G.B.c.c.-.,.kXbXlX$X+X$XjXzXzXzXjXoXW.<.<.<.J 5 6 ;.{ z d d f g v v y.t.u.u.u.",
"s.i.u.u.F.-XH.H.}.rXeXwX-X-X-X|.|.kXzX+XE.I E (.$XzXzXzX$XE M N G g g %.@.z c u.u.p.i.f.f.s.i.u.i.k.",
"a.p.u.u.l.v.n.n.v.v.v.v.v.v.v.v.x.A.8X`.I M - N /.jXlX8X).a < 0 { &.&.{ u x g.f.i.i.i.f.s.i.i.u.i.s.",
"h.s.f.s.u.i.i.i.u.u.u.p.d.d.i.u.t. .} ^ i 0 < < a $.q.| ) q w N e i a p x g.i.s.s.f.p.i.s.s.u.i.i.p.",
"a.s.k.f.p.p.u.u.u.u.u.s.f.s.s.u.u.d.g.c D y y j v { { { +.Z M I j t k b y.i.u.u.i.u.u.u.i.i.u.i.i.p.",
"a.i.i.i.i.i.u.u.u.u.u.u.p.p.u.u.u.u.p.m.^.I A L i.i.t.z./.<.A I z.t.p.k.d.u.u.u.i.p.u.u.u.p.i.i.i.i.",
"h.i.i.i.i.i.p.p.u.u.u.i.i.u.u.u.a.S.qX8XoXE I L p.i.u.b.8X#X^.E L u.u.i.u.u.u.u.s.f.u.s.s.u.f.s.i.p.",
"h.s.s.k.i.i.u.i.f.p.u.s.i.p.i.u.b.bXbXkX(.E I L u.u.z.iXkXlX@XE R y.u.u.u.s.u.u.u.u.u.s.s.u.f.s.u.p.",
"j.i.p.s.p.s.i.i.s.u.u.i.u.s.k.f.b.8X@X(.I A Z L p.u.].bXiXlXoXI L u.i.i.p.f.p.u.u.u.f.s.f.u.i.s.u.u.",
"j.i.u.p.i.f.s.i.i.p.i.i.i.i.s.s.h.z.R I Z h h y.i.u.c.`.(.(.E A b f.i.f.u.p.i.i.u.u.s.i.s.u.i.s.u.u."
};
