/* XPM */
static const char *cursor[] = {
/* columns rows colors chars-per-pixel */
"48 48 79 1 ",
"  c #199BE2",
". c #199CE2",
"X c #189DE2",
"o c #199DE2",
"O c #199DE3",
"+ c #1A9CE3",
"@ c #199EE2",
"# c #199EE3",
"$ c #1B9FE2",
"% c #1B9EE3",
"& c #17A1E4",
"* c #17A3E4",
"= c #15A5E5",
"- c #16A4E5",
"; c #16A7E7",
": c #18A0E3",
"> c #19A1E5",
", c #1AA1E4",
"< c #1AA1E5",
"1 c #1BA1E5",
"2 c #18A3E4",
"3 c #19A2E5",
"4 c #1BA2E4",
"5 c #18A3E6",
"6 c #1CA2E4",
"7 c #1DA2E4",
"8 c #1EA2E4",
"9 c #1BA6E5",
"0 c #18A7E6",
"q c #1CA5E5",
"w c #17A9E7",
"e c #19A8E7",
"r c #1AA8E6",
"t c #17AAE8",
"y c #13AFE9",
"u c #15ACE9",
"i c #17AEE9",
"p c #19AFE9",
"a c #1EACE8",
"s c #1CAEE8",
"d c #11B2EA",
"f c #17B0EA",
"g c #18B0E8",
"h c #18B1EB",
"j c #1CB5EC",
"k c #1EB4EC",
"l c #20A5E5",
"z c #22A8E6",
"x c #22AAE7",
"c c #23B1EA",
"v c #21B3EA",
"b c #26B0E9",
"n c #27B7ED",
"m c #29B5EB",
"M c #24B8EC",
"N c #25B8ED",
"B c #24BBEE",
"V c #2FBAED",
"C c #2BBDEF",
"Z c #2BBEEE",
"A c #2DBCEE",
"S c #2CBDEF",
"D c #31BDED",
"F c #32BEEF",
"G c #33BFF0",
"H c #33BFF1",
"J c #31C0F0",
"K c #31C0F1",
"L c #32C0F0",
"P c #33C0F0",
"I c #32C1F1",
"U c #33C2F0",
"Y c #34C0F0",
"T c #35C0F0",
"R c #34C1F0",
"E c #34C0F1",
"W c #34C1F1",
"Q c #35C1F1",
"! c None",
/* pixels */
"!!!!!!!!!!!!!!!!!!!!!!!!!!!!!!!!!!!!!!!!!!!!!!!!",
"!!!!!!!!!!!!!!!!!!!!!!!!!!!!!!!!!!!!!!!!!!!!!!!!",
"!!!!!!!!!!!!!!!!!!!!!!!!!!!!!!!!!!!!!!!!!!!!!!!!",
"!!!!!!!!!!!!!!!!!!!!!!!!!!!!!!!!!!!!!!!!!!!!!!!!",
"!!!!!!!!!!!!!!!!!!!!!!!!!!!!!!!!!!!!!!!!!!!!!!!!",
"!!!!!!!!!!!!!!!!!!!!!!!!!!!!!!!!!!!!!!!!!!!!!!!!",
"!!!!!!!!!!!!!!Dl!!!!!!!!!!!!!!!!!!!!!!!!!!!!!!!!",
"!!!!!!!!!!!!!!Qz7!!!!!!!!!!!!!!!!!!!!!!!!!!!!!!!",
"!!!!!!!!!!!!!!QV 7!!!!!!!!!!!!!!!!!!!!!!!!!!!!!!",
"!!!!!!!!!!!!!!QU7 7!!!!!!!!!!!!!!!!!!!!!!!!!!!!!",
"!!!!!!!!!!!!!!QQm  7!!!!!!!!!!!!!!!!!!!!!!!!!!!!",
"!!!!!!!!!!!!!!QQU%  7!!!!!!!!!!!!!!!!!!!!!!!!!!!",
"!!!!!!!!!!!!!!QQQb   7!!!!!!!!!!!!!!!!!!!!!!!!!!",
"!!!!!!!!!!!!!!QQQG%   7!!!!!!!!!!!!!!!!!!!!!!!!!",
"!!!!!!!!!!!!!!QQQQz    7!!!!!!!!!!!!!!!!!!!!!!!!",
"!!!!!!!!!!!!!!QQQQA     7!!!!!!!!!!!!!!!!!!!!!!!",
"!!!!!!!!!!!!!!QQQQQq     4!!!!!!!!!!!!!!!!!!!!!!",
"!!!!!!!!!!!!!!QQQQQn      4!!!!!!!!!!!!!!!!!!!!!",
"!!!!!!!!!!!!!!QQQQQG%      4!!!!!!!!!!!!!!!!!!!!",
"!!!!!!!!!!!!!!QQQQQQc       4!!!!!!!!!!!!!!!!!!!",
"!!!!!!!!!!!!!!QQQQQQD%       4!!!!!!!!!!!!!!!!!!",
"!!!!!!!!!!!!!!QQQQQQQa        4!!!!!!!!!!!!!!!!!",
"!!!!!!!!!!!!!!QQQQQQQZ         4!!!!!!!!!!!!!!!!",
"!!!!!!!!!!!!!!QQQQQQQQ9         4!!!!!!!!!!!!!!!",
"!!!!!!!!!!!!!!QQQQQQQQM          4!!!!!!!!!!!!!!",
"!!!!!!!!!!!!!!QQQQQQQQU4          4!!!!!!!!!!!!!",
"!!!!!!!!!!!!!!QQQQQQQQQc           4!!!!!!!!!!!!",
"!!!!!!!!!!!!!!QQQQQQQQQU%           4!!!!!!!!!!!",
"!!!!!!!!!!!!!!QQQQQQQQQQa            h!!!!!!!!!!",
"!!!!!!!!!!!!!!QQQQQQQQQQZ       %49tu!!!!!!!!!!!",
"!!!!!!!!!!!!!!QQQQQQQQQQQe  e!!!!!!!!!!!!!!!!!!!",
"!!!!!!!!!!!!!!QQQQQQQQQQQM  %!!!!!!!!!!!!!!!!!!!",
"!!!!!!!!!!!!!!QQQQQQQQQQQQ4  h!!!!!!!!!!!!!!!!!!",
"!!!!!!!!!!!!!!QQQQQQQQ!QQQj  *!!!!!!!!!!!!!!!!!!",
"!!!!!!!!!!!!!!QQQQQQQ!!!QQU%  !!!!!!!!!!!!!!!!!!",
"!!!!!!!!!!!!!!QQQQQ!!!!!QQQp  =!!!!!!!!!!!!!!!!!",
"!!!!!!!!!!!!!!QQQQ!!!!!!!QQA   !!!!!!!!!!!!!!!!!",
"!!!!!!!!!!!!!!QQQ!!!!!!!!QQQw  u!!!!!!!!!!!!!!!!",
"!!!!!!!!!!!!!!QQ!!!!!!!!!QQQM  %!!!!!!!!!!!!!!!!",
"!!!!!!!!!!!!!!!!!!!!!!!!!!QQQ=  y!!!!!!!!!!!!!!!",
"!!!!!!!!!!!!!!!!!!!!!!!!!!QQQj  *!!!!!!!!!!!!!!!",
"!!!!!!!!!!!!!!!!!!!!!!!!!!!QQU:  !!!!!!!!!!!!!!!",
"!!!!!!!!!!!!!!!!!!!!!!!!!!!QQQf=d!!!!!!!!!!!!!!!",
"!!!!!!!!!!!!!!!!!!!!!!!!!!!!QQ!!!!!!!!!!!!!!!!!!",
"!!!!!!!!!!!!!!!!!!!!!!!!!!!!!!!!!!!!!!!!!!!!!!!!",
"!!!!!!!!!!!!!!!!!!!!!!!!!!!!!!!!!!!!!!!!!!!!!!!!",
"!!!!!!!!!!!!!!!!!!!!!!!!!!!!!!!!!!!!!!!!!!!!!!!!",
"!!!!!!!!!!!!!!!!!!!!!!!!!!!!!!!!!!!!!!!!!!!!!!!!"
};
