/* XPM */
static const char *wall[] = {
/* columns rows colors chars-per-pixel */
"50 50 129 2 ",
"   c #A54B1E",
".  c #BA5A1D",
"X  c #994B24",
"o  c #924D2C",
"O  c #A85825",
"+  c #AC5C35",
"@  c #B46026",
"#  c #B86327",
"$  c #B56429",
"%  c #BD672C",
"&  c #BC6B2B",
"*  c #BD7130",
"=  c #C35B1B",
"-  c #C7631F",
";  c #CA641F",
":  c #CA6721",
">  c #CD6C23",
",  c #C36C2A",
"<  c #D26D22",
"1  c #C5742D",
"2  c #D67224",
"3  c #D87625",
"4  c #DA7926",
"5  c #D1772B",
"6  c #DB7D29",
"7  c #C46B31",
"8  c #C47A33",
"9  c #C97D32",
"0  c #C5743C",
"q  c #CB783F",
"w  c #D17B35",
"e  c #AD6744",
"r  c #947A6D",
"t  c #CC7940",
"y  c #D6802F",
"u  c #DE822C",
"i  c #CC8236",
"p  c #CB8639",
"a  c #CC8839",
"s  c #DC8234",
"d  c #DB8832",
"f  c #E0872E",
"g  c #E08730",
"h  c #E28D33",
"j  c #E28E38",
"k  c #E39135",
"l  c #E3973E",
"z  c #E4983F",
"x  c #9B867C",
"c  c #C6804C",
"v  c #C98149",
"b  c #D08142",
"n  c #DE8940",
"m  c #D6954A",
"M  c #CE8A50",
"N  c #C68859",
"B  c #D08953",
"V  c #D49254",
"C  c #DC9B54",
"Z  c #E39440",
"A  c #E69A42",
"S  c #E89B42",
"D  c #E0934F",
"F  c #E19C4E",
"G  c #E8A151",
"H  c #D09262",
"J  c #D79768",
"K  c #D19E76",
"L  c #E49E62",
"P  c #E7AB76",
"I  c #E0AB7E",
"U  c #B09688",
"Y  c #B09A8F",
"T  c #AE9E96",
"R  c #B09C92",
"E  c #DEAD82",
"W  c #D3AA8B",
"Q  c #DDB18B",
"!  c #D6B69E",
"~  c #DEB998",
"^  c #E2AE80",
"/  c #E6B489",
"(  c #EBBA8D",
")  c #E9BC94",
"_  c #D7B8A1",
"`  c #C3BAB3",
"'  c #C4BEBB",
"]  c #DBC5B5",
"[  c #D1C3BD",
"{  c #EDC7A5",
"}  c #E1C2A8",
"|  c #E0CCB3",
" . c #E3CDB9",
".. c #F1D3B6",
"X. c #F1D5B8",
"o. c #D2CBC2",
"O. c #D6CECA",
"+. c #DFD8D5",
"@. c #DDDBDB",
"#. c #E1D1C6",
"$. c #E9D9C3",
"%. c #E7D8CA",
"&. c #F4DEC9",
"*. c #E7DCD4",
"=. c #F5E0C7",
"-. c #ECE3DC",
";. c #F4E6D7",
":. c #FAEDD7",
">. c #F7E7DA",
",. c #F3E9DF",
"<. c #FAEDD8",
"1. c #E7E8E8",
"2. c #F0EBE6",
"3. c #F4E9E4",
"4. c #F5E9E4",
"5. c #FAEFE6",
"6. c #F5ECE8",
"7. c #FCF3E4",
"8. c #F8F0ED",
"9. c #F0F1F1",
"0. c #F4F2F0",
"q. c #FCF6F1",
"w. c #F8F7F7",
"e. c #FAF9F7",
"r. c #FAFBFB",
"t. c #FDFBFA",
"y. c #FDFCFB",
"u. c #FBFBFC",
"i. c #FFFFFF",
/* pixels */
"i.i.i.i.i.i.i.i.i.i.i.i.i.i.i.i.i.i.i.i.i.i.i.i.i.i.i.i.i.i.i.i.i.i.i.i.i.i.i.i.i.i.i.i.i.i.i.i.i.i.",
"i.i.i.i.i.i.i.i.i.i.i.i.i.i.i.i.i.i.i.i.i.i.i.i.i.i.i.i.i.i.i.i.i.i.i.i.i.i.i.i.i.i.i.i.i.i.i.i.i.i.",
"i.i.i.i.i.i.i.i.i.i.i.i.i.i.i.i.i.i.i.i.i.i.i.i.i.i.i.i.i.i.i.i.i.i.i.i.i.i.i.i.i.i.i.i.i.i.i.i.i.i.",
"i.i.i.i.i.i.i.i.i.i.i.i.i.i.i.i.i.i.i.i.i.i.i.i.i.i.i.i.i.i.i.i.i.i.i.i.i.i.i.i.i.i.i.i.i.i.i.i.i.i.",
"i.i.i.i.i.i.i.i.i.i.i.i.i.i.i.i.i.i.i.i.i.i.i.i.i.i.i.i.i.i.i.i.i.i.i.i.i.i.i.i.i.i.i.i.i.i.i.i.i.i.",
"i.i.i.i.i.i.i.i.i.i.i.i.i.i.i.i.i.i.i.i.i.i.i.i.i.i.i.i.i.i.i.i.i.i.i.i.i.i.i.i.i.i.i.i.i.i.i.i.i.i.",
"i.i.i.i.i.i.i.i.i.i.i.i.i.i.i.i.i.i.i.i.i.i.i.i.i.i.i.i.i.i.i.i.i.i.i.i.i.i.i.i.i.i.i.i.i.i.i.i.i.i.",
"i.i.i.i.i.i.i.i.i.i.i.i.i.i.i.i.i.i.i.i.i.i.i.i.i.i.i.i.i.i.i.i.i.i.i.i.i.i.i.i.i.i.i.i.i.i.i.i.i.i.",
"i.i.i.i.i.i.i.i.i.i.i.i.i.i.y.i.i.i.t.i.i.i.y.i.i.i.i.y.i.i.i.t.i.i.i.y.i.i.i.i.i.i.i.i.i.i.i.i.i.i.",
"i.i.i.i.i.i.i.i.i.{ ~ w.i.&.E 2.i.5.^ %.i.t.) } u.i...Q 0.i.>.I -.i.q./  .i.i.{ ~ w.i.i.i.i.i.i.i.i.",
"i.i.i.i.i.i.i.i...s 5 _ ;.D 2 K 4.P 3 B *.{ 6 w ] &.n 2 W ,.L 2 H -.( 4 b #.X.s 5 ! r.i.i.i.i.i.i.i.",
"i.i.i.i.i.i.i.7.G 3 < 7 C 6 2 : V g 2 > v Z 3 < 0 F 4 2 , C u 2 > M j 3 < 0 A 3 < % [ i.i.i.i.i.i.i.",
"i.i.i.i.i.i.i.:.A 2 2 - h 4 2 ; 6 u 2 < > h 2 2 - k 3 2 - d 6 2 ; 5 h 2 < : k 2 2 . R i.i.i.i.i.i.i.",
"i.i.i.i.i.i.i.:.A 2 2 - h 4 2 ; y u < < > k < 2 - k 2 2 ; d 6 < > 5 h < 2 : k 2 2 . Y i.i.i.i.i.i.i.",
"i.i.i.i.i.i.8.J k 2 2 - h 4 2 ; y u < < > k < 2 - k 2 2 ; d 6 < > 5 h < 2 : k 2 2 = e +.i.i.i.i.i.i.",
"i.i.i.i.i.i.4.q k 2 2 - h 4 2 : y u 2 < > h 2 2 - k 3 2 ; d 6 2 > 5 h 2 2 : k 2 2 =   ` i.i.i.i.i.i.",
"i.i.i.i.i.i.4.t k 4 2 - h 6 2 : y f 3 < > k 3 2 : k 4 2 ; d u 2 > 5 h 3 2 : k 4 2 =   ` i.i.i.i.i.i.",
"i.i.i.i.i.i.4.t k 4 2 - h 6 2 : y f 2 < > k 3 2 - k 6 2 ; d u 2 > 5 h 3 2 : k 4 2 =   ` i.i.i.i.i.i.",
"i.i.i.i.i.i.6.c k 3 2 - h 6 2 : y f 2 < > k 2 2 - k 4 2 ; d u 2 > 5 h 2 2 : k 3 2 = X ` i.i.i.i.i.i.",
"i.i.i.i.i.i.i.| l 2 2 - h 6 2 ; y f 2 2 > k 2 2 : k 4 2 ; d u 2 > 5 h 2 2 : k 2 3 . r 1.i.i.i.i.i.i.",
"i.i.i.i.i.i.i.<.A < 2 - h 4 2 ; y u < 2 > h < 2 - k 2 2 ; d 6 2 < 5 h < 2 : k 2 3 . R i.i.i.i.i.i.i.",
"i.i.i.i.i.i.i.:.A < 3 - h 2 2 ; y u < 2 > h < 2 - k 2 2 ; d 4 2 < 5 h < 2 : k < 3 . R i.i.i.i.i.i.i.",
"i.i.i.i.i.i.i.:.A < 3 - h 2 2 > y u < 2 > h > 3 - k < 2 ; d 4 < < 5 u > 2 : k < 3 . R i.i.i.i.i.i.i.",
"i.i.i.i.i.i.i.:.A > 3 - h 2 2 > y 6 < 2 > h : 2 - k < 2 ; d 4 < < 5 u : 2 : k > 3 . R i.i.i.i.i.i.i.",
"i.i.i.i.i.i.i.<.A < 2 - h 2 < > y u < 2 > h > 2 - k < 2 ; d 4 < < 5 f : 2 : k > 2 . R i.i.i.i.i.i.i.",
"i.i.i.i.i.i.i.<.A < 2 - h 2 < : y u < < > h < 2 - k < 2 ; d 4 < < 5 h < 2 : k < 2 . R i.i.i.i.i.i.i.",
"i.i.i.i.i.i.i.:.A < 2 - h 2 < : y u < < > h < 2 - k 2 2 ; d 6 < > 5 h < 2 : k < 2 . R i.i.i.i.i.i.i.",
"i.i.i.i.i.i.i.:.A 2 2 - h 4 2 : y u < < > h 2 2 - k 2 2 ; d 6 2 > 5 h < 2 : k 2 2 . R i.i.i.i.i.i.i.",
"i.i.i.i.i.i.i.:.A 2 2 - h 4 2 ; y f 2 < > k 2 2 - k 3 2 ; d u 2 > 5 h 2 2 : k 2 2 . R i.i.i.i.i.i.i.",
"i.i.i.i.i.i.i.<.A 3 2 - h 6 2 ; y f 2 < > k 2 2 - k 4 2 ; d u 2 > 5 h 2 < : k 3 2 . R i.i.i.i.i.i.i.",
"i.i.i.i.i.i.i.=.A 3 < - h 6 2 ; y f 2 > > k 2 < - k 4 2 - d u 2 : 5 h 2 < : k 3 2 . U i.i.i.i.i.i.i.",
"i.i.i.i.i.i.6.B k 3 < - h 6 < ; y f 2 : > k 2 < - k 4 < - d u < ; 5 h 2 < : k 3 < = + O.i.i.i.i.i.i.",
"i.i.i.i.i.i.4.q k 3 < - h 6 < - y f 2 ; > k 2 < - k 4 < = d u < ; 5 h 2 > : k 3 < =   ` i.i.i.i.i.i.",
"i.i.i.i.i.i.4.t k 3 < - h 6 < ; y f 2 : > k 2 < - k 4 < - d u < ; 5 h 2 > : k 3 < =   ` i.i.i.i.i.i.",
"i.i.i.i.i.i.4.q k 2 < - h 6 < ; y f < > > k 2 < - k 4 < - d u < ; 5 h 2 < : k 3 < =   ` i.i.i.i.i.i.",
"i.i.i.i.i.i.6.N k 2 2 - h 4 2 ; y f 2 < > k 2 2 - k 4 2 ; d u 2 > 5 h 2 < : k 2 2 = o ' i.i.i.i.i.i.",
"i.i.i.i.i.i.i.$.z 3 2 - h 6 2 : y f 2 < > h 2 2 - k 4 2 ; d u 2 < 5 h 2 2 : k 3 3 . x 9.i.i.i.i.i.i.",
"i.i.i.i.i.i.i.<.A 4 2 - h 6 2 ; y f 3 < > h 3 2 - k 4 2 ; d u 3 > 5 h 3 2 : k 4 3 . R i.i.i.i.i.i.i.",
"i.i.i.i.i.i.i.<.A 3 2 - h 6 2 ; y f 2 < > h 3 < - k 4 2 - d u 2 : 5 h 2 < : k 3 2 . R i.i.i.i.i.i.i.",
"i.i.i.i.i.i.i.:.S 4 3 ; k 6 3 ; y f 4 < > k 4 2 ; k 6 3 ; d f 3 < 5 h 3 2 : k 6 3 . R i.i.i.i.i.i.i.",
"i.i.i.i.i.i.i.<.m 1 1 @ p 8 1 # 8 9 1 & & p 1 1 @ p 1 1 @ 9 9 1 % * i 1 , $ a 1 1 O T i.i.i.i.i.i.i.",
"i.i.i.i.i.i.i.e.o.` ` ` ` ` ` ` ` ` ` ` ` ` ` ` ` ` ` ` ` ` ` ` ` ` ` ` ` ` ` ` ` ` @.i.i.i.i.i.i.i.",
"i.i.i.i.i.i.i.i.i.i.i.i.i.i.i.i.i.i.i.i.i.i.i.i.i.i.i.i.i.i.i.i.i.i.i.i.i.i.i.i.i.i.i.i.i.i.i.i.i.i.",
"i.i.i.i.i.i.i.i.i.i.i.i.i.i.i.i.i.i.i.i.i.i.i.i.i.i.i.i.i.i.i.i.i.i.i.i.i.i.i.i.i.i.i.i.i.i.i.i.i.i.",
"i.i.i.i.i.i.i.i.i.i.i.i.i.i.i.i.i.i.i.i.i.i.i.i.i.i.i.i.i.i.i.i.i.i.i.i.i.i.i.i.i.i.i.i.i.i.i.i.i.i.",
"i.i.i.i.i.i.i.i.i.i.i.i.i.i.i.i.i.i.i.i.i.i.i.i.i.i.i.i.i.i.i.i.i.i.i.i.i.i.i.i.i.i.i.i.i.i.i.i.i.i.",
"i.i.i.i.i.i.i.i.i.i.i.i.i.i.i.i.i.i.i.i.i.i.i.i.i.i.i.i.i.i.i.i.i.i.i.i.i.i.i.i.i.i.i.i.i.i.i.i.i.i.",
"i.i.i.i.i.i.i.i.i.i.i.i.i.i.i.i.i.i.i.i.i.i.i.i.i.i.i.i.i.i.i.i.i.i.i.i.i.i.i.i.i.i.i.i.i.i.i.i.i.i.",
"i.i.i.i.i.i.i.i.i.i.i.i.i.i.i.i.i.i.i.i.i.i.i.i.i.i.i.i.i.i.i.i.i.i.i.i.i.i.i.i.i.i.i.i.i.i.i.i.i.i.",
"i.i.i.i.i.i.i.i.i.i.i.i.i.i.i.i.i.i.i.i.i.i.i.i.i.i.i.i.i.i.i.i.i.i.i.i.i.i.i.i.i.i.i.i.i.i.i.i.i.i."
};
