/* XPM */
static const char *wall[] = {
/* columns rows colors chars-per-pixel */
"50 50 171 2 ",
"   c #B64412",
".  c #B84112",
"X  c #B14B15",
"o  c #BA4F16",
"O  c #B44E1C",
"+  c #A75819",
"@  c #AC5E1E",
"#  c #B75217",
"$  c #B95116",
"%  c #B2541C",
"&  c #BB5519",
"*  c #B45C1D",
"=  c #BE5B1C",
"-  c #95711F",
";  c #A7641F",
":  c #A8611F",
">  c #BA601E",
",  c #976E20",
"<  c #967320",
"1  c #997422",
"2  c #947922",
"3  c #987823",
"4  c #9F7628",
"5  c #957928",
"6  c #9A7C2E",
"7  c #A66622",
"8  c #A56821",
"9  c #B56621",
"0  c #BD6420",
"q  c #B66F26",
"w  c #BB6B24",
"e  c #A27926",
"r  c #BB7C27",
"t  c #C45D1C",
"y  c #CC5F1D",
"u  c #D15E1D",
"i  c #C3621E",
"p  c #CB631E",
"a  c #CE681F",
"s  c #D0611E",
"d  c #D26A1F",
"f  c #C46421",
"g  c #CC6620",
"h  c #C76822",
"j  c #CE6921",
"k  c #D26D22",
"l  c #DA6E22",
"z  c #CC7326",
"x  c #C57728",
"c  c #CB7428",
"v  c #CD7F2B",
"b  c #D67224",
"n  c #D97625",
"m  c #D57A26",
"M  c #DB7A26",
"N  c #D97628",
"B  c #D47C29",
"V  c #DC7C28",
"C  c #E37526",
"Z  c #E17A29",
"A  c #7C9E2D",
"S  c #6FAC2D",
"D  c #74A62C",
"F  c #7DA32D",
"G  c #75AC2D",
"H  c #79AD2E",
"J  c #6FB02E",
"K  c #75B12F",
"L  c #79B02F",
"P  c #79A630",
"I  c #77AD33",
"U  c #7BAE32",
"Y  c #6FB732",
"T  c #76B333",
"R  c #7CB133",
"E  c #75BB36",
"W  c #7BB936",
"Q  c #7EB138",
"!  c #8A8D28",
"~  c #918B2C",
"^  c #8A912B",
"/  c #819B2A",
"(  c #979B30",
")  c #9C9E33",
"_  c #A4952F",
"`  c #B1902F",
"'  c #B58E31",
"]  c #A29733",
"[  c #AC9532",
"{  c #A29A33",
"}  c #B19232",
"|  c #B19F38",
" . c #81A52F",
".. c #81A82F",
"X. c #83A630",
"o. c #8DA331",
"O. c #83AB32",
"+. c #8BAC35",
"@. c #94A234",
"#. c #9BA134",
"$. c #90AF37",
"%. c #9BAF3A",
"&. c #83B334",
"*. c #83B234",
"=. c #80B136",
"-. c #80B237",
";. c #81B236",
":. c #84B335",
">. c #86B336",
",. c #87B235",
"<. c #85B434",
"1. c #86B436",
"2. c #86B637",
"3. c #82B334",
"4. c #89B336",
"5. c #8DB237",
"6. c #88B536",
"7. c #89B536",
"8. c #8DB137",
"9. c #80B836",
"0. c #81B339",
"q. c #84B339",
"w. c #84B539",
"e. c #88B63D",
"r. c #81BB39",
"t. c #8EB839",
"y. c #8BB83A",
"u. c #94B13A",
"i. c #99B83E",
"p. c #A0A937",
"a. c #A5A238",
"s. c #ADA638",
"d. c #A9A93B",
"f. c #DD8027",
"g. c #D6842F",
"h. c #D6812B",
"j. c #DE822A",
"k. c #D3882F",
"l. c #DA8830",
"z. c #DA9F3E",
"x. c #E3822B",
"c. c #E4852C",
"v. c #E3862D",
"b. c #E8842D",
"n. c #E8862D",
"m. c #E2892E",
"M. c #E18731",
"N. c #E38B30",
"B. c #E59639",
"V. c #E69D3D",
"C. c #E89E3E",
"Z. c #D9A33F",
"A. c #DCA43F",
"S. c #DCA13E",
"D. c #ECA23F",
"F. c #8CC03E",
"G. c #CEAF45",
"H. c #D1AF46",
"J. c #CFB247",
"K. c #CEB045",
"L. c #D2B046",
"P. c #D5B249",
"I. c #D8B34A",
"U. c #E7A442",
"Y. c #EBA440",
"T. c #EBA742",
"R. c #EDA441",
"E. c #E0A842",
"W. c #E5A840",
"Q. c #EAA944",
"!. c #F0A641",
/* pixels */
"Q U U U U R R R U &.R U R R &.U U R R U U U U U R R U U U U U &.&.U U U &.U U 0.I I I U U U R R R 0.",
"U G U U R H H H G >.U H H R 6.H H G H *.H H *.6.G G G H 6.H U R H H H H H G U &.H G R *.G H *.*.H R ",
"R G 6.y.R G U U H T G &.>.G H R T H H *.H T R R U H H I T R U G G :.2.t.H &.1.G R R U *.G T H H G U ",
"U H G ( } G 1.4.J { [ T H H W | [ T G H W [ ] T H G T [ { T H *.T } ) T U H U ' ) 9.H G H ' o.G >.U ",
"U G o.B C ] T T @.M C ] T T @.M N { T G a.Z N #.T S { C M @.K Q [ C m o.K G [ C B X.K &.` C v O.R &.",
"U i.g.Z b b ^ >.g.M b b ^ 5.h.M k b / $.V M k b A %.V M k c A p.Z M k c P d.Z m l x D s.Z m l r D U ",
"R J.b.M k k % Z.c.M k k % A.x.M k k * E.Z M k d * W.V M k s 9 Q.M M k p w Y.M n k p q D.n n k u 2 T ",
"I L.c.b k b $ C.v.b k b $ C.j.b k k & D.V b b k & R.V b b a t R.M b b p t !.n b b p h D.b b b s , W ",
"I G.n.k b n $ V.m.k b b $ C.v.k b b & R.j.k n k & R.V j N j = R.M k M p i R.M k M p h D.n k M y - W ",
"R L.n.k k n $ V.m.k b b $ C.v.k b b & R.j.k b k & R.V k n j = R.M k N g f R.M k M p h R.n j M y < W ",
"7 V.N.k k n $ V.m.k k b $ C.v.k b b & Y.j.k b k & R.V k b j = R.M k b p f R.M j n p h R.n k n g X 4 ",
"% B.N.k b b $ V.m.k b b $ C.j.k b k & Y.j.k b d & R.V k n j = R.M k n g f !.n k n p h R.n k n g . : ",
"% B.N.b b b $ C.v.b b b $ C.j.b n k & R.V b b k & R.V b n j = R.M b b g f !.n n n p h R.b b n g   7 ",
"% B.N.M b b $ V.v.M b b $ C.j.M b k & R.f.M b k & R.V M b k = R.M M b g f R.M n b p h R.M n n g . 8 ",
"% B.N.M b n $ V.v.n b b $ C.x.n b b & R.j.n b b & R.V M b k = R.M n b j f R.M b n p h R.M n n j   8 ",
"O B.N.n b n $ V.v.n b n # C.v.n b b $ R.f.n b b & R.V b b k = R.V b b j f R.M b n p h D.M b n g . ; ",
"5 z.N.b k M $ V.m.b b b $ C.v.b b b $ R.j.b n b & R.j.b n k = R.V b M j f R.M k M p h D.M k M p + ! ",
"T G.b.b b M $ V.m.k b n $ C.v.k n b $ R.j.k M b & R.V k M k = R.V k V g f R.M k V p h R.M k V y < Y ",
"Q H.c.k b n $ V.m.d n b $ C.v.j n b $ R.j.k M k & R.V k M j = R.M k V p f !.n j V p h R.n k V y - T ",
"U L.c.p b M $ C.v.p n b $ D.j.p n b & R.V g M k & R.M p M k = R.n g V p f !.b j V p h !.b j V y < T ",
"U H.c.p b M $ C.j.p n n o D.j.p M b & R.M p M k & R.M g M k = R.b p V g f !.b p V p h !.k g V y < T ",
"U L.c.p n M $ C.j.p n n $ D.V t M b & R.M p M k & R.b p V j = R.b p V g f !.k p V p h R.k p j.y < T ",
"U L.c.t n M $ C.j.y M b $ C.j.t M b & R.M t V k & R.b t V k = R.b p j.g f !.k p j.p h !.k p j.y < T ",
"I H.c.t b M $ C.v.t n b $ D.j.t M b & R.V t M k & R.n t V k = R.b p V p f !.k p j.p h !.k p j.y < T ",
"Q L.c.p b M $ C.v.t b n $ D.j.p b b & R.V p n b & R.M p M k = R.b p M g f !.b p V p h !.k p V y 3 r.",
"e.P.c.g k M $ C.v.p b n $ D.j.p b b & R.V p b b & R.M p n k = R.b p M j f !.b p M p h !.k p M s < W ",
"I H.c.j k n $ C.v.p k b $ D.j.g b b & R.V j b k & R.M j b k = R.n g n j f !.b g n p h R.k j M s < W ",
"e.L.c.j b b $ V.v.a b b $ C.j.k b b & R.V j b k & R.M k n j = R.n k n p i !.b k n p h R.b k M y 1 W ",
"R G.c.k b b $ V.m.k b b $ C.v.k b k & R.j.k b k & R.V k N j = R.M k M p i R.n k M p h R.b k M y e W ",
"0.P.c.k b n $ V.m.k b b $ C.v.k n b & R.j.k n k & R.V k M j = R.V k M p i R.M k V p h D.n k V y < T ",
"0.I.c.b k M $ C.m.b b n $ C.v.b b b $ R.j.b b b & R.j.k n k = R.V k n j f R.M k M p h R.M k M s < W ",
"I H.c.M k n $ C.v.n k b $ C.v.n k b $ R.f.n k b & R.V n b k = R.V b b j f R.M b b p h R.M b b s - W ",
"T J.c.b k b $ C.v.n k b $ C.x.n k k & Y.j.n k k & R.V n k j = R.M b b p f !.M b b p h R.n b b u 3 E ",
"6 S.N.b k k $ V.m.b k k $ C.j.b k j & Y.j.b k a & R.V b b p t R.M b b p i R.M b b y h R.M b b p @ ~ ",
"O B.N.n k k $ V.m.b k k $ C.j.b k g & Y.j.b k p & R.V b k p t R.V b k p f R.M b k t h R.M b k i . @ ",
"% B.N.n k k $ V.v.n k k $ C.v.n k a & R.j.b k g & R.j.n k p t R.V b k p f !.M b k t h R.M b k p   7 ",
"% B.N.n k k $ V.v.n j k $ C.v.n k k & R.j.b k j & R.j.b k p = R.V b k p f R.M b k t h R.M b k g   7 ",
"% B.m.n k k $ V.m.n j k $ C.v.b k k & Y.j.b k a & D.j.b k p = R.V b k p i R.M k k i h R.M k k p   8 ",
"% B.N.b k b $ V.m.b k b $ C.v.b k k & Y.j.b k a & R.j.k b p = R.V k b p i R.M k b p h D.M k b g . ; ",
"7 V.n.b k b $ V.m.b b b $ C.v.b b k & R.j.b b k & R.V k b j = R.M k b p i !.M k n p h D.n k b p X 1 ",
"U H.c.b b b $ V.v.b b b $ C.j.b b b & Y.j.b b k & R.V b n j = R.M b n p i !.M b M p h R.n b n y < T ",
"U H.c.b b n $ V.v.b n b $ D.j.n n b $ R.j.n M k & R.V n M j = R.M n M p i !.M b M p h R.n b M y 1 F.",
"U H.c.M b n $ V.v.n b b $ C.j.n b b & R.j.n n k & R.V n n j = R.V n n p i R.M b M p h R.M b n y < W ",
"U L.c.n k b $ V.v.n k b $ C.j.n k k & R.f.n k k & R.V n k j = R.V n k g f !.M n b p h R.n b b s < T ",
"U L.c.M b b $ V.v.n k b # C.j.n b k & Y.f.n k k & R.V n b j = R.M n b g f !.M b b p h R.n b b s < W ",
"U L.b.M M n o C.v.n M b o C.x.M M b & R.V M M k & R.V M M k t R.M M M p f !.M M M p h D.n M V u - W ",
"I G.M.B h.B % V.l.m B B % V.g.B h.z * Y.h.B h.z * U.h.B h.h > Y.B B h.h 0 Y.m B h.i w Y.m B h.g 2 T ",
"R O.+.u.....F O.u...X.X.F +.+.O.O.X...5.O...+.+.F O.+.+...X.F O.+.F X.F X.u.F .... .F +...X.+.X.D T ",
"R G G T G :.R G T G G T G 1.y.2.L *.:.G G R R :.L G T H G R R G H R L R G *.G G G R 1.:.1.G :.:.G U ",
"R H U U U 1.&.U U U U U U R U U U U U D U t.U U R U U U U U U U &.2.U &.G U U U I U U U &.U &.U H U "
};
