/* XPM */
static const char *collectibles[] = {
/* columns rows colors chars-per-pixel */
"50 50 196 2 ",
"   c #110D0F",
".  c #0D0B10",
"X  c #100E11",
"o  c #19151A",
"O  c #06070B",
"+  c #21191B",
"@  c #1F1B21",
"#  c #231E22",
"$  c #2A1E25",
"%  c #2B2325",
"&  c #2A262C",
"*  c #33272A",
"=  c #382C2C",
"-  c #3C302E",
";  c #3E2F34",
":  c #3E3231",
">  c #38383D",
",  c #482D2F",
"<  c #4C2F31",
"1  c #433534",
"2  c #493337",
"3  c #44373A",
"4  c #4C3C3D",
"5  c #483A38",
"6  c #5C3939",
"7  c #633E3C",
"8  c #55423E",
"9  c #5A443F",
"0  c #583D41",
"q  c #494247",
"w  c #584544",
"e  c #5D4944",
"r  c #574545",
"t  c #474750",
"y  c #5D4D51",
"u  c #57555C",
"i  c #644D46",
"p  c #624D4B",
"a  c #6B4E4B",
"s  c #744542",
"d  c #65514B",
"f  c #6B544C",
"g  c #745A4E",
"h  c #77574D",
"j  c #6E5954",
"k  c #6B5956",
"l  c #735450",
"z  c #755C53",
"x  c #7B5C54",
"c  c #745B59",
"v  c #7F5E59",
"b  c #7E5450",
"n  c #7C6156",
"m  c #7C635A",
"M  c #71625F",
"N  c #655E63",
"B  c #65656A",
"V  c #7B6560",
"C  c #7A6E6D",
"Z  c #656875",
"A  c #7D7171",
"S  c #75757A",
"D  c #894F4B",
"F  c #81584E",
"G  c #92544F",
"H  c #815E57",
"J  c #845954",
"K  c #975852",
"L  c #836455",
"P  c #896457",
"I  c #83645B",
"U  c #8D665D",
"Y  c #86695E",
"T  c #8B6B5C",
"R  c #916E5C",
"E  c #98655D",
"W  c #94705E",
"Q  c #A5655B",
"!  c #B2685E",
"~  c #B8685D",
"^  c #846C63",
"/  c #8C6E62",
"(  c #8A6D69",
")  c #886764",
"_  c #946D63",
"`  c #9B6D62",
"'  c #83716C",
"]  c #8C7164",
"[  c #937365",
"{  c #9A7365",
"}  c #9E7369",
"|  c #9D7B6A",
" . c #95766A",
".. c #857876",
"X. c #857673",
"o. c #927371",
"O. c #9C7A72",
"+. c #967B75",
"@. c #AC6C62",
"#. c #A2766B",
"$. c #A37D6C",
"%. c #AA7A6E",
"&. c #B6756A",
"*. c #AD7E71",
"=. c #A17C77",
"-. c #B37F72",
";. c #CA7769",
":. c #E27C6C",
">. c #A6826E",
",. c #A9836E",
"<. c #AC8672",
"1. c #AF8873",
"2. c #A48178",
"3. c #B58C76",
"4. c #BB8778",
"5. c #B68E78",
"6. c #B88E78",
"7. c #B68577",
"8. c #BC927B",
"9. c #C78E7E",
"0. c #D48577",
"q. c #C5927F",
"w. c #E98775",
"e. c #FF8A76",
"r. c #FD8C78",
"t. c #FF937E",
"y. c #5E6B81",
"u. c #847F82",
"i. c #89858B",
"p. c #878387",
"a. c #928485",
"s. c #948A88",
"d. c #898B95",
"f. c #95969B",
"g. c #AC8882",
"h. c #A88681",
"j. c #B18A83",
"k. c #B9918A",
"l. c #BE9187",
"z. c #A39690",
"x. c #A6938B",
"c. c #8F95A0",
"v. c #969BA5",
"b. c #A2A6AE",
"n. c #A8A5A8",
"m. c #BAB0AC",
"M. c #A0A7B4",
"N. c #AEAFB3",
"B. c #B0AEB0",
"V. c #ACB3BE",
"C. c #B9B7B8",
"Z. c #CF8C80",
"A. c #CC9281",
"S. c #C0968F",
"D. c #CB9D8B",
"F. c #C59284",
"G. c #D29785",
"H. c #DA9D89",
"J. c #D79B87",
"K. c #C59A92",
"L. c #CA9D94",
"P. c #D39E94",
"I. c #FE9885",
"U. c #D3A48F",
"Y. c #D6A699",
"T. c #ECA18C",
"R. c #E1A28D",
"E. c #E9A791",
"W. c #ECA993",
"Q. c #E4AA97",
"!. c #F5A794",
"~. c #E3B09F",
"^. c #FEB49B",
"/. c #FFB99F",
"(. c #F6B098",
"). c #DDADA2",
"_. c #E0AFA4",
"`. c #E3B1A3",
"'. c #E7B4A8",
"]. c #EAB6A9",
"[. c #F5BDAE",
"{. c #FEBBAB",
"}. c #FDB7A7",
"|. c #F4BEB0",
" X c #FEC5B7",
".X c #FFC6B8",
"XX c #FFC8BA",
"oX c #ACB6C5",
"OX c #BEBFC3",
"+X c #A9BBD1",
"@X c #BAC7D6",
"#X c #DEEBFB",
"$X c #D7E4F3",
"%X c #E6E9EA",
"&X c #E8EFF8",
"*X c None",
/* pixels */
"*X*X*X*X*X*X*X*X*X*X*X*X*X*X*X*X*X*X*X*X*X*X*X*X*X*X*X*X*X*X*X*X*X*X*X*X*X*X*X*X*X*X*X*X*X*X*X*X*X*X",
"*X*X*X*X*X*X*X*X*X*X*X*X*X*X*X*X*X*X*X*X*X*X*X*X*X*X*X*X*X*X*X*X*X*X*X*X*X*X*X*X*X*X*X*X*X*X*X*X*X*X",
"*X*X*X*X*X*X*X*X*X*X*X*X*X*X*X*X*X*X*X*X*X*X*X*X*X*X*X*X*X*X*X*X*X*X*X*X*X*X*X*X*X*X*X*X*X*X*X*X*X*X",
"*X*X*X*X*X*X*X*X*X*X*X*X*X*X*X*X*X*X*X*X*X*X*X*X*X*X*X*X*X*X*X*X*X*X*X*X*X*X*X*X*X*X*X*X*X*X*X*X*X*X",
"*X*X*X*X*X*X*X*X*X*X*X*X*X*X*X*X*Xd m I j 5 *X*X*X*X1 f x l 8 *X*X*X*X*X*X*X*X*X*X*X*X*X*X*X*X*X*X*X",
"*X*X*X*X*X*X*X*X*X*X*X*X*X*X*X*Xm m f n $.$.d *X*X1 L R R R T i *X*X*X*X*X*X*X*X*X*X*X*X*X*X*X*X*X*X",
"*X*X*X*X*X*X*X*X*X*X*X*X*X*X*Xf n j =.g.( [ <.e # g R R R R R R 9 *X*X*X*X*X*X*X*X*X*X*X*X*X*X*X*X*X",
"*X*X*X*X*X*X*X*X*X*X*X*X*X*X*Xm n j.XX X[.j.[ | 4 T R R R R R R n % *X*X*X*X*X*X*X*X*X*X*X*X*X*X*X*X",
"*X*X*X*X*X*X*X*X*X*X*X*X*X*X*XY I S. XI.t.!.=.$.x P R R R R R R T : *X*X*X*X*X*X*X*X*X*X*X*X*X*X*X*X",
"*X*X*X*X*X*X*X*X*X*X*X*X*X*X*XY | 2.}.r.e.e.0.[ / n W R R R R R T 1 *X*X*X*X*X*X*X*X*X*X*X*X*X*X*X*X",
"*X*X*X*X*X*X*X*X*X*X*X*X*X*X*Xf 3./ P.I.e.e.w.R | d g g x T R R T - *X*X*X*X*X*X*X*X*X*X*X*X*X*X*X*X",
"*X*X*X*X*X*X*X*X*X*X*X*X*X*X*X*X[ 1./ Z.r.e.;.R >.n [ [ I j g T L % *X*X*X*X*X*X*X*X*X*X*X*X*X*X*X*X",
"*X*X*X*X*X*X*X*X*X*X*X*X*X*X*X*X5 [ <.[ ` Q U <.3.3.6.3.3.<.Y f i X *X*X*X*X*X*X*X*X*X*X*X*X*X*X*X*X",
"*X*X*X*Xo *X*X*X*X*X*X*X*X*X*X*X*X* e z z z [ | 3.3.3.[ z Y 3.T % *X*X*X*X*X*X*X*X*X*X*X*X*X*X*X*X*X",
"*X*X*X*X; * *X*X*X*X*X*X*X*X*X*X*X*X*X*X*Xd >.m ^ 3.6.5.z >.6.^ & *X*X*X*X*X*X*X*X*X*X*X*X*X*X*X*X*X",
"*X*X*X*X*Xa z p U x *X*X*X*X*X*X*X*X*X*X*X[ <.z.C.V { [ k m ^ b.y.*X*X*X*X*X*X*X*X*X*X*X*X*X*X*X*X*X",
"*X*X*X*X*X*X= 2 H { v *.l *X*X*X*X*X*X*X*X| 1.m.&Xt u.c.V.S u B.Z ( h.O.g.c *X*X*X*X*X*X*X*X*X*X*X*X",
"*X*X*X*X*X*X*X*X*X*X* _ G.a *X*X*X*X*X*X*X[ 3.x.%XN.%X+Xd.' / | P !.{.{.}.&.*X*X*X*X*X*X*X*X*X*X*X*X",
"*X*X*X*X*X*X*X*X*X*X*X*X*._ *X*X*X*X*X*X*XY 5.<.z.OXM.A | 3.6.6.R Q w.w.;.6 *X*X*X*X*X*X*X*X*X*X*X*X",
"*X*X*X*X*X*X*X*X*X*X*X*XI H *X*X*X*X*X*X*Xd 1.| ^ V ^ ,.6.3.3.5.<.L b F 9 . *X*X*X*X*X*X*X*X*X*X*X*X",
"*X*X*X*X*X*X*X*X*X*X*X*XA.4.*X*X*X*X*X*X*X*X/ A f.v.n.C  .1.6.3.3.<.$.$.i *X*X*X*X*X*X*X*X*X*X*X*X*X",
"*X*X*X*X*X*X*X*X*X*X*X*XH.7.*X*X*X*X*X*X*X*X$. .' ..s...M z [ ,.,.| 1.I # *X*X*X*X*X*X*X*X*X*X*X*X*X",
"*X*X*X*X*X*X*X*X*X*X*X*XH.%.*X*X*X*X*X*X*X/ 3.8.D.O.z z z 8 u Z Z Z q o *X*X*X*X*X*X*X*X*X*X*X*X*X*X",
"*X*X*X*X*X*X*X*X*X*X*X4 %.f *X*X*X*X*Xz >.5.3.D. X].o.4 @ *Xv.oXoX@XZ *X*X*X*X*X*X*X*X*X*X*X*X*X*X*X",
"*X*X*X*X*X*X*X*X*X*X*XJ (._ *X*X*Xp [ 3.6.3.3.~..X X Xk.3 N d.B Z S > *X*X*X*X*X*X*X*X*X*X*X*X*X*X*X",
"*X*X*X*X*X*X*X*X*X*X*X@.^._ *X4 Y 1.8.3.| | q.[..X X.XL.p L j # *X*X*X*X*X*X*X*X*X*X*X*X*X*X*X*X*X*X",
"*X*X*X*X*X*X*X*X*X*X*X&.^._ w $.3.>.^ d e { U. X X X.XK.3 T 3.Y : *X*X*X*X*X*X*X*X*X*X*X*X*X*X*X*X*X",
"*X*X*X*X*X*X*X*X*X*X*X;.^.#.| <.' i.c.z { 3.`.'.]..XXX).q 1 [ 5.I *X*X*X*X*X*X*X*X*X*X*X*X*X*X*X*X*X",
"*X*X*X*X*X*X*X*X*X*X*X;.!.} $.X.@X&Xb.L ,.8.[.Y.o.K.'.S.# *X% / >.= *X*X*X*X*X*X*X*X*X*X*X*X*X*X*X*X",
"*X*X*X*X*X*X*X*X*X*X*XK -.x $.a.#X#Xp.W 3.D. X[._.k.V o.r *X*Xw <.i *X*X*X*X*X*X*X*X*X*X*X*X*X*X*X*X",
"*X*X*X*X*X*X*X*X*X*X*XQ ^.{ | i.$X$X..<.3.Y..X X.X|.S.g.K.c *X*Xm m l *X*X*X*X*X*X*X*X*X*X*X*X*X*X*X",
"*X*X*X*X*X*X*X*X*X*X*X;.^.} 6.7.a.M.+.3.3.~..X X X X.X X.XK.*X*XI H.(.A.*X*X*X*X*X*X*X*X*X*X*X*X*X*X",
"*X*X*X*X*X*X*X*X*X*X*X! T.*.(./.9.y ] 6.5.]..X X X X X X.X|.p i H././.E.a *X*X*X*X*X*X*X*X*X*X*X*X*X",
"*X*X*X*X*X*X*X*X*X*X*XG ;.A./.^.E.7.[ 3.6.Y.].|. X X X X X.X( ) } W.R.G.*.*X*X*X*X*X*X*X*X*X*X*X*X*X",
"*X*X*X*X*X*X*X*X*X*X*X*X~ ` E.J.A.I / 6.3.3.3.3.`..X X X X.XO.v #.A.*.H 1 *X*X*X*X*X*X*X*X*X*X*X*X*X",
"*X*X*X*X*X*X*X*X*X*X*X*XD b A.#.#.) / 6.3.3.3.3.2.|..X X X XO._ x a 1   *X*X*X*X*X*X*X*X*X*X*X*X*X*X",
"*X*X*X*X*X*X*X*X*X*X*X*X*X6 ! 0.T.W.$.3.3.3.3.6.| Y..X X.X`.[ 3.8 *X*X*X*X*X*X*X*X*X*X*X*X*X*X*X*X*X",
"*X*X*X*X*X*X*X*X*X*X*X*X*X$ ~ r.t.w.{ 5.3.3.3.6.$.L..X X X2.>.3.5 *X*X*X*X*X*X*X*X*X*X*X*X*X*X*X*X*X",
"*X*X*X*X*X*X*X*X*X*X*X*X*X*X*XK :.:.` 5.3.3.3.5.[ Y.XX Xk.[ 3.Y o *X*X*X*X*X*X*X*X*X*X*X*X*X*X*X*X*X",
"*X*X*X*X*X*X*X*X*X*X*X*X*X*X*X*X< s x ,.3.3.3.$./ ].).O.I $.W : *X*X*X*X*X*X*X*X*X*X*X*X*X*X*X*X*X*X",
"*X*X*X*X*X*X*X*X*X*X*X*X*X*X*X*X*X*Xg W { { { e 4 c n L R L 1 O *X*X*X*X*X*X*X*X*X*X*X*X*X*X*X*X*X*X",
"*X*X*X*X*X*X*X*X*X*X*X*X*X*X*X*X*X*Xn R T L d q *X8 L g L L z } *._ 0 2 *X*X*X*X*X*X*X*X*X*X*X*X*X*X",
"*X*X*X*X*X*X*X*X*X*X*X*X*X*X*X*X*X*Xz L T { #.l.F.4.U 6 U W./././.(.%.G s *X*X*X*X*X*X*X*X*X*X*X*X*X",
"*X*X*X*X*X*X*X*X*X*X*X*X*X*X*X*X*Xr *.R.(././././.}.E.E K @.9.A.A.4.%.F s , *X*X*X*X*X*X*X*X*X*X*X*X",
"*X*X*X*X*X*X*X*X*X*X*X*X*X*X*X*X*X*XU _ { #.%.%.%.{ _ x 7 < $ + *X*X*X*X*X*X*X*X*X*X*X*X*X*X*X*X*X*X",
"*X*X*X*X*X*X*X*X*X*X*X*X*X*X*X*X*X*X*X*X*X*X*X*X*X*X*X*X*X*X*X*X*X*X*X*X*X*X*X*X*X*X*X*X*X*X*X*X*X*X",
"*X*X*X*X*X*X*X*X*X*X*X*X*X*X*X*X*X*X*X*X*X*X*X*X*X*X*X*X*X*X*X*X*X*X*X*X*X*X*X*X*X*X*X*X*X*X*X*X*X*X",
"*X*X*X*X*X*X*X*X*X*X*X*X*X*X*X*X*X*X*X*X*X*X*X*X*X*X*X*X*X*X*X*X*X*X*X*X*X*X*X*X*X*X*X*X*X*X*X*X*X*X",
"*X*X*X*X*X*X*X*X*X*X*X*X*X*X*X*X*X*X*X*X*X*X*X*X*X*X*X*X*X*X*X*X*X*X*X*X*X*X*X*X*X*X*X*X*X*X*X*X*X*X",
"*X*X*X*X*X*X*X*X*X*X*X*X*X*X*X*X*X*X*X*X*X*X*X*X*X*X*X*X*X*X*X*X*X*X*X*X*X*X*X*X*X*X*X*X*X*X*X*X*X*X"
};
