/* XPM */
static const char *exit[] = {
/* columns rows colors chars-per-pixel */
"50 36 188 2 ",
"   c #1F0907",
".  c #1E0404",
"X  c #230504",
"o  c #2C0402",
"O  c #220F07",
"+  c #220E09",
"@  c #2C0C09",
"#  c #340503",
"$  c #350A06",
"%  c #3B0A06",
"&  c #24110A",
"*  c #2B150C",
"=  c #33150C",
"-  c #36190E",
";  c #3A1B0F",
":  c #2B1610",
">  c #2C1911",
",  c #351B11",
"<  c #391C10",
"1  c #361914",
"2  c #342216",
"3  c #3E2717",
"4  c #3C241B",
"5  c #3E2C1D",
"6  c #410906",
"7  c #4C0B07",
"8  c #4E0E0A",
"9  c #460F0C",
"0  c #570C07",
"q  c #5A0D07",
"w  c #540D08",
"e  c #5D0D08",
"r  c #49100C",
"t  c #401D0F",
"y  c #5E120C",
"u  c #52110C",
"i  c #421F11",
"p  c #640F07",
"a  c #630F08",
"s  c #6A0F08",
"d  c #6B1007",
"f  c #64120B",
"g  c #6B1008",
"h  c #452213",
"j  c #4A2515",
"k  c #4F2817",
"l  c #4F2C18",
"z  c #462C18",
"x  c #502716",
"c  c #512817",
"v  c #552B19",
"b  c #592E1B",
"n  c #4B311E",
"m  c #55341E",
"M  c #5B321C",
"N  c #462F27",
"B  c #4E3520",
"V  c #4A3926",
"C  c #4B3829",
"Z  c #573520",
"A  c #583620",
"S  c #523924",
"D  c #5B3A23",
"F  c #50382E",
"G  c #643D25",
"H  c #5E462E",
"J  c #52422E",
"K  c #584535",
"L  c #674027",
"P  c #65452B",
"I  c #6A442A",
"U  c #6E492E",
"Y  c #6C4E31",
"T  c #724D31",
"R  c #6A5238",
"E  c #745336",
"W  c #7B5C3D",
"Q  c #775739",
"!  c #634E41",
"~  c #675940",
"^  c #6C5D41",
"/  c #6A5647",
"(  c #725D40",
")  c #6E6044",
"_  c #776444",
"`  c #766452",
"'  c #7C6A59",
"]  c #815F40",
"[  c #856444",
"{  c #826A49",
"}  c #8C6D4B",
"|  c #8F704E",
" . c #90724F",
".. c #8D7C55",
"X. c #897C5C",
"o. c #88775C",
"O. c #927552",
"+. c #947A56",
"@. c #987B56",
"#. c #947C5A",
"$. c #897865",
"%. c #9F8F4B",
"&. c #928043",
"*. c #9C825C",
"=. c #A89855",
"-. c #A99A5E",
";. c #9E8561",
":. c #9E8863",
">. c #958869",
",. c #9C916D",
"<. c #968770",
"1. c #978871",
"2. c #A18560",
"3. c #A48C65",
"4. c #A58E68",
"5. c #A6926B",
"6. c #AA946C",
"7. c #A79964",
"8. c #A79D77",
"9. c #AD9A71",
"0. c #A1947B",
"q. c #B29D74",
"w. c #AFA167",
"e. c #B1A263",
"r. c #B6A866",
"t. c #BAAC6A",
"y. c #BEB06E",
"u. c #AEA57D",
"i. c #B3A37A",
"p. c #BAA57B",
"a. c #BBA87E",
"s. c #B7A776",
"d. c #BFB272",
"f. c #C2B576",
"g. c #AB9F83",
"h. c #B0A780",
"j. c #B4AB83",
"k. c #BDAD83",
"l. c #B3A88C",
"z. c #BAB087",
"x. c #BCB38A",
"c. c #BFB595",
"v. c #C0AD84",
"b. c #C2B285",
"n. c #C7B68A",
"m. c #C4B98D",
"M. c #C9BA8B",
"N. c #C9B68A",
"B. c #C6BC94",
"V. c #CEC488",
"C. c #CAC196",
"Z. c #CBC399",
"A. c #D1C294",
"S. c #D3CA9B",
"D. c #DACD9F",
"F. c #D4C699",
"G. c #DAD29E",
"H. c #CFC7A5",
"J. c #D6CFAA",
"K. c #DBCEA0",
"L. c #DCD3A2",
"P. c #DFD8A4",
"I. c #D7D0AB",
"U. c #DDD7B3",
"Y. c #E1D6A6",
"T. c #E1DAA6",
"R. c #E4DBAC",
"E. c #E9DEAE",
"W. c #E7DFB0",
"Q. c #E9E2AD",
"!. c #EAE2A5",
"~. c #ECE3B3",
"^. c #E7E1B8",
"/. c #EFE8B9",
"(. c #EEE8B4",
"). c #F1E9B7",
"_. c #F3ECBB",
"`. c #F6F0BD",
"'. c #F9F2BE",
"]. c #F7F0C0",
"[. c #FAF4C2",
"{. c #FDF8C7",
"}. c #FFFBCC",
"|. c #FCF6C9",
" X c #FFFFD6",
".X c #FFFFD3",
"XX c None",
"oX c black",
/* pixels */
"XXXXXXXXXXXXXXXXXXXXXXXXXXXXXXXXXXXXXXXXXXXXXXXXXXXXXXXXXXXXXXXXXXXXXXXXXXXXXXXXXXXXXXXXXXXXXXXXXXXX",
"XXXXXXXXXXXXXXXXXXXXXXXXXXXXXXX % q f f f f y y XXXXXXXXXXXXXXXXXXXXXXXXXXXXXXXXXXXXXXXXXXXXXXXXXXXX",
"XXXXXXXXXXXXXXXXXXXXXXXXXXX X 1 @ # 7 a s d g g g d d d d d f f f f f f f y XXXXXXXXXXXXXXXXXXXXXXXX",
"XXXXXXXXXXXXXXXXXXXXXXXXX 1 $.U.l.F X # 7 q e a p p d d g g g g g g g g g g f u XXXXXXXXXXXXXXXXXXXX",
"XXXXXXXXXXXXXXXXXXXXX @ / H._.b.D.^.1.4 o % w 0 0 q q q q e e e e e e e e e q 0 w XXXXXXXXXXXXXXXXXX",
"XXXXXXXXXXXXXXXXXXX F l._.n.Q j m #.L.I.' = o 7 0 q 0 0 0 0 0 0 0 0 0 0 0 0 0 0 0 0 7 XXXXXXXXXXXXXX",
"XXXXXXXXXXXXXXX 4 <.^.F.{ l h j h h A *.L.B.! @ # 7 q 0 0 0 0 0 0 0 0 0 0 0 0 0 0 0 0 w r XXXXXXXXXX",
"XXXXXXXXXX. : ` J.P.#.m h h j j j j h h A ;.S.g.F o 6 0 q 0 0 0 0 0 0 0 0 0 0 0 0 0 0 0 0 7 XXXXXXXX",
"XXXXXXXX+ K c.R.4.D h j j k v v v v v v k h G 4.B.>.4 # 7 0 0 0 q q q q q 0 0 0 0 0 0 0 0 0 w 9 XXXX",
"XXXX+ N 0.R.i.P h j v b b b b b b b b b b b v h P 4.x.` = % 6 6 % % % % % % % % % $ $ $ $ $ $ $   XX",
"XXXX,.L.n.E j h v b v v c v b v c c v b b b b v h h P b.Z.o.= = = = = = = = = = = = = = = = = * XXXX",
"XXXX[.[.W i c b b b b U *.a.b.a.4.[ G v b b b b c h i 5. Xx.- - - < < < < ; ; - - - - - - - - * XXXX",
"XXXX[.|.{ c b b b M @.E.{._.G.i.j.S.A.} M b b b b j h 5. Xk.h j j j j j j j j j h < - - - - - * XXXX",
"XXXX'.}.O.c v v v | _.`.L.u.V & & 5 X.Y.2.b v v b j h 5. Xk.j j j j j j j j j j j j j h - - - * XXXX",
"XXXXXX}.*.v b v I P.].S.x.J O & & + O ^ R.} v b b c h 5. Xk.j j k k k k k k k c c c c k j ; - * XXXX",
"XXXXXX}.3.v b v *.{.P.Z.>.* & & & & & & ,.D.G b b b h 5. Xk.j j j j j j j j j j j j j j j h - * XXXX",
"XXXXXX}.5.c v b N.`.Z.C.~ O & & & & & + V R.O.c v v h 5. Xa.h j j j j j j j j j j j j j j j h * XXXX",
"XXXXXX}.q.b b I R.Q.Z.m.C + & & & & & & * z.n.M b b h 5. Xp.j c c c c v v v k k k k k k k k j = XXXX",
"XXXXXX}.p.b v Q _.L.Z.z.5 + & & & & & & O X.R.L b b h 5. Xi.h j j j j j j j j h j j j j j j j , XXXX",
"XXXXXX}.v.b c [ _.S.Z.j.4 & & & & & & * = ( (.Q c v h 5..Xi.h j j j j j j j j j j k k k k k k < XXXX",
"XXXXXX}.M.M v } _.S.Z.i.2 & & & & & * < - H (.} v b h 5. Xq.j c k k k k k k k k k k k c k k k < XXXX",
"XXXXXX}.A.M v | _.Z.Z.u.2 & & & & * < < - S ~.*.v b h 5..X9.h j j j j j j j j j j j j j j j j , XXXX",
"XXXXXX{.F.M c } _.Z.Z.u.2 & & & & - < < - n R.6.c v h 5..X9.h j j j j j j j j j j j j j j j j , XXXX",
"XXXXXX{.K.G v [ ).S.Z.u.2 & & & * < < < - n R.p.b b h 5..X6.h k c k k c c v k k k k k c c c v , XXXX",
"XXXXXX[.Y.G v ] ).S.Z.u.2 & & & = < < < - z R.a.b b h 5..X6.i j k k k j j j j j j j j j j j j , XXXX",
"XXXXXX[.R.L c E (.S.Z.j.4 + & & - < < < - n R.p.v v h 5..X5.; h j j j j j j j j j j j j j j j , XXXX",
"XXXXXXXX~.I v U E.L.Z.z.5 + & & , < < < - B W.q.v c h 5..X4.i j k k k k k k k k k k k k k j j , XXXX",
"XXXXXXXX(.T v G Y.P.Z.x.V + & & , < < < - S (.6.v c h 5..X:.; i j j j j j j j j j j j j j j j > XXXX",
"XXXXXXXX).E c M S.T.C.B.J + & * , < < < - H _.;.c j h 5..X;.t h h j j j j j k k k k k k k k j > XXXX",
"XXXXXXXX_.W v M N.Q.C.Z.^ + & & - < < < - R `.@.v j h 5..X;.i h h j k c k k k k k k j j j j h > XXXX",
"XXXXXXXX_.[ v b p.(.C.Z.X.& & & - - - - = _ [.} c j h 5..X*.t h h h h j j j j j j j h h h i i : XXXX",
"XXXXXXXX'.} v v 4._.Z.Z.8.> + & 3 B S B z ..].W h h h 5..X#.; i i i h h h h h h h h h h h h h : XXXX",
"XXXXXXXX'.| x x @._.Z.Z.x.^ _ ..7.w.e.-.&.s./.P h h h 5..X#.i h h h h h h h h h h i < < < , * XXXXXX",
"XXXXXXXX'.3.P P @._.G.M.f.d.f.y.t.r.e.=.%.V.~.Y Z A m 9.}.#.i h h h i < < < , * & & XXXXXXXXXXXXXXXX",
"XXXXXXXX!.T.L.L.P.~.R.T.T.P.P.P.G.G.G.G.G.T.R.A.C.C.B.G.Q.{ * * > & XXXXXXXXXXXXXXXXXXXXXXXXXXXXXXXX",
"XXXXXXXXXXXXXXXXXXXXXXXXXXXXXXXXXXXXXXXXXXXXXXXXXXXXXXXXXXXXXXXXXXXXXXXXXXXXXXXXXXXXXXXXXXXXXXXXXXXX"
};
