/* XPM */
static const char *collectible[] = {
/* columns rows colors chars-per-pixel */
"50 50 200 2 ",
"   c #5D583B",
".  c #616932",
"X  c #6D793D",
"o  c #6A7338",
"O  c #7E7D3B",
"+  c #695F42",
"@  c #775A59",
"#  c #686C47",
"$  c #746848",
"%  c #78684A",
"&  c #637F4F",
"*  c #757E42",
"=  c #796452",
"-  c #736954",
";  c #7F7453",
":  c #875756",
">  c #845F58",
",  c #826C46",
"<  c #87674F",
"1  c #836656",
"2  c #82665B",
"3  c #8B675B",
"4  c #8B6958",
"5  c #846855",
"6  c #98685C",
"7  c #827555",
"8  c #947E5C",
"9  c #93725B",
"0  c #B27557",
"q  c #8E6F60",
"w  c #816565",
"e  c #926560",
"r  c #956961",
"t  c #867066",
"y  c #86746B",
"u  c #937161",
"i  c #997263",
"p  c #927C63",
"a  c #9B7C65",
"s  c #927768",
"d  c #9C7C6D",
"f  c #8A7877",
"g  c #977877",
"h  c #A46260",
"j  c #A07267",
"k  c #A67C68",
"l  c #A47A73",
"z  c #679A29",
"x  c #6F992F",
"c  c #709F2F",
"v  c #6B8337",
"b  c #6D8C34",
"n  c #728B34",
"m  c #708838",
"M  c #788E3C",
"N  c #74863C",
"B  c #6C9431",
"V  c #6A933C",
"C  c #729333",
"Z  c #739C31",
"A  c #789837",
"S  c #769238",
"D  c #7A953C",
"F  c #709B39",
"G  c #7D993B",
"H  c #6FA62A",
"J  c #6CA825",
"K  c #73A52D",
"L  c #76AB2D",
"P  c #79AD2F",
"I  c #76B22C",
"U  c #7AB22D",
"Y  c #78B52A",
"T  c #78A432",
"R  c #77AB32",
"E  c #7BAE31",
"W  c #7CB031",
"Q  c #7DB031",
"!  c #7CB031",
"~  c #7EB031",
"^  c #7DB032",
"/  c #7DB132",
"(  c #7CB032",
")  c #7EB032",
"_  c #7FB032",
"`  c #7EB132",
"'  c #7FB132",
"]  c #7FB133",
"[  c #7FB233",
"{  c #7DB035",
"}  c #7FB136",
"|  c #7EB135",
" . c #7DB032",
".. c #7FB13A",
"X. c #7D8A44",
"o. c #698553",
"O. c #809F34",
"+. c #869B3C",
"@. c #84963C",
"#. c #80AE33",
"$. c #81AA38",
"%. c #80B132",
"&. c #80B133",
"*. c #81B132",
"=. c #81B233",
"-. c #82B233",
";. c #81B032",
":. c #81B234",
">. c #83B234",
",. c #83B335",
"<. c #82B234",
"1. c #81B236",
"2. c #84B335",
"3. c #84B335",
"4. c #86B335",
"5. c #86B336",
"6. c #85B336",
"7. c #83B435",
"8. c #84B435",
"9. c #85B436",
"0. c #86B436",
"q. c #87B537",
"w. c #86B536",
"e. c #86B436",
"r. c #83B334",
"t. c #88B537",
"y. c #89B637",
"u. c #88B537",
"i. c #87BA32",
"p. c #84B438",
"a. c #88B638",
"s. c #8AB638",
"d. c #89B538",
"f. c #8CB739",
"g. c #8DB73A",
"h. c #8AB739",
"j. c #8BB839",
"k. c #8DB83A",
"l. c #8EB93A",
"z. c #8EBA3C",
"x. c #8DB83A",
"c. c #90BA3C",
"v. c #90B93B",
"b. c #8BC135",
"n. c #85854D",
"m. c #878D47",
"M. c #99895A",
"N. c #A2885F",
"B. c #94BC41",
"V. c #9FA454",
"C. c #9B8365",
"Z. c #A4806C",
"A. c #AE896D",
"S. c #AD9867",
"D. c #B99D6F",
"F. c #A68071",
"G. c #AA8271",
"H. c #AE8873",
"J. c #A7847C",
"K. c #B58D76",
"L. c #B18978",
"P. c #BE957D",
"I. c #C4827B",
"U. c #C8867D",
"Y. c #C78473",
"T. c #CA977F",
"R. c #C19278",
"E. c #EB8B7F",
"W. c #F98773",
"Q. c #C4A574",
"!. c #D3AD7B",
"~. c #977F85",
"^. c #938D8B",
"/. c #928F94",
"(. c #889A95",
"). c #A58985",
"_. c #A5ACB4",
"`. c #D68F81",
"'. c #C79A87",
"]. c #CF978C",
"[. c #EA9180",
"{. c #E69D99",
"}. c #D3A482",
"|. c #D3A090",
" X c #D6A69E",
".X c #D9A69F",
"XX c #D7AA9E",
"oX c #DDAA98",
"OX c #E6A592",
"+X c #FAB59F",
"@X c #CAB6B3",
"#X c #E9B7AA",
"$X c #E8B4A3",
"%X c #FFBAA4",
"&X c #F3BCAF",
"*X c #ECBCB1",
"=X c #F9C2B3",
"-X c #FFCCBC",
";X c #FFCEC3",
":X c #FFD4C5",
/* pixels */
"..E E E E { { { E 1.{ E { { 1.E { { { E E E E E { { E E E E E 1.1.E E E 1.E E p.E E R E E { { { { p.",
"E L E ~ ~ P P P L w.~ L P ~ t.P P L P *.P L *.t.L L L P t.P W ~ P P P P P L E 1.P L *.*.L P *.1.P { ",
"{ L w.k.*.L E E P E L 1.w.L E *.E E P *.P ~ ~ ~ E P P L E ~ E L L 2.t.k.P 1.w.L ~ ~ E ~ L P P P L E ",
"E L L L P L w.w.L ~ E E E L *.t.*.E L P ~ E E E E L P w.1.E P 1.E E ~ E ~ E E L E w.L L L ~ ~ L 2.E ",
"E L E L E P P ~ L w.*.P E E E W E *.~ L k.k.*.w.E L L d.k.1.L w.E P E P P P P E L L P 2.L 1.~ L *.{ ",
"E f.f.P P E P P P P P P E P P E L 2.E P ,.*.~ 1.~ ~ L L P L P P L P *.E E E P P E E P E P L L L L E ",
"{ w.E P P E ~ ~ P E P P ~ ~ *.L E ~ E P E ~ ~ E P 2.2.L *.2.E >.L L z.w.k.~ ~ w.P E P ~ E 2.P E ~ E ",
"E L P L *.t.w.*.2.L L L E t.w.~ P w.~ ~ W j.z.1.L ~ *.P P ~ P P P P ~ ~ ~ ~ ~ ~ E E P 1.*.w.E w.*.E ",
"E P ~ E E *.E P L L L L E P L E E P P E ~ ~ ~ P P E W E P L E P P P E ~ E P P W E P E W P E P L L E ",
"E *.*.*.E E E E w.1.~ L L P 1.E w.P E 2.L 1.f.w.P 1.*.P E L ~ *.w.E P P 1.1.~ ~ ~ W k.E *.w.P E ~ ~ ",
"{ P E L P P E P ~ E P L E P *.~ ,.P P ~ L P L L P P P P c.~ E E ~ P P P w.d.p.w.L E ~ P E E P P P ~ ",
"1.~ *.E P E ~ ~ L L E ~ ~ ~ L P P P P L P L L P P P P E 1.P ~ P *.d.w.P ~ E P W L L *.~ ~ W E *.~ 1.",
"j.1.w.~ L k.j.w.P E w.P P P P f.E L E E L P L L E *.L E L L L P E ~ E L E ~ ~ P P L 2.*.k.P 2.t.E 2.",
"E P L P E E P E ~ P E L L L L P P L w.k.2.L E 1.L L P *.P E 1.P *.P P L w.~ t.E w.L L L E L P E P E ",
"E P P E ~ P E w.~ 2.P *.E L L L P P P P E L ~ w.L L L d.*.E *.L w.E E ~ L L L P L L L L L P P P P E ",
"{ P L L L L ~ w.~ w.E ~ E P w.2.*.P L 1.P P L P P P P L E P L L L P *.w.P E L L L E 1.~ 1.E L E w.E ",
"E ~ d.E L P E P E P P P E P ~ E 1.E P 2.L L P L P L P L L L L P E E L P P w.E P E w.k.w.w.L L E 2.L ",
"E E f.~ L E P E P P P ~ *.E P P L P E P L w.E 2.~ 2.P L *.E 1.*.d.1.1.E L w.~ w.1.E P ~ L L ~ P L L ",
"{ P L L L f.P *.*.2.E *.k.d.P ~ k.P E E L w.E ~ ~ ~ E L 2.E *.P P P P P P P W *.~ ~ E w.E L *.2.L E ",
"E P P P E E E P E P P P ~ ~ ~ ~ w.~ E P P P P d.E E P E P L E E t.P w.E P P E ~ ~ P P P P L E E P E ",
"E L P ~ ~ P P L E P E P P d.w.L P W P P W W P w.P L P P P L *.~ w.L 2.E P P P P P L P E E P ~ P E E ",
"E E ,.L w.*.P *.E P t.E P P W W E w.w.P P ~ E L P *.*.~ P P E 1.L E L P P P L P *.~ L ~ c.L P d.P L ",
"E 1.2.L E E ~ d.L P E L 2.w.w.~ ,.1.P E L d.w.E E w.1.P E E E E K E E ~ t.P P *.w.~ P P ~ L P E P E ",
"E L L P P E E L ~ P P L 2.w.d.E 2.1.L E 2.P E U U U P P U =.L *.w.w.1.L P P E E *.E P P P P P P E E ",
"1.P E L P E d.2.~ P t.E L L L ~ E L L E E P ~ B N Z Y C o b L ~ E P E P P P P E v.t.L ~ t.L E E ~ 2.",
"d.E w.L P P E E E P P P P L L L P P P L L U D @ g s v % r 1 v U L P t.E L L L P P L L L ~ L k.1.L 1.",
"E L L P ~ E L P P ~ *.P P w.E w.L P P L L L X ).%X`.2 4 9 i $ L ~ P P P L 2.*.w.w.L w.P L E E E P ~ ",
"d.w.E L w.w.L P *.P ~ P L 2.~ w.L ~ *.L E U M l [.W.i = 1 3 % #.L L *.P P P P E E L P L L P P E ~ ~ ",
"{ P P P P L P P P P E L P L P L U Z c Y U ~ L * q 6 k K.a 3 . U L L P P P P P P P L L L P ~ E E w.1.",
"p.w.1.P E P L P P L E ~ E P P E U x X X.D #.L ~ K ; ).d t f & K R ~ P E E P L f.~ w.E L P *.L L L E ",
"p.t.1.L *.E L *.L E 1.w.L P P j.t.w.$.D n.M.K ~ L 8 @X_./.y l OXN.*.~ *.2.P L E E w.P L L L P P P E ",
"E L E P L L P f.L L P ~ 1.*.P w.1.w.,.U I 8 S L I m.g ^.F.R.k h o U P ~ P E P E E P P P L E P P L E ",
"{ L P ~ *.L P P L P L w.d.w.W E E L L L K A.G b.H n.J.f - y ~.- T ~ L P E E P E P L L L P t.2.~ E E ",
"E L P ~ E L L E P E P P P P E w.*.1.*.,.Z k Z +.C.H.$X.X  o.(.V i.L L 2.d.*.L P E P P E P E ~ ~ w.E ",
"E E 2.L L L d.~ w.2.L f.~ P E ~ ~ *.E U +.`.; d 2 Z.=X:Xw 5 C U L L L *.w.w.L ~ t.w.1.w.L L L E ~ E ",
"{ P P P P L *.E P P P E P P P P P E P I @.I.p F $ |.XX].# X.7 J *.E P P L L L E *.P *.*.P E L ~ t.L ",
"{ P P P L P L L L P P P L P L P E P P I @.U.p D a $X-X X'.Z M.S.E j.E *.d.L P P L W ~ P L L L L L L ",
"E L ~ P E E P P E P ~ ~ ~ P L L d.E E U O.Y.+Xl k oX=X-X;Xp '.{.S U E ~ ~ P P L P E P E t.E E E L E ",
"B.~ d.*.2.E E c.w.t.~ w.~ ~ L L P P t.~ L , I.G.F.K.L.&X-XJ.1 * T ,.P P W L L w.d.P E *.f.~ *.*.L E ",
"p.P ~ ~ P P P *.E E P L L L P L L P L P ~ z 0 E.H.P.G.*X#Xl m Y *.k.P ~ P ~ E *.*.P P L P P P L P L ",
"E L w.w.P E E E P P P E P P P ~ *.E ~ E E U L O 9 Z.= J.u + z U Y W P P E E P L P P L L P P P P P E ",
"E P L L P E ~ ~ E P L w.E L L E 2.*.~ L t.E U B e j M.3 : '.}.< n W E E E P ~ E P L *.k.1.*.E L ~ z.",
"E L L P E ~ k.t.E P L L P L P P E P P P P L U A S.Q.!.D., M.V.m.n w.~ ,.L P k.d.P E E 1.P E E E P ~ ",
"E *.j.w.P E E P E P L *.f.f.*.P P 1.~ P P L 2.*.L P L L I =.U i.=.t.E *.P P E E 1.1.E E w.E L ~ P E ",
"E *.2.w.P P L L P P L *.1.~ E P P d.~ E E E P L L E L E E E P E L L P P E E L P L L L L P P P E P E ",
"E P L L E E P L L P P L L P L P P L P P E L L E ~ ~ E L E E P P P L *.v.*.L P P *.E L P L E W E P ~ ",
"E P ~ E E ~ P P P P L 1.E L P P E L ~ 2.E P L P P P P L E L P P E L P L L L L L 2.*.L d.*.P k.~ P E ",
"{ P *.k.P P L E f.P E ~ P E ~ ~ ~ P ~ w.E L 2.w.L L ~ 2.L P L P w.L P L E 2.L L L L L 1.P P ,.E L E ",
"{ L P ~ L w.~ P ~ L P E L w.f.d.E *.1.L P E ~ 1.P E E P L E E L P E P *.L 1.P P K E t.,.w.L 1.1.L E ",
"{ P E E E ,.{ E E E ~ E ~ ~ E { E E E L E z.E ~ { E E E E E E E 1.w.E 1.L E E ~ E E E E 1.E 1.E P E "
};
