/* XPM */
static const char *cross[] = {
/* columns rows colors chars-per-pixel */
"50 50 251 2 ",
"   c #1C0B05",
".  c #160200",
"X  c #0A050E",
"o  c #230C08",
"O  c #350A08",
"+  c #25120B",
"@  c #2A170B",
"#  c #35190D",
"$  c #3A1A0E",
"%  c #361309",
"&  c #2E1913",
"*  c #3B1A14",
"=  c #2D0914",
"-  c #352710",
";  c #2E2A36",
":  c #291B28",
">  c #560906",
",  c #451D0D",
"<  c #441C12",
"1  c #491916",
"2  c #510F14",
"3  c #77111B",
"4  c #6A1018",
"5  c #4A210E",
"6  c #462213",
"7  c #4B2515",
"8  c #4E2817",
"9  c #4C2818",
"0  c #512917",
"q  c #522A18",
"w  c #552716",
"e  c #5C331D",
"r  c #55321B",
"t  c #443815",
"y  c #642F1B",
"u  c #582A29",
"i  c #5A3528",
"p  c #442934",
"a  c #583633",
"s  c #46312E",
"d  c #623B28",
"f  c #78372B",
"g  c #673A36",
"h  c #77393B",
"j  c #6E262E",
"k  c #681722",
"l  c #58571D",
"z  c #4B4C18",
"x  c #574E2B",
"c  c #774A3C",
"v  c #6D4D33",
"b  c #5C6922",
"n  c #5E7323",
"m  c #63742B",
"M  c #615B1D",
"N  c #1C3649",
"B  c #2E3A45",
"V  c #4D3A49",
"C  c #693F44",
"Z  c #334A58",
"A  c #5C4549",
"S  c #564958",
"D  c #4E4955",
"F  c #694847",
"G  c #7A4748",
"H  c #664C52",
"J  c #6C5759",
"K  c #775759",
"L  c #765649",
"P  c #706C48",
"I  c #5A5467",
"U  c #655868",
"Y  c #755C63",
"T  c #6C5C73",
"R  c #7B666C",
"E  c #786A72",
"W  c #7B7076",
"Q  c #496D78",
"!  c #86171C",
"~  c #98191C",
"^  c #B01B1D",
"/  c #9B1A23",
"(  c #AB1E21",
")  c #8F322D",
"_  c #B42725",
"`  c #B1322B",
"'  c #AB201B",
"]  c #C72828",
"[  c #D42B2B",
"{  c #DA3737",
"}  c #CF3830",
"|  c #E63A37",
" . c #8E4C35",
".. c #A36834",
"X. c #CD453A",
"o. c #E3453C",
"O. c #E13E40",
"+. c #844545",
"@. c #885857",
"#. c #955D58",
"$. c #8C5448",
"%. c #AD514E",
"&. c #896A48",
"*. c #896358",
"=. c #967055",
"-. c #B46657",
";. c #B06E55",
":. c #846767",
">. c #9B7567",
",. c #816E71",
"<. c #877677",
"1. c #967674",
"2. c #966C67",
"3. c #A4796B",
"4. c #B87966",
"5. c #A77774",
"6. c #AF706A",
"7. c #845E63",
"8. c #D45148",
"9. c #E74542",
"0. c #F4544E",
"q. c #C9714E",
"w. c #C3796C",
"e. c #CA6D6D",
"r. c #FE6D60",
"t. c #6C912C",
"y. c #6C8F2B",
"u. c #6EA623",
"i. c #73AB26",
"p. c #76AB2C",
"a. c #79AD2E",
"s. c #73A528",
"d. c #7AB32D",
"f. c #77B52A",
"g. c #7BAE31",
"h. c #78A830",
"j. c #7DB133",
"k. c #7DB834",
"l. c #7A8B53",
"z. c #7F8072",
"x. c #81AF34",
"c. c #83B334",
"v. c #83B33A",
"b. c #8AB639",
"n. c #8DBA3A",
"m. c #85B937",
"M. c #91BB3B",
"N. c #8FC23C",
"B. c #8D9251",
"V. c #AF8B58",
"C. c #8BB545",
"Z. c #93BA46",
"A. c #90AF52",
"S. c #918E6E",
"D. c #AA8779",
"F. c #B3887A",
"G. c #AE936D",
"H. c #B5B170",
"J. c #9FAD73",
"K. c #CB845B",
"L. c #D38555",
"P. c #D7976A",
"I. c #C58A76",
"U. c #C8967A",
"Y. c #CD8E6C",
"T. c #E29A71",
"R. c #D6A972",
"E. c #E3A876",
"W. c #9AC04F",
"Q. c #A9C569",
"!. c #B5CB75",
"~. c #C9D87F",
"^. c #3C7C90",
"/. c #7D7582",
"(. c #887B82",
"). c #46878E",
"_. c #739999",
"`. c #98878A",
"'. c #988C94",
"]. c #968E95",
"[. c #AB958A",
"{. c #B8968A",
"}. c #A99995",
"|. c #AF8E8B",
" X c #B7AD85",
".X c #B7AB90",
"XX c #949BA5",
"oX c #AA9EA8",
"OX c #8DA8AC",
"+X c #BAAAA5",
"@X c #ACABB2",
"#X c #B3AFB0",
"$X c #CB9A88",
"%X c #CE9991",
"&X c #D7AA89",
"*X c #C5B789",
"=X c #CAAA97",
"-X c #D9AB97",
";X c #C6BD92",
":X c #D8B497",
">X c #C6A586",
",X c #E4B99A",
"<X c #E9B18D",
"1X c #C8B4A9",
"2X c #D9B8A8",
"3X c #CABBB3",
"4X c #CCB4A9",
"5X c #E8BCA5",
"6X c #BCCC92",
"7X c #BEC6BB",
"8X c #CBC59B",
"9X c #CAC394",
"0X c #D4CA9B",
"qX c #CACF8E",
"wX c #EEC59E",
"eX c #D8C6AB",
"rX c #DAD3A3",
"tX c #D9C7BA",
"yX c #CDCAB3",
"uX c #E7C6AA",
"iX c #F2CBA8",
"pX c #E7CAB6",
"aX c #F3CBB4",
"sX c #EBD6B7",
"dX c #F5D8B9",
"fX c #ECD1A9",
"gX c #DBEAA1",
"hX c #EAE8AC",
"jX c #EBE6B2",
"kX c #F1EAB9",
"lX c #F5F5BB",
"zX c #E8F3AF",
"xX c #CCE192",
"cX c #CBBFC0",
"vX c #C8C4C7",
"bX c #D7CCC4",
"nX c #D7D7D9",
"mX c #D7D2CB",
"MX c #E7D7C8",
"NX c #F4DCC6",
"BX c #E5DED8",
"VX c #F6E2CB",
"CX c #FEFBC5",
"ZX c #FCF8C7",
"AX c #EBE2D7",
"SX c #FBEEDD",
"DX c #F7E8D7",
"FX c #FFFEDB",
"GX c #FFFFD3",
"HX c #FDF7E7",
"JX c #F9EDEB",
/* pixels */
"j.g.g.g.g.j.j.j.g.c.v.p.H.sXqXC.p.j.j.g.j.g.g.j.j.j.g.g.g.g.g.x.j.g.g.g.v.g.g.v.g.g.a.g.g.j.j.j.j.v.",
"g.p.g.j.j.a.a.a.p.b.c.p.H.%XaXdXH.p.p.c.j.a.c.b.p.p.a.g.b.a.g.j.a.g.p.i.i.g.c.c.a.p.j.c.p.p.c.c.a.j.",
"j.p.b.n.c.p.g.g.a.g.p.m.>X%.4.,XaX*XC.d.a.a.i.i.p.p.i.i.a.j.g.g.p.a.n.!.0X,XG.p.j.j.j.j.p.a.a.a.p.g.",
"g.p.p.p.a.p.b.b.p.j.p.v.>X-.-.U.-X5X&XA.v.A.!.qXqX0XqX!.Z.a.i.a.v.6XsX2X5.2.>.g.a.b.p.p.p.j.g.p.c.g.",
"g.p.g.p.g.a.a.j.a.b.a.Z.$X-.-.I.-X-X,XI.&XDXVX<XT.,X&X&XNXrXH.qXsX2X5.+.h +.>.C.p.p.a.c.p.c.j.p.c.j.",
"g.b.b.a.a.g.a.a.a.g.i.A.$X-.-.4.-X-X,X&X-XVXuXL.P.E.q.:XNX5XaXpX|.@.G h +.$.5.B.d.g.a.a.a.p.p.p.p.g.",
"j.b.g.a.a.a.j.g.g.g.i.J.$X4.4.U.-X:X5XsXNXDX,Xq.T.K.U.NXMXuX:X5.@.@.G h +.#.5.B.d.g.a.j.g.c.a.g.j.g.",
"g.p.a.p.c.b.b.c.c.g.u.Q.%Xw.w.I.-XuXdXDXNXNX,Xq.P.Y.uX2XMXtX{.>.#.@.G h +.#.5.B.d.g.a.c.c.b.g.b.c.g.",
"g.a.j.g.g.j.g.a.p.a.u.Q.%Xw.w.$X5XNXDXHXwXwXiXL.K.:X&X$XMXtX1X|.1.@.h h +.#.|.B.f.g.g.j.a.g.a.p.p.g.",
"g.c.c.c.g.g.g.g.b.c.i.Q.-X4.I.5XNXDXSXHX<XE.aXK.Y.uX4.U.MXtX1X[.1.K G h +.#.|.B.d.g.n.a.c.c.a.g.j.j.",
"j.a.g.p.a.p.a.a.g.j.f.B.pXU.$XNXDXSXDXSXuXK.aXK.&X-X;.eXMXtX1X}.1.:.C h +.2.|.P s.k.g.a.g.a.a.a.a.j.",
"j.j.j.g.a.g.j.g.k.s.- & eXfXsXDXSXSXAXAXNXK.uXY.2X4.U.MXtXtX3X+X`.R H g G 5.D.2 5 m m.c.g.g.g.c.j.c.",
"b.c.b.j.p.b.n.N.b . * .XVXsXDXSXHXHXDXMXDX&X:X&X=X;.tXbXyXtX3X+X`.E Y F G |.@.> > > d s.N.p.c.b.g.c.",
"g.a.p.a.g.m.s.- o S.GXFXVXDXHXHXHX1X+XMXAXuX&X:X{.{.MX1XtXMXtX+X`.,.R Y 1.1.h > > > > > b a.j.a.a.g.",
"g.a.p.c.m.z . L ZXkXG.dXdXdXVXeXA D : A MXpX:X=XD.1X3X}.`.}.3X1X`.<.R R K :.@.> > > > > > w y.k.j.g.",
"g.a.m.y.+ s eXCXG.$ *.iXE.P.P.>.D XX/.X `.VX:X>XD.3X`.V ; X ; <.'.(.E R Y K 1.f > > > > > > > l h.j.",
"g.h.z & [.GX*Xr % 5 v ,XT.<XkXtXOXZ p B _.VX5X=X{.3XD N D : N ; K :.R R Y J >.i O O O O O O O O b j.",
"j.t.S.jXrXv % 6 q r 8 F.iXdXdXpXOXQ ; )._.DXNXpX3X}.N Z = B ^.I *.f g F F G 2.* % # # # # # % t p.p.",
"j.i.gXFXv % q e q e , >.dXE.T.iXbXOX_.OX}.HXHXDXbX<.B ).N )._.}.1X2.g u u #.K % * # $ $ $ $ % z d.a.",
"j.u.qXFXL 7 e e e w =.kXsXP.E.wXiXdXDXHXHXpXaX-X{.yXtXyX#X7XeX&XD.<.K a g D.d 6 6 $ # # # # O z k.h.",
"g.u.!.HX&., q q 6 &.GXZXsX,X&XU.;.&XHXHXHX2Xw.#.=XHXSXNXdXaXU.#.c F H C 5.*., 7 7 7 7 < # # % z k.g.",
"g.i.!.HX=., e q e jXZX9X8XsXU.3.F.pXDXAXAXBX*.1XJXMXbXyX[.>.=.$.g u u @.D.8 0 q 0 q q q 7 $ % z k.p.",
"g.a.Q.HXV.5 i 5 =.FX0X0XS.K pXF.D.+XtX3X}.1.5.1.}.+X+X}.<.K K L g a @.{.a 6 9 7 7 7 7 7 7 6 O z k.h.",
"g.u.Z.FXG., r 5 ;XZX;XrXv . F D.>XF.>.:.:.}.4X`.Y Y R R J H A g G 5.F.v , 7 7 7 7 7 7 7 7 8 < z m.g.",
"v.p.Z.FXG.5 e e kXjX;X8Xs       s L >.3.D.1X+X[.<.J H H H A G 2.3.L 8 6 q q q q q q q 0 8 q 1 l k.c.",
"b.a.Z.GXH.5 q v CXrX9X;X- o @ +   . & a L 1.1.,.J V s p a *.*.c 8 $ 7 7 6 6 6 6 6 6 6 6 6 7 < l d.c.",
"g.p.a.CX*X5 7 c CX8X8X X& o + + + @   , y F K a u r * * p u 9 , 7 8 8 8 8 8 8 8 8 8 8 8 q q 1 M k.g.",
"b.b.a.lX9Xw w &.CX9X8X X& o + + +   w ` R. .y V...w > k K F 2 g 8 0 8 8 q q q q q q q q q q 1 M m.g.",
"c.a.i.zXrXw w &.CX9X8X X@ o + +   * %.} q.` X.q.) ( ( ' %.|.+.k c 6 8 7 7 7 7 7 7 7 7 7 7 7 < l n.x.",
"c.b.a.gXrXw 6 &.CX9X8X X@ o + +    .8.0.0.r.r.o.| | _ _ ] 4.%Xj ) g , 7 7 7 7 7 7 7 7 7 7 8 1 l d.g.",
"c.n.i.xXsXw 7 &.CX9X8X X@ o +   a 8.} 0.0.0.0.| [ ] ! ! } 8.4X|.3 %.i 8 q 0 q q q q q q q q 7 b d.g.",
"g.a.u.qXkXe w c CX9X8X X@ o + @ q.` 9.0.o.| | [ ^ ^ 4 2 ` o.w.-.f ) +.7 8 8 8 8 7 8 7 7 7 8 < b d.h.",
"j.a.u.!.kXe 7 v lX0X9X X& +   d X.` 9.9.9.| | [ ^ ~ ! 2 ! } `  .d a u 6 6 6 7 7 7 7 7 7 7 8 < b m.g.",
"g.a.u.Q.ZXd 8 d kX0X9X;X- o   [.I.X.o.9.9.9.| ] ] ~ ! 4 2 ) L <.,.Y i 8 q q q q 0 0 0 8 8 0 1 n n.h.",
"g.c.a.W.ZXv w e hXrX;X9Xs . x DX$X8.{ O.{ | | ] ( / 3 4 2 O |.SX1X<.i 6 7 6 $ 6 6 6 6 6 6 7 < n m.h.",
"j.a.p.Z.ZXv 8 0 rXhX;X0Xx . +XNXF.8.9.o.{ { { ] _ ~ 3 4 2 O 4XSX1X<.i 7 7 i [.i 7 8 8 0 q q 1 m n.p.",
"j.g.p.C.ZXc w w ;XkX;XrXx J HXeX-._ } 9.{ [ ] ] ] ( ! 4 > @.DXMX+X(.i q , D.MXv 6 q 8 8 8 7 $ n d.p.",
"g.a.g.c.lX&.w 5 H.lX;X8X[.AXDX3XF.) ( _ [ [ [ ] _ / k 2 C SXSXMX1X'.i 6 9 =X|.F , 7 6 6 6 6 $ n d.h.",
"Z.j.b.x.lX&.7 5 G.CX;X9X;X3X1X[.}.#X'.7.G h g g V A S D `.HXBXbX3X`.a % c Y.#.v 5 7 6 < < < % n d.h.",
"v.g.j.a.zX&., , =.CX9X8X XS.D.H ,.BXnXnXvX@X@XoX@X@X@XXX(.3X+X+X}.,.a $ 4.%.+.u % < 6 6 t z l t.d.p.",
"g.p.b.a.zXV.r e &.CX0X*XR.H.H.G. XBXnX#XoXoX7XvXnXnXnXvXXXE U E E F # &.Y.f *.b n y.t.s.p.d.k.d.p.g.",
"g.p.p.u.~.lXjXhXjXlXkXhXhXhXhXhXsXnXnX].U S I ].@XvXnXnX#XU : j 3.y.B.;.f h A.d.k.d.c.M.c.c.g.p.j.n.",
"g.p.p.a.j.C.W.Z.v.v.v.v.v.v.v.m.B.e.%X`.S ; : p }.bXbX%X%.3 2 k +.V.;.f u B.n.c.a.g.a.c.a.g.g.g.g.j.",
"g.c.b.b.p.a.p.p.p.p.i.x.b.b.d.i.g...` ! 2 1 1 w f ` ] ^ / j p J 1 2 u G B.j.a.g.c.c.a.g.b.g.p.g.a.g.",
"g.c.c.b.a.g.p.p.a.a.p.c.c.j.g.a.g.m.d.=.Y A V l.s.....@.R S V W P v B.A.j.p.p.a.p.i.p.p.a.a.a.g.a.g.",
"g.a.p.p.g.g.a.p.p.a.a.p.p.a.a.g.i.p.A.#X].U U B.d.k.f.S.oX(.I T A.f.c.n.x.a.a.a.c.g.p.a.p.a.j.g.a.j.",
"g.a.j.g.g.j.a.a.a.a.p.c.g.p.g.p.C.sXAXvX}.U U S.d.h.p.6XbX3X].T S.p.h.p.p.p.p.p.c.c.p.b.c.p.n.j.a.g.",
"j.a.c.n.a.a.p.g.b.a.g.j.a.g.c.a.8XJXmX#X(.U I S.d.i.6XJXbXBXoXT z.d.a.p.g.c.p.p.p.p.p.c.a.a.c.g.p.g.",
"j.p.a.j.p.b.j.a.j.p.a.g.p.b.b.m.J.#X'./.S V V l.d.h.bXcX3XvX/.I l.d.g.c.p.c.p.a.s.g.b.c.b.i.c.c.p.g.",
"j.a.g.g.g.c.j.g.g.g.j.g.j.j.g.j.h.l.P P m m y.j.j.g.S.<.<.W S P x.b.g.c.p.g.g.j.a.g.g.g.c.g.c.g.a.g."
};
