/* XPM */
static const char *exit[] = {
/* columns rows colors chars-per-pixel */
"50 50 220 2 ",
"   c #0E0000",
".  c #140000",
"X  c #1A0301",
"o  c #1D0A04",
"O  c #250000",
"+  c #220F09",
"@  c #280A06",
"#  c #340B05",
"$  c #3B0906",
"%  c #310F0A",
"&  c #350706",
"*  c #25120A",
"=  c #2C150C",
"-  c #2B190E",
";  c #221501",
":  c #361105",
">  c #3A1406",
",  c #32150C",
"<  c #3C1608",
"1  c #35190E",
"2  c #3B1B0E",
"3  c #3D1807",
"4  c #2E1912",
"5  c #3E1710",
"6  c #391D10",
"7  c #371D15",
"8  c #39220D",
"9  c #372517",
"0  c #3C2416",
"q  c #33310A",
"w  c #3D2721",
"e  c #410906",
"r  c #4E0E09",
"t  c #540305",
"y  c #570C07",
"u  c #5A0C07",
"i  c #540B08",
"p  c #5B0E08",
"a  c #441B0B",
"s  c #4A1E0D",
"d  c #55110A",
"f  c #5D1009",
"g  c #431C12",
"h  c #4A1E15",
"j  c #6C0605",
"k  c #6D0B07",
"l  c #670908",
"z  c #6A1108",
"x  c #661509",
"c  c #4D210E",
"v  c #47230E",
"b  c #52210E",
"n  c #462314",
"m  c #4B2515",
"M  c #4E2817",
"N  c #4D2A19",
"B  c #442B18",
"V  c #512513",
"C  c #512917",
"Z  c #522B19",
"A  c #592F1B",
"S  c #562B15",
"D  c #473618",
"F  c #56321C",
"G  c #5B321D",
"H  c #662D11",
"J  c #683715",
"K  c #67260F",
"L  c #4A3927",
"P  c #5E3420",
"I  c #553A22",
"U  c #482C2E",
"Y  c #633D22",
"T  c #484717",
"R  c #514B1B",
"E  c #4D5418",
"W  c #57571D",
"Q  c #694717",
"!  c #6A591C",
"~  c #57631E",
"^  c #69681F",
"/  c #5B5E20",
"(  c #5B453C",
")  c #6C4A2D",
"_  c #654729",
"`  c #66563B",
"'  c #79593A",
"]  c #714D2F",
"[  c #5B6721",
"{  c #5F7323",
"}  c #627225",
"|  c #647C23",
" . c #707624",
".. c #6A5847",
"X. c #796542",
"o. c #766556",
"O. c #907E3E",
"+. c #825F41",
"@. c #8B6D4A",
"#. c #876645",
"$. c #8A7959",
"%. c #917652",
"&. c #947B55",
"*. c #90734D",
"=. c #847463",
"-. c #678827",
";. c #738828",
":. c #6D922B",
">. c #73992B",
",. c #6EA623",
"<. c #73A12D",
"1. c #76AB2D",
"2. c #79AD2E",
"3. c #74AA27",
"4. c #7AB32F",
"5. c #76AC30",
"6. c #7BAE31",
"7. c #79A430",
"8. c #7DB132",
"9. c #7DB933",
"0. c #7FB13A",
"q. c #92803A",
"w. c #81B133",
"e. c #82B235",
"r. c #85B235",
"t. c #86B436",
"y. c #83B234",
"u. c #88B537",
"i. c #82BA35",
"p. c #84B33B",
"a. c #8AB63A",
"s. c #8DB83A",
"d. c #8CBB3A",
"f. c #8BBD37",
"g. c #90BA3B",
"h. c #81AF34",
"j. c #8DC23D",
"k. c #91C43E",
"l. c #9B825C",
"z. c #908457",
"x. c #8C814E",
"c. c #A69258",
"v. c #88B640",
"b. c #8DB942",
"n. c #94BB42",
"m. c #92B94A",
"M. c #B1A25F",
"N. c #998865",
"B. c #9A8C77",
"V. c #9D9573",
"C. c #A28D66",
"Z. c #A48965",
"A. c #A59168",
"S. c #A9936B",
"D. c #A8946B",
"F. c #AE9B71",
"G. c #B39E74",
"H. c #B0986F",
"J. c #B7A96B",
"K. c #B4A177",
"L. c #B5A67C",
"P. c #BDA97E",
"I. c #BAAC75",
"U. c #AFA375",
"Y. c #C3B574",
"T. c #C0B16E",
"R. c #9AC04F",
"E. c #ACCA65",
"W. c #B7CF74",
"Q. c #C9D87F",
"!. c #A89A87",
"~. c #B7AE85",
"^. c #BCAC82",
"/. c #BBB388",
"(. c #BDB598",
"). c #C3BB8F",
"_. c #C4B588",
"`. c #C4BD93",
"'. c #CCBF91",
"]. c #C0B99C",
"[. c #CAB68B",
"{. c #C2D784",
"}. c #CAC294",
"|. c #CBC59B",
" X c #CCC59C",
".X c #D3CB9A",
"XX c #D6C898",
"oX c #D9D19E",
"OX c #CEC489",
"+X c #CCE192",
"@X c #D3CDA4",
"#X c #DCD4A2",
"$X c #DCD6A5",
"%X c #DAD5B1",
"&X c #E5DAAA",
"*X c #E5DCB7",
"=X c #DBEAA1",
"-X c #EAE5AA",
";X c #EEEAAE",
":X c #E6E5A8",
">X c #E8F3AF",
",X c #EBE4B3",
"<X c #ECE8B0",
"1X c #EBE6B8",
"2X c #F0ECB5",
"3X c #F4EDBD",
"4X c #F1E3B8",
"5X c #F6F1BD",
"6X c #F9F3BE",
"7X c #F6F9BB",
"8X c #FBF4C4",
"9X c #FEFBC5",
"0X c #FFFECA",
"qX c #F4F1C4",
"wX c #FEFED3",
"eX c #FFFFDB",
"rX c #F0EFC7",
"tX c #FFFFE5",
"yX c #FFFFE9",
"uX c #FFFFF5",
/* pixels */
"0.6.6.6.6.8.8.8.6.e.8.6.8.8.e.6.6.8.8.6.6.6.6.6.8.8.6.6.6.6.6.e.e.6.6.6.e.6.6.e.6.6.5.6.6.8.8.8.8.e.",
"6.1.6.8.8.2.2.2.1.t.8.1.2.8.u.2.2.1.2.w.2.1.w.u.1.1.1.6.u.2.6.8.2.2.2.2.2.1.6.e.2.1.8.w.1.2.w.e.2.8.",
"8.1.t.s.w.1.6.6.2.6.1.e.t.1.6.e.6.6.2.w.2.8.8.8.6.2.2.1.6.8.6.1.1.r.u.s.2.e.t.1.8.8.6.8.1.2.2.2.1.6.",
"6.1.1.1.2.1.t.t.1.8.6.6.6.1.e.a.w.6.1.2.8.6.6.6.2.1.2.t.e.6.2.e.6.6.8.6.8.6.6.1.6.t.1.1.1.8.8.1.r.6.",
"6.1.6.1.6.2.2.8.1.t.w.2.6.6.6.8.6.e.6.1.s.s.w.t.6.1.1.a.s.e.1.t.6.2.6.2.2.2.2.6.1.1.2.r.1.w.8.1.w.8.",
"6.s.s.2.2.6.2.2.2.2.2.2.8.2.1.6.1.r.6.2.e.w.8.e.6.8.1.1.2.1.2.2.1.2.w.6.6.6.1.2.6.6.2.6.2.1.1.1.1.6.",
"8.t.6.2.2.6.8.8.2.6.2.2.8.8.6.1.8.8.6.2.2.6.6.6.1.r.r.1.8.r.6.w.1.1.s.t.s.8.w.t.2.6.2.8.6.r.2.6.8.6.",
"6.1.2.1.w.u.t.w.r.1.1.1.6.r.f.8.1.t.8.9.9.j.k.i.9.9.i.9.8.8.4.2.2.2.6.6.6.6.6.8.6.6.2.e.w.t.6.t.w.6.",
"6.2.8.6.6.e.6.2.1.1.1.1.6.9.-.8 a H J J Q Q ! ! ^  .;.;.:.>.<.<.5.8.8.9.9.9.8.6.6.2.6.8.2.6.2.1.2.6.",
"6.w.w.w.6.6.6.6.t.e.6.4.5.E . * X O i l j j j j j j j l z x x x K H J Q Q ! ;.i.8.6.s.6.w.r.2.6.8.8.",
"8.2.6.1.2.2.6.2.6.8.i.| ; X =.wX(.0 . & d p f x z z z z z k k k k k k j j j z ! 1.9.6.2.6.2.2.2.2.8.",
"e.8.w.6.2.6.6.6.9.<.q . ( *XeX_.&XeXB.+ . e d u y y y u u p p p p p p p p f u t b | i.i.6.6.6.w.8.e.",
"a.e.t.8.1.a.d.j.{ X 7 (.eXXX) > v %.3XrXo.X O r p u y y y y y y y y y y y y y p t t Q >.k.2.w.u.6.r.",
"6.2.1.2.6.i.>.q O B.eX&X' 3 a N m > v l.5X%X( . & d p y y u u u y y y y y y y y y p t d ^ 5.9.2.2.6.",
"6.2.1.i.i.E X ..rXqX%.a < m m n n m n > m C.3X(.w . e f u y y y y y y y y y y y y y p y t S ;.9.8.6.",
"6.4.i.-.; U @X0XS.m > m M M Z Z Z Z A A M < M H.,XB.= O i p u p p u u p p u u p p p u u p t i W 7.8.",
"6.7.T 4 !.0X_.F > M A G G G G G G G G G G P Z > F K.#Xo.X & e $ $ $ $ $ $ $ $ # # # # # # & & O ~ 8.",
"8.:.N.1XoX_ : n Z A A Z s s s a a m A A Z Z A A g : F XX$X$.@ , = = = = = , , , , 1 1 , 1 1 , D 1.1.",
"e.3.=XeX_ # A A A A m Y l.^.[.[.H.+.V m G A A A C M # N.uX/.@ 6 2 2 2 2 2 2 2 2 2 2 2 2 2 2 , T 4.1.",
"8.,.{.eXX.m G A G V *.5XwX0X<X~.).<X&X#.c G A A A M < S.tX^.> M M M M M M M M m n 6 1 1 1 1 % T 8.6.",
"6.,.W.tX@.s A A h #.wXqXoXL.9 . . = $.0Xl.s A Z A M : S.yX^.< m m n n n n n m m m m n g 1 1 , T 8.6.",
"6.3.W.tX&.s G Z G ,X9X}.`.L X - * +   ` 0X#.m A A Z > S.yX^.a Z M M M M C C C Z Z Z Z Z m 2 , R 8.1.",
"6.2.E.tXZ.c P m &.eX.X XN.X * * * * -   V.1XS A A G > S.yX^.a Z M M M M m m m m m m m m m n % E 9.6.",
"6.,.m.eXA.s G c '.9X).@X` X * * * * * o 9 9X*.s A A > S.yXL.> m n n m m m m m m m m m m m M g E i.6.",
"e.1.m.eXG.c A J 2X,X`.|.L o * * * * * * . `.XXc G G < S.yXL.a A Z Z Z Z Z Z Z Z C C Z C Z Z h W i.r.",
"a.2.n.wXP.c Z ] 9X#X}.`.9 o * * * * * * . $.6XG Z G < A.yXK.> M m m m m n n n n n n n n n m g W 4.e.",
"6.1.6.9X_.c m ' 0X|.|./.4 + * * * * * = @ ` 0X) m F > C.yXG.< M M M M M M M M M M M M C Z Z h / 8.6.",
"a.t.1.7X'.V V #.0X}. X~.- + * * * * = 6 , I 0X@.V P < S.yXF.a A Z Z C C C C C C Z Z Z Z C Z h / i.6.",
"e.2.3.>XoXS V @.9X}. X~.- + * * * - 6 6 1 B 8Xl.c P < S.yXF.> M m m m m m m m m m m m m m m g W f.h.",
"p.a.2.=X&XM n #.9X}. X~.- + * * * 1 6 6 1 0 5XF.a G > A.yXD.: M m m m m m m m m m m m m m M h W 4.6.",
"p.s.3.+X&XS m #.9X}. X~.- + * * - 6 6 6 1 8 3XP.s P < S.yXD.> Z Z Z Z Z C C Z Z Z Z Z Z Z Z m [ 4.6.",
"6.2.,.{.4XG V ' 9X}.|.~.- + * * , 6 6 6 1 8 3X_.c P < S.yXS.> Z M M M M M M M M m M m m m M g [ 9.6.",
"8.2.,.W.3XG m ) 6X.X|./.4 + * * 1 6 6 6 1 0 5XP.s F > A.yXN.# n n n n n n n n m m m m m m M h [ i.6.",
"6.2.,.E.8XY V Y 3X.X}.).9 + * * 7 6 6 6 1 n 8XK.s A > S.yXC.: M Z Z Z Z Z Z Z Z C C C C M C h } f.6.",
"6.w.2.R.8X_ V G -X$X`.}.B o * * 7 6 6 6 1 B 0XS.s A > S.yXN.: n m m m n n n n n n n n n n m g } i.6.",
"8.2.1.m.8X) M V #X-X`..XL o * * 2 6 2 6 , I wXl.s M > S.yXl.: n n M M M M M M M M M M C Z Z h } f.1.",
"8.6.1.v.9X' C V '.<X`.@X..X * * 2 6 6 6 , _ wX%.m M > S.yXl.> m n M Z C C C C M M M M M M m 5 { 4.1.",
"6.2.6.e.7X+.C V P.5X).@X$.o - * 1 1 , 1 @ ' eX#.n N > S.tX&.: n g g n m m n m m n n n n n n 5 { 4.6.",
"n.8.u.w.7X#.M c A.9X). XL.o X o 7 N D L 2 $.wX] a N > S.tX$.# n g g g n n n m m m m n g g g 5 { 4.6.",
"p.6.8.2.>X@.s s %.0X}.}.`.` X.z.U.J.I.J.O.I.0XI 2 m : A.tX%.> m n n n n g g g 5 5 g n B D R E :.4.1.",
"8.1.t.2.:XZ.F G @.9X.X_.Y.Y.Y.T.J.M.M.c.q.OX3XF M Z a A.tX%.# g 5 g g n D T E ~ { -.:.<.1.4.8.4.1.6.",
"6.2.1.,.Q.5X<X;X<X5X2X;X;X-X-X-X-X-X:X-X-X;X2X#X#X#XoX:X7Xx.D [ } -.:.>.6.4.i.9.8.4.i.g.r.w.6.1.8.s.",
"6.1.1.1.8.b.R.n.p.p.e.p.p.p.p.p.v.v.v.p.p.e.a.a.b.b.b.v.p.t.8.i.i.f.t.t.2.1.a.u.2.6.2.e.2.6.6.6.6.6.",
"6.w.a.t.1.2.1.1.1.1.1.4.u.u.4.1.1.8.2.1.1.1.w.2.2.w.2.2.1.a.r.u.6.t.6.w.2.2.6.6.e.e.2.6.t.6.1.6.2.6.",
"6.w.t.t.2.6.1.1.2.2.1.w.t.8.6.2.2.a.8.6.6.8.6.2.1.6.1.2.8.8.2.6.1.1.2.1.6.6.1.2.1.1.1.1.2.2.2.6.2.6.",
"6.2.1.2.6.6.2.1.1.2.2.1.1.2.2.2.2.1.2.2.6.1.1.6.8.8.2.1.6.6.2.2.2.1.w.g.w.1.2.2.w.6.1.2.1.2.8.6.2.8.",
"6.2.8.6.6.8.2.2.2.2.1.e.6.1.2.2.6.1.8.r.6.2.1.2.2.2.2.1.6.1.2.2.6.1.2.1.1.1.1.1.r.w.1.a.w.1.s.8.2.6.",
"8.2.w.s.2.2.1.6.s.2.6.8.2.6.8.6.8.2.8.t.2.1.r.t.1.1.8.r.1.2.1.2.t.1.2.1.6.r.1.1.1.1.1.e.2.2.t.6.1.6.",
"8.1.2.8.1.t.8.2.8.1.2.6.1.t.s.a.6.w.e.1.2.6.8.e.2.6.6.2.1.6.6.1.2.6.2.w.1.e.2.2.3.6.u.t.t.1.e.e.1.6.",
"8.2.6.6.6.t.8.6.6.6.8.6.8.8.6.8.6.6.6.1.6.s.6.8.8.6.6.6.6.6.6.6.e.p.6.e.1.6.6.8.2.6.6.6.e.6.e.6.2.6."
};
