/* XPM */
static const char *grass[] = {
/* columns rows colors chars-per-pixel */
"50 50 162 2 ",
"   c #72A729",
".  c #76AB2D",
"X  c #79AD2F",
"o  c #77AB31",
"O  c #7BAE34",
"+  c #7DAE34",
"@  c #7CAF34",
"#  c #7DAF34",
"$  c #7CAF35",
"%  c #7DAF35",
"&  c #7EAF35",
"*  c #7BAE30",
"=  c #7BB030",
"-  c #7BB031",
";  c #7CB030",
":  c #7DB030",
">  c #7CB031",
",  c #7DB031",
"<  c #7DB131",
"1  c #7EB030",
"2  c #7EB031",
"3  c #7FB031",
"4  c #7EB131",
"5  c #7FB131",
"6  c #7CB032",
"7  c #7DB032",
"8  c #7DB132",
"9  c #7CB033",
"0  c #7DB133",
"q  c #7EB032",
"w  c #7FB032",
"e  c #7EB132",
"r  c #7FB132",
"t  c #7EB133",
"y  c #7FB133",
"u  c #7FB233",
"i  c #7DB034",
"p  c #7CB035",
"a  c #7DB035",
"s  c #7DB135",
"d  c #7FB034",
"f  c #7EB135",
"g  c #7FB036",
"h  c #7EB136",
"j  c #7FB136",
"k  c #7EB236",
"l  c #7FB236",
"z  c #7DB032",
"x  c #7FB13A",
"c  c #80B031",
"v  c #80B032",
"b  c #81B032",
"n  c #80B132",
"m  c #81B132",
"M  c #81B033",
"N  c #80B133",
"B  c #81B133",
"V  c #82B032",
"C  c #82B133",
"Z  c #80B233",
"A  c #81B233",
"S  c #82B232",
"D  c #82B233",
"F  c #83B233",
"G  c #82B333",
"H  c #80B234",
"J  c #81B234",
"K  c #82B234",
"L  c #83B234",
"P  c #82B334",
"I  c #83B334",
"U  c #82B235",
"Y  c #82B335",
"T  c #83B335",
"R  c #80B136",
"E  c #81B137",
"W  c #82B036",
"Q  c #80B236",
"!  c #81B237",
"~  c #80B337",
"^  c #83B236",
"/  c #84B234",
"(  c #84B334",
")  c #85B334",
"_  c #84B235",
"`  c #84B335",
"'  c #85B335",
"]  c #86B335",
"[  c #85B336",
"{  c #85B337",
"}  c #86B336",
"|  c #87B336",
" . c #83B435",
".. c #83B436",
"X. c #84B435",
"o. c #85B435",
"O. c #85B535",
"+. c #86B435",
"@. c #87B435",
"#. c #84B436",
"$. c #85B436",
"%. c #84B536",
"&. c #85B537",
"*. c #86B436",
"=. c #87B436",
"-. c #86B536",
";. c #87B536",
":. c #86B437",
">. c #86B537",
",. c #87B537",
"<. c #85B637",
"1. c #86B637",
"2. c #87B637",
"3. c #83B334",
"4. c #88B536",
"5. c #88B537",
"6. c #89B537",
"7. c #89B636",
"8. c #89B637",
"9. c #8AB637",
"0. c #88B537",
"q. c #81B339",
"w. c #84B339",
"e. c #87B638",
"r. c #85B438",
"t. c #89B538",
"y. c #8AB538",
"u. c #88B638",
"i. c #89B638",
"p. c #88B738",
"a. c #89B738",
"s. c #89B739",
"d. c #8AB638",
"f. c #8BB638",
"g. c #8AB739",
"h. c #8BB739",
"j. c #8AB63B",
"k. c #8CB638",
"l. c #8CB738",
"z. c #8CB739",
"x. c #8DB739",
"c. c #8CB73A",
"v. c #8DB73A",
"b. c #8AB73C",
"n. c #8AB738",
"m. c #8BB839",
"M. c #8CB839",
"N. c #8DB839",
"B. c #8CB83A",
"V. c #8DB83A",
"C. c #8CB93A",
"Z. c #8DB93A",
"A. c #8EB83B",
"S. c #8FB93B",
"D. c #8FBA3B",
"F. c #8EB93C",
"G. c #8FBA3C",
"H. c #8DB83A",
"J. c #90B93B",
"K. c #90BA3C",
"L. c #90B93B",
"P. c #94BC41",
/* pixels */
"x @ @ @ @ s s s @ R s O s s R O s s s O @ O @ O s s O O O @ O R R O O @ R O @ w.O o o O @ s s s s q.",
"O . * 1 1 X X X . =.1 . X 1 5.X X . X v X . v 5.. . . X 5.X - 1 X X X X X . * v X . v v . X v R X s ",
"s . =.V.v . O O X O . R =.. X v * X X v X 1 1 1 O X X . 1 1 O . . ` 5.V.X R =.. 1 1 * v . X X X . * ",
"O . . . X . =.=.. 1 O O O . v 5.v * . X 1 O O O X . X =.v * X R * O 1 * 1 X X . * =.. . . 1 1 . ` * ",
"O . * . O X X 1 . =.v X X * X - O v 1 . V.V.v =.O . . i.V.R . =.O X O X X X X O . . X ` . v 1 . v s ",
"@ z.z.X X O X X X X X X - X X O . ` 1 X  .v 1 R 1 1 . . X X X X . X v O * - X X O O X O X . . . . X ",
"s =.* X X X 1 1 O O X X 1 1 v . O 1 * X - 1 1 O X ` ` . v ` * F . . G.=.V.1 v =.X * X 1 * ` X * 1 O ",
"O . X . v 5.=.v ` X .   * 5.=.1 X =.1 1 - m.G.R . 1 v X X 1 X X X X 1 1 1 1 1 1 O O X R v =.* =.v O ",
"O X 1 * 1 v O X . . . . O X . O O X X O 1 1 1 X X O - O X . O X X X O 1 O X X - O X * - X 1 X . X * ",
"@ v v v O O O O =.R 1   . X R O =.X * ` . R z.=.X R v X X . 1 v =.O X X v R 1 1 1 - V.X v =.X O 1 1 ",
"s X X . X X X X 1 * X . O X v 1  .X X 1 . X . . X X X X K.1 X * 1 X X X =.i.=.=.. O 1 X O X X X X 1 ",
"R 1 v O X * 1 v X . O 1 1 1 . X X X X . X . . X X X X O R X 1 X v i.=.X 1 - X - . . v 1 1 - * v 1 R ",
"b.R =.1 . V.m.=.X * =.X X X X z.* . * * . X . . * v . O . . X X * 1 * . * 1 1 X X . =.v V.X ` 5.* ` ",
"@ X . X O O X X 1 X O . . . . X X . =.V.` . * R . . X v X O R X v X X . =.1 5.* =.. . . O . X O X O ",
"@ X X O 1 X * =.1 ` X v * . . . X X X X * . 1 =.. . . i.v O v . =.O * 1 . . . X . . . . . X X X X O ",
"s X . . . . 1 =.1 =.X 1 1 X =.` v X . R X X . X X X X . O X . . . X v =.X O . . . * R 1 R O . * =.O ",
"O 1 i.* . X O X O X X X O X 1 * R O X ` . . X . X . X . . . . X O O . X X =.1 X O =.V.=.=.. . * ` . ",
"O * z.1 . 1 X * X X X 1 R * X X . X O X . =.* ` 1 ` X   v * ` v i.R R O . =.1 =.R O X 1 . . 1 X   . ",
"s X . . . z.X v v ` * v V.i.X 1 V.X X O . =.* 1 1 1 O . ` * v X O X X X X X - v 1 1 O =.* . v ` . O ",
"@ X X X O * X X O X X X 1 1 1 1 =.1 O X X X X i.O O X O X . * X 5.X =.* X X O 1 1 X X X X . O O X O ",
"O . X 1 1 X X . O X * X X i.=.. X - X X 1 - X =.X . X X X . v 1 =.. ` * X X X X X . X O * X 1 X X O ",
"O *  .. =.v X v O X 5.* X X - - X =.e.X X 1 * . X v v 1 X X O R . O . X X X . X v 1 . 1 K.. X i.X . ",
"O v ` . * * 1 i.. X X . ` =.=.1  .v X X . i.=.X X =.R X 1 * O *   * O 1 5.X X v =.1 X X 1 . X 1 X O ",
"O . . X X O O . 1 X X . ` =.i.O ` R   * ` X O O X X X . * 1 . v =.=.v . X X O X v * X X X X X X 1 O ",
"R X O . X O i.` 1 X 5.* . . . 1 X . . O * X 1 . R v X X X X X 1 1 X O X X X X * J.5.. 1 5.. * O 1 ` ",
"i.* =.. X X * * * X X X X . . . X X X . . X R . 1 1 X O 1 X O X . X 5.O . X . X X . . . 1 . V.R . R ",
"O . . X v * . X X 1 v X X 5.* =.. O X . X . . X X X O X X .   X * X X X . =.v =.=.. =.X . X * * X 1 ",
"i.=.* . =.=.. X v X 1 X . ` 1 =.. * 1 . X X =.` 5.X =.* . v ` =.  . v X X X X O O   X . . X X O 1 1 ",
"s X X X X . X X X X O . X . X . X O - * O - O X * . X . . 1 v . . . X X X X X X X . . . X 1 O O =.R ",
"w.=.R X * X . X X . O 1 O X X - X X O O X =.  1 v . . . X X . X X * X O * X . V.1 =.* . X v . . . O ",
"w.5.R . v * . v . * R 5.. X X s.5.R =.- * =.. X O X X X X X X 5.X i.O v ` X . * O =.X . . . X X X * ",
"O . O X . . X z.. . X 1 R v X =.R =.R X X X . . O O X X =.X O X . X X 1 X X X O O X X X . O X X . O ",
"s . X v v . X X . X . =.i.=.- O O . . . . V.v m.X =.5.X v O X O e.X X X O O X O X . . X X 5.` 1 * * ",
"@ . X 1 * . . O X O X X X X O =.v R 1 R . v 1 ` . ` 1   . X O X ` . . ` i.v . X O X X O X * 1 1 =.O ",
"O * ` . . . i.1 =.` . z.1 X O 1 1 v O 1 X X O . O O X . . . O X . . . v =.=.. 1 5.=.R =.. . . * 1 O ",
"s X X X X . v * X X X * X X X X X O X O X X X X X 1 - X X O X * 1 O X X . . . O v X v v X * . 1 5.. ",
"s X X X . X . . . X X X . X . X * X X X =.V.` =.O X ` =.X . . v v i.1 v i.. X X . 1 1 X . . . . . . ",
"O . 1 X * O X X * X 1 1 1 X . . i.O 1 X * R 1 * O X X 1 X . . X X O 1 1 1 X X . X O X 1 5.* O * . O ",
"P.1 5.v ` O O K.=.5.1 =.1 1 . . * X 5.1 X X i.X X X O O 1 X X X * v X X - . . =.i.X X v V.1 v v . O ",
"e.X 1 1 X X X v O * X . . . X . . X . X X X * X X v O X =.` X X 1 V.X 1 X 1 O v v X X . X X X . X . ",
"- . =.=.X O X O X X X * X X X 1 v O 1 O O X . X V.V.1 . * R O O O 1 X X X * X . X X . . X X X X X O ",
"O X . . X O 1 1 O X . =.* . . * ` v 1 . 5.* . . X . X X X X X X 1 - O - X X 1 X X . v V.R v 1 . 1 G.",
"O . . X O v V.5.O X . . X . X X O X X X X . X . X O * 1 - 1 * 1 1 =.1  .. X V.5.X * X R X * O X X 1 ",
"O v m.=.X O X X O X . v z.z.v X X R 1 X X . ` v 1 =.R 1 X m.=.5.1 i.* v X X O O R R O O =.* . 1 X O ",
"O v ` =.X X . . X X . v R 1 * X X i.1 O O O O X . X . X 1 1 X O X   X X O O . X . . . . X X X O X * ",
"O X . . O X X . . X X . . X . X X . X X O . . O 1 1 X . * O X X X . v J.v . X X v * . X X X - O X 1 ",
"O X 1 O O 1 X X X X . R * . X X X . 1 ` O X . X X X X . X . X X * . X . . . . . ` v . i.v . V.1 X O ",
"s X v V.X X . O z.X O 1 X * 1 1 1 X 1 =.X . ` =.. . 1 ` . X . X =.. X . O ` . . . . . R X X  .O . * ",
"s . X 1 . =.1 X 1 . X O . =.z.i.O v R   X * 1  .X X * X . * * . X * X v . R X X   * 5. .=.  R R . O ",
"s X O O O  .s O O * 1 O 1 1 * 1 O O O   O G.O 1 s * O O O O O O R e.* R . O * 1 O * * * R O R * X @ "
};
