/* XPM */
static const char *player[] = {
/* columns rows colors chars-per-pixel */
"50 50 242 2 ",
"   c #090715",
".  c #360E13",
"X  c #1E1921",
"o  c #341A26",
"O  c #1E2034",
"+  c #2E2A36",
"@  c #4E0D15",
"#  c #6A0E17",
"$  c #76111B",
"%  c #6D101A",
"&  c #572917",
"*  c #682F1B",
"=  c #5D1B2D",
"-  c #6D1321",
";  c #592B29",
":  c #442934",
">  c #593434",
",  c #4B2F38",
"<  c #79372A",
"1  c #683A38",
"2  c #77393B",
"3  c #6F2A2E",
"4  c #725333",
"5  c #677436",
"6  c #1C3447",
"7  c #1A3A50",
"8  c #2E3A45",
"9  c #563946",
"0  c #473B4C",
"q  c #693F48",
"w  c #334A58",
"e  c #5C4549",
"r  c #564958",
"t  c #4E4955",
"y  c #6A4746",
"u  c #794547",
"i  c #674C52",
"p  c #6D575B",
"a  c #775658",
"s  c #7D5747",
"d  c #6A7148",
"f  c #5A5467",
"g  c #655868",
"h  c #755C63",
"j  c #6C5C73",
"k  c #7B666C",
"l  c #796972",
"z  c #7B7076",
"x  c #496D78",
"c  c #86171C",
"v  c #98191C",
"b  c #A81A1B",
"n  c #BC1E1F",
"m  c #9E201E",
"M  c #9B1A23",
"N  c #AB1E21",
"B  c #8F322B",
"V  c #B52826",
"C  c #B8392B",
"Z  c #AC2D2B",
"A  c #B82118",
"S  c #C72828",
"D  c #D42B2B",
"F  c #D93837",
"G  c #CF3831",
"H  c #E63A37",
"J  c #AE4E35",
"K  c #AA7339",
"L  c #8D602F",
"P  c #D1443C",
"I  c #E3453C",
"U  c #E13E40",
"Y  c #844545",
"T  c #895758",
"R  c #955B57",
"E  c #835143",
"W  c #AD524E",
"Q  c #97665D",
"!  c #8D6F54",
"~  c #AB6557",
"^  c #B36459",
"/  c #B37152",
"(  c #835C63",
")  c #876967",
"_  c #9B7467",
"`  c #816D70",
"'  c #877677",
"]  c #967674",
"[  c #99696C",
"{  c #B96B62",
"}  c #B87866",
"|  c #A77675",
" . c #A9756C",
".. c #D35249",
"X. c #E74542",
"o. c #F4554E",
"O. c #CB744E",
"+. c #C3796C",
"@. c #CA6D6D",
"#. c #FE6D60",
"$. c #738B31",
"%. c #6FA723",
"&. c #72AB26",
"*. c #76AB2C",
"=. c #79AD2E",
"-. c #73A425",
";. c #75B22B",
":. c #7BB22D",
">. c #76B427",
",. c #7BAE31",
"<. c #7BA83A",
"1. c #7EB032",
"2. c #7DB538",
"3. c #7A8B53",
"4. c #7FAB40",
"5. c #7F8072",
"6. c #8C8B39",
"7. c #82AE37",
"8. c #83B334",
"9. c #89B537",
"0. c #83B339",
"q. c #8AB639",
"w. c #8DB93A",
"e. c #86BA38",
"r. c #90BA3C",
"t. c #81B12C",
"y. c #85C33A",
"u. c #879D4B",
"i. c #868653",
"p. c #8A9C54",
"a. c #8F8F54",
"s. c #B08D56",
"d. c #87A847",
"f. c #8AB447",
"g. c #92B649",
"h. c #96A755",
"j. c #96B955",
"k. c #91AE4F",
"l. c #A7B057",
"z. c #979A65",
"x. c #8C9170",
"c. c #A98877",
"v. c #B48778",
"b. c #AB8E6F",
"n. c #A7BC67",
"m. c #AFB171",
"M. c #9FAD73",
"N. c #CB845B",
"B. c #D38456",
"V. c #CC8968",
"C. c #D9986A",
"Z. c #C58A76",
"A. c #C89679",
"S. c #CA9D75",
"D. c #E29A71",
"F. c #DDA471",
"G. c #E3AA7A",
"H. c #E2A36B",
"J. c #A6C16B",
"K. c #B3C776",
"L. c #AAC975",
"P. c #3C7C90",
"I. c #7D7582",
"U. c #867A83",
"Y. c #46878E",
"T. c #718785",
"R. c #75AAAC",
"E. c #9C8A8C",
"W. c #958587",
"Q. c #9C939A",
"!. c #928992",
"~. c #AA8885",
"^. c #B68684",
"/. c #AB938E",
"(. c #BA978A",
"). c #A89895",
"_. c #B29E96",
"`. c #A68D97",
"'. c #B6A399",
"]. c #B7A183",
"[. c #949BA5",
"{. c #AA9EA8",
"}. c #8DA8AC",
"|. c #AAA7AA",
" X c #BAAAA5",
".X c #ACABB2",
"XX c #B8B4B9",
"oX c #B5B1B1",
"OX c #CB9A88",
"+X c #D49A8C",
"@X c #C69897",
"#X c #C6A586",
"$X c #D7AA89",
"%X c #CAAA98",
"&X c #D9AB96",
"*X c #D9B398",
"=X c #C6BA87",
"-X c #E9B48D",
";X c #E4BA9A",
":X c #E9AE8E",
">X c #C6AEA3",
",X c #C8B4A9",
"<X c #D9B8A8",
"1X c #C9BAB3",
"2X c #D1BFB2",
"3X c #D5AFA9",
"4X c #E6BCA6",
"5X c #B9CB85",
"6X c #BECB9B",
"7X c #BEC6BB",
"8X c #CCD198",
"9X c #CACA8D",
"0X c #EEC59E",
"qX c #D4D6A6",
"wX c #CBC3B9",
"eX c #D9C7B9",
"rX c #D7CDB0",
"tX c #E7C6AA",
"yX c #F4CCAB",
"uX c #F0C4A2",
"iX c #E7CBB6",
"pX c #F3CBB4",
"aX c #EAD5B7",
"sX c #F5D7BA",
"dX c #D2BCC2",
"fX c #C8C4C7",
"gX c #D6CBC4",
"hX c #D7D6D9",
"jX c #DAD1C8",
"kX c #E7D7C8",
"lX c #F5DCC6",
"zX c #E5DED8",
"xX c #F5E2CC",
"cX c #ECE2D7",
"vX c #FBEAD6",
"bX c #F5EBDD",
"nX c #FBEEDD",
"mX c #F6E5D3",
"MX c #DFDCE1",
"NX c #FEFAEC",
"BX c #FCF3E5",
"VX c #F9EDEB",
/* pixels */
"2.,.,.,.,.1.1.1.,.8.0.*.n.aX9Xf.*.1.1.,.1.,.,.1.1.1.,.,.,.,.,.8.8.,.,.1.0.,.,.0.,.,.=.,.,.1.1.1.1.0.",
",.*.,.1.1.=.=.=.*.9.8.&.m.+XpXsXn.=.&.8.:.=.8.q.*.*.=.,.q.,.,.8.=.,.=.&.&.1.8.8.,.*.,.8.*.*.8.8.=.1.",
"1.*.9.w.8.*.,.,.=.,.*.e.#XW } ;XpX=Xf.:.=.=.&.*.*.&.&.&.=.1.,.,.*.=.w.K.8X;Xl.*.1.1.,.1.*.=.=.=.*.,.",
",.*.*.*.=.*.9.9.*.1.*.0.#X^ ^ A.&X4X$Xh.0.j.K.9X9X9X8XK.j.=.&.=.0.5XaX3X| Q _ ,.=.9.*.*.*.1.,.*.8.,.",
",.*.,.*.,.=.=.1.*.9.=.g.OX^ ^ Z.&X&X;XZ.$XmXmX:XD.;X$X$XlXqXn.9XaX3X| Y 2 Y _ d.*.*.=.8.*.8.1.*.8.1.",
",.q.q.=.=.,.=.=.=.,.&.j.OX^ ^ } &X&X;X$X&XxXtXB.C.F.O.*XlX4XpXiX^.T u 2 Y T ] d.:.,.=.,.=.*.*.*.*.,.",
"1.9.,.=.=.,.1.1.,.,.&.J.OX{ { A.&X<X4XaXlXmX;XO.D.N.A.lXkXtX*X| R T u 2 Y R | p.:.,.=.1.,.8.=.,.1.,.",
",.*.=.*.8.9.9.8.8.,.%.J.+X+.+.Z.&XtXsXvXlXlX;XO.C.V.tX<XkXeX(._ T T u 2 Y R | p.:.,.=.8.8.9.,.9.8.,.",
",.=.1.,.,.8.,.=.*.=.%.J.+X+.+.+X4XlXvXBX0X0XuXB.V.*X$XOXkXeX>X~.] T 2 2 Y R ^.a.;.,.,.1.=.1.=.*.*.,.",
",.8.8.8.,.,.,.,.9.8.&.J.&X} Z.4XlXvXnXBX-XG.yXN.V.tX/ A.kXeX,X/.] a u 2 Y Q ^.p.:.,.w.=.8.9.=.,.1.1.",
"1.=.,.*.=.=.=.=.1.,.&.j.iXA.OXlXvXnXbXnXtXN.yXN.$X&X~ eXkXeX,X).] ) q 2 Y _ ^.u.;.,.1.=.,.=.=.=.=.1.",
"1.1.1.,.=.,.1.8.*.*.=.f.tXtXsXvXnXbXcXcXlXN.tXV.4X} A.kXeXeX1X'.W.k i 1 u | c.<.*.*.1.1.1.1.,.8.1.8.",
"q.8.9.1.*.q.q.9.,.,.8.,.aXsXvXnXBXNXmXkXmX$X*X$X%X~ eXgXwXeX2X XW.l h y a ~.a.=.=.*.8.8.q.=.8.9.,.8.",
",.=.*.=.,.,.=.,.1.=.*.8XvXvXnXNXBX>X XkXcXtX*X*X(.(.kX,XeXkXeX XW.` k h ] ] p.:.0.*.*.*.,.*.=.,.=.,.",
",.=.=.,.1.=.,.9.1.:.j.lXsXsXxXrXe t X e kXiX*X%Xc.>X1X_.E.).1X,XE.' k k a ( z.*.*.*.*.*.*.=.=.=.=.,.",
"1.*.*.*.*.*.1.9.1.:.n.uXG.C.C._ t }.I.  W.xX*X#Xc.1XE.0 +   + ' Q.U.l k h a [ u.*.,.8.1.8.,.*.,.9.,.",
",.1.q.t.*.=.=.=.1.*.f.;XC.-XsXeX}.w : 8 T.xX<X%X(.1Xt 6 t O 7 + p ` k k h a [ u.;.9.w.9.9.*.*.,.8.*.",
",.,.q.1.*.,.=.,.=.=.*.9XyXsXsXiX}.x + Y.T.mXlXiX2X).6 w X 8 P.f T < 1 y y u _ q.8.,.=.1.*.*.1.=.&.*.",
"1.=.*.*.*.q.=.8.8.9.*.n.sXG.H.yXgX}.R.}.'.NXNXbXjX' 8 Y.6 Y.R.).,X_ 1 ; ; T z.:.1.1.=.9.,.*.8.8.*.,.",
",.=.=.=.,.,.=.=.=.=.*.f.iXC.F.0XyXpXvXBXNXiXpX&X(.wXeXwXXX7XrX$Xc.' a > 1 | d.:.1.=.=.=.=.*.=.,.=.,.",
",.*.=.1.1.=.=.*.=.=.,.*.qX;X$XS./ $XBXNXNX<X+.R %XNXbXlXpXyXS.R E y i y [ z.*.=.=.*.=.=.,.=.1.,.,.,.",
",.,.9.*.9.8.=.8.=.=.q.*.j.aXA. .v.iXbXcXcXzXQ >XBXkXjXwXc._ Q E 1 ; ; T b.*.*.=.8.1.*.,.r.*.=.q.=.*.",
",.8.8.*.,.,.1.q.=.=.=.*.:.K.4Xv.c.'.eX1X_.] | ] ). X X).' a a u 1 > T (.g.*.=.1.9.1.=.=.1.*.=.1.,.,.",
",.*.*.=.=.=.=.*.1.=.=.*.8.1.n.=X#Xv._ ) ) _.2X~.h k l k p i e 1 u  .].d.*.,.,.=.8.,.=.=.=.=.=.=.1.,.",
"8.=.,.*.=.,.q.8.1.=.9.,.*.*.&.:.f.l.b._ c.,X X/.' p i i i e u Q b.h.,.*.,.=.=.,.r.9.*.1.9.*.,.,.1.8.",
"q.,.9.*.=.=.,.,.,.=.=.=.=.*.,.*.*.&.1.k.! ) ] ` p 9 , : , Q z.h.,.&.9.,.*.*.*.=.=.*.*.*.1.*.q.8.*.8.",
",.*.*.=.1.,.*.=.=.1.8.=.=.9.,.9.=.,.:.$.* y a > ; & . . : ; $.>.,.,.*.=.*.9.8.9.9.*.9.=.*.,.,.,.=.1.",
"q.9.,.*.9.9.*.=.8.=.1.=.*.8.1.9.*.:.6.Z H.L * s.K & @ - a q @ 6.&.*.8.=.,.=.=.,.,.&.=.*.*.=.=.,.1.1.",
"1.*.=.=.=.*.=.=.=.=.,.*.*.*.=.*.*.7.W G O.C P O.B N N b W ~.Y - u.;.*.*.=.=.=.=.=.*.*.*.=.1.,.,.9.8.",
"0.9.8.=.,.=.*.=.=.*.,.1.,.=.*.,.;.s.G o.o.#.#.I H H V V S } @X3 B g.&.,.,.=.*.q.1.9.,.*.=.8.*.*.*.,.",
"0.9.8.*.8.,.*.8.*.,.8.9.*.=.=.8.l...G o.o.o.o.H D S c c G ..3X^.$ ~ e.1.8.=.*.,.,.9.=.*.*.*.=.=.*.,.",
",.*.,.=.*.*.=.q.*.*.=.1.8.8.=.0.B.V X.o.I H H D n b % @ C I +.{ B 3 a.:.=.,.=.,.,.=.=.=.*.,.=.=.*.,.",
"1.*.=.1.8.*.=.*.*.=.*.9.q.9.;.k.C V X.X.X.H H D n b c @ c G J B 1 > 5 :.=.,.=.,.=.*.*.*.=.9.8.,.,.,.",
",.*.*.1.,.*.*.,.=.,.=.=.=.,.*.8Xv...I X.X.X.H S S v c # @ B s ' ` h <.8.q.1.*.,.,.=.=.,.*.,.1.1.9.,.",
",.,.8.*.*.*.q.1.9.8.*.q.1.&.j.xXOX..F U F H H S N M $ # @ . /.nX,X' <.:.0.8.%.,.q.9.8.9.*.*.*.,.1.,.",
"1.=.=.*.=.*.8.,.=.=.=.,.,.%.qXkXv...X.I F F F S V v $ # @ . ,XnX,X' <.:.*.0.5X7.:.,.8.8.=.,.*.1.9.*.",
"1.=.=.=.*.=.*.*.*.,.=.,.%.L.NXrX^ V G X.F D S S V b c % @ T mXkX XW.0.8.t.5XdXu.*.,.1.*.*.*.*.*.*.*.",
",.=.1.=.,.,.=.=.,.,.8.=.g.bXcX2Xv.B m V D D D S V M - @ q bXbXkX,X).f.=.8.9X~.u.;.,.=.,.9.=.,.,.*.,.",
"g.1.q.8.8.,.,.r.8.9.1.8.f.eX,X/.).oXE.( u 2 1 1 9 e r t W.BXzXjXwXE.d.&.k.V.R h.e.,.,.1.q.1.8.8.*.,.",
"0.,.1.1.=.=.=.8.,.,.=.*.&.d.x.i ` cXhXhXfX.X.X{..X.X|.Q.U.1X X X).k d.:.S.J E k.:.,.=.*.=.,.=.*.=.*.",
",.*.9.9.=.,.,.,.=.=.=.,.=.*.,.<.M.zXhXXX|.{.XXfXhXhXhXfXQ.l g l l i.;.l.V.< ! 1.*.=.*.*.=.=.=.=.=.,.",
",.=.*.*.=.,.1.1.,.=.*.9.,.*.*.>.n.MXhXQ.g r f !..XfXhXhXXXg o = b.y.l./ < 2 h.:.,.*.8.w.8.8.,.*.,.w.",
",.*.*.=.,.1.w.9.=.=.*.*.=.*.*.;.6.@.@XW.r : o : `.gXgX@XW $ @ = Y s.~ < ; i.w.9.=.,.=.8.=.,.,.,.,.,.",
",.8.q.9.=.,.,.=.,.=.*.8.q.q.8.*.,.K Z $ @ @ @ & < Z S A m 3 , p @ @ ; y i.2.=.,.8.8.=.=.9.,.*.1.=.,.",
",.8.8.9.=.=.*.*.=.=.*.8.8.1.,.*.,.y.:.! h e 9 3.-.L L T k r 0 z d 4 i.d.1.*.*.=.*.&.*.*.=.=.=.,.=.,.",
",.=.*.*.,.,.=.*.*.=.=.*.*.=.*.=.*.*.j.|.!.g g p.:.2.>.z.{.U.f j k.>.8.w.t.=.=.=.8.,.*.=.*.=.1.,.=.1.",
",.=.1.,.,.1.=.=.=.=.*.8.,.*.,.*.f.aXcXfXQ.g g x.:.,.*.6XgX1X!.j x.*.,.*.*.*.*.*.8.8.*.q.8.*.w.1.=.,.",
"1.=.8.w.=.=.*.,.q.=.,.1.=.,.8.=.8XVXjXXXU.g f x.:.-.6XVXgXzX|.j 5.:.=.*.,.8.*.*.*.*.*.8.=.=.0.,.*.,.",
"1.*.=.1.*.9.1.=.1.*.=.,.*.9.q.9.M..XQ.I.r 0 0 3.:.,.gXdX1XfXI.f 3.:.,.8.*.8.=.=.&.,.9.0.9.&.8.8.*.,.",
"1.=.,.,.,.0.1.,.,.,.1.,.1.1.,.1.,.3.d d 5 5 $.,.1.,.z.' ' z r d 7.9.,.8.*.,.,.1.,.,.,.,.1.,.8.,.=.,."
};
